<svg width="166" height="50" viewBox="0 0 166 50" fill="none" xmlns="http://www.w3.org/2000/svg">
<path d="M17.9229 0C16.7753 0 15.6595 0.137243 14.5875 0.3891C14.5529 0.394459 14.5196 0.401903 14.4865 0.412322C13.4202 0.670729 12.3993 1.04524 11.4384 1.52394C11.3821 1.54449 11.3282 1.57128 11.2788 1.60582C8.8531 2.85111 6.818 4.75195 5.41374 7.07731C5.37503 7.12524 5.34556 7.18031 5.32055 7.23866C4.05115 9.40237 3.31969 11.9183 3.31969 14.6029V24.3087C3.31969 25.4114 3.44562 26.4992 3.68795 27.5608C3.80495 28.0722 3.94636 28.578 4.11783 29.0752C4.12825 29.121 4.14254 29.1666 4.16278 29.2107C4.49324 29.9945 4.89097 30.7248 5.31251 31.4628C5.59652 31.8781 5.87517 32.3437 6.20503 32.7164C6.39884 32.9519 6.59592 33.1916 6.79359 33.4309C7.00943 33.653 7.22526 33.8745 7.43782 34.093C8.05139 34.7649 8.86293 35.36 9.61582 35.8622C9.95222 36.0638 10.2889 36.2647 10.6256 36.4663C10.9906 36.5101 11.0853 36.3666 10.9096 36.0364C10.5926 35.806 10.2746 35.5756 9.95758 35.3448C9.70126 35.1248 9.44583 34.9036 9.19189 34.681C8.80964 34.3716 8.34909 33.8769 8.06806 33.5053C7.88765 33.2841 7.70427 33.0591 7.52118 32.8343C7.35774 32.5953 7.1943 32.3562 7.03354 32.1207C6.75965 31.753 6.54203 31.2979 6.31399 30.8936C5.99307 30.1865 5.68852 29.4917 5.45035 28.7519C5.31043 28.3604 5.19195 27.9627 5.09043 27.5608C4.82309 26.5031 4.68615 25.414 4.68615 24.3087V16.299C5.5733 17.5496 6.87546 18.8806 8.47383 20.1221C10.4634 21.6666 14.5217 24.289 19.844 24.9991C19.8357 25.125 19.83 25.2551 19.83 25.3914C19.83 25.7689 20.1358 26.0747 20.5132 26.0747C20.8907 26.0747 21.1965 25.7689 21.1965 25.3914C21.1965 24.4001 21.4975 23.7115 22.067 23.4004C22.1292 23.3664 22.1929 23.3397 22.2572 23.3161C22.2596 23.3152 22.2623 23.3149 22.2646 23.314C22.2709 23.3117 22.276 23.3078 22.2819 23.3054C22.7877 23.1301 23.3405 23.2539 23.6766 23.4697C23.8315 23.5692 24.0824 23.7803 24.0779 24.0905C23.0911 30.9543 16.7354 34.8084 10.5682 38.5431C9.96413 38.9089 9.36843 39.2704 8.78433 39.6303C6.89153 40.7973 5.12615 41.9506 3.63883 43.2054C3.60697 43.2316 3.57452 43.2575 3.54237 43.284C3.54178 43.2846 3.54148 43.2852 3.54059 43.2861C3.53701 43.2894 3.53314 43.2917 3.52987 43.2947L3.52897 43.2956C2.38371 44.3935 1.44386 45.6171 0.704365 47.0202C0.580223 47.3143 0.462035 47.6114 0.349205 47.9106C0.277161 48.1708 0.205712 48.431 0.134858 48.6915C0.0696612 48.9838 0.0416785 49.289 0 49.5849C0.0916926 49.9317 0.258704 49.9665 0.501629 49.6897L0.510263 49.6581C0.582307 49.3923 0.641253 49.1169 0.73235 48.8564C0.825829 48.6287 0.919009 48.4015 1.01159 48.1735C1.14675 47.9174 1.28548 47.6632 1.42808 47.4114C1.60254 47.1592 1.76657 46.8785 1.97169 46.6501C2.10684 46.4885 2.242 46.3268 2.37508 46.1678C2.58317 45.9508 2.79275 45.7347 3.00412 45.5203C3.19763 45.3459 3.39263 45.1726 3.58762 45.0003C5.87637 42.8413 8.74236 41.2498 11.4098 39.6306C17.5312 35.9233 24.3438 31.7429 25.4271 24.2994C25.4325 24.2718 25.4393 24.245 25.4414 24.2161C25.442 24.2092 25.4411 24.2027 25.4414 24.1964C25.5293 23.5585 25.5805 22.8999 25.5805 22.2125C25.5805 19.9521 24.8731 15.9042 22.8797 11.9349C20.685 7.56494 17.4064 4.22352 13.3463 2.18306C13.7902 2.01873 14.2457 1.87911 14.7107 1.7627C20.844 2.93119 25.8832 8.15916 26.7198 14.2514C27.5608 20.3757 27.6873 21.6776 27.6873 24.2009C27.6873 31.4604 22.2584 35.8983 16.7494 39.6309C16.0093 40.1328 15.2671 40.6219 14.5369 41.1033C14.0391 41.4311 14.1311 41.3704 14.3204 41.2459C13.5848 41.7309 11.8033 42.908 11.3505 43.2477C11.349 43.2489 11.3479 43.2495 11.3464 43.2506C10.4244 43.9684 9.53901 44.7299 8.67597 45.5177C8.11748 46.0756 7.49617 46.6409 7.0386 47.2884C6.74 47.6504 6.47118 48.033 6.23242 48.4363C6.12644 48.6129 6.01539 48.7638 5.94841 48.9195C5.82992 49.1624 5.71144 49.4051 5.59325 49.648C5.57896 50.0106 5.72871 50.0931 6.04278 49.8954L6.05916 49.8692C6.19253 49.6549 6.3259 49.4399 6.45838 49.2253C6.53221 49.0886 6.65367 48.9555 6.76858 48.8013C7.02907 48.4474 7.31576 48.1151 7.62865 47.8061C8.11867 47.2369 8.76379 46.7633 9.34223 46.2899C12.5149 43.9372 15.9316 41.9241 19.1477 39.6306C24.3429 35.926 29.0538 31.4003 29.0538 24.2006C29.0538 21.462 28.8805 19.9429 28.0734 14.065C27.3071 8.48247 23.3149 3.5656 18.0992 1.37033C25.3167 1.4653 31.16 7.3628 31.16 14.6027V26.1884C31.16 31.9879 28.1225 35.9971 23.8446 39.6303C22.3947 40.8616 20.8032 42.0497 19.1385 43.2495C19.1382 43.2498 19.1379 43.2498 19.1379 43.2498C16.6559 45.2036 14.0668 47.1327 12.0489 49.5882C11.9453 49.9398 12.0707 50.0564 12.4249 49.9392L12.4383 49.9264C12.6426 49.7269 12.8462 49.5271 13.0504 49.3277C14.9721 47.3247 17.6345 45.8562 19.9363 44.3587C19.953 44.3477 19.9705 44.3352 19.9866 44.3227C19.9869 44.3227 19.9869 44.3224 19.9869 44.3224C21.8621 42.9708 23.9767 41.4412 25.9285 39.6303C29.5015 36.3151 32.5265 32.0531 32.5265 26.1884V14.6027C32.5259 6.55126 25.9749 0 17.9229 0ZM20.1432 23.6579C11.4116 22.5484 4.81178 15.7652 4.76266 13.188C4.94902 11.4428 5.47536 9.79802 6.27469 8.32141C10.759 9.79147 17.9587 14.5333 21.1611 22.3584C20.8154 22.6005 20.4141 23.005 20.1432 23.6579ZM24.2137 22.2108C23.6746 21.925 23.0467 21.8133 22.4424 21.8836C19.145 13.7872 11.7777 8.80398 7.00645 7.12762C8.20857 5.37801 9.81915 3.93058 11.7006 2.92434C21.8994 7.30832 24.2128 18.5704 24.2137 22.2108ZM14.7009 40.9949C14.7152 40.9854 14.717 40.9845 14.7009 40.9949V40.9949ZM14.6771 41.0107C14.6833 41.0063 14.689 41.0027 14.694 40.9997C14.689 41.0027 14.6842 41.0063 14.6771 41.0107ZM19.8741 42.7198C19.8777 42.7172 19.8783 42.7169 19.8741 42.7198V42.7198Z" fill="#407D7A"/>
<path d="M3.64033 43.206C3.62039 43.2191 5.12766 41.9515 3.64033 43.206V43.206Z" fill="#407D7A"/>
<path d="M31.5145 38.7625C30.4371 39.5323 29.3597 40.3025 28.2877 41.0801C25.2433 43.1411 22.066 45.2753 19.5021 47.9308C19.019 48.4682 18.5525 49.0115 18.1312 49.5992C18.0431 49.9037 18.1616 50.0142 18.4867 49.9308L18.5004 49.9198C18.5004 49.9198 18.7082 49.7489 19.0559 49.4438C19.4009 49.1559 19.7486 48.871 20.099 48.5897C24.1067 45.5716 28.5729 43.0128 31.8854 39.1796C31.9649 39.0861 31.9771 38.9474 31.9054 38.8402C31.8187 38.7107 31.6437 38.6758 31.5145 38.7625Z" fill="#407D7A"/>
<path d="M31.8977 38.8259C31.873 38.7884 31.8819 38.8024 31.8977 38.8259V38.8259Z" fill="#407D7A"/>
<path d="M31.8945 38.8232C31.8981 38.8283 31.8996 38.8304 31.9041 38.8375C31.9425 38.8953 31.9151 38.8539 31.8945 38.8232Z" fill="#407D7A"/>
<path d="M31.5235 43.5791C29.0171 44.6839 26.238 46.5213 24.698 48.8416C24.5251 49.0875 24.3622 49.34 24.2089 49.5987C24.1339 49.8717 24.2518 49.9821 24.5629 49.9291L24.578 49.9193C27.0627 48.0845 29.7599 46.3215 31.85 44.0325C31.9929 43.7443 31.8837 43.5931 31.5235 43.5791Z" fill="#407D7A"/>
<path d="M4.11685 29.0744C3.94538 28.5772 4.12757 29.1202 4.11685 29.0744V29.0744Z" fill="#407D7A"/>
<path d="M54.2164 29.49C52.3264 29.49 50.623 29.0583 49.1064 28.195C47.613 27.3083 46.423 26.0017 45.5364 24.275C44.673 22.525 44.2414 20.3317 44.2414 17.695C44.2414 15.7583 44.4864 14.0433 44.9764 12.55C45.4897 11.0333 46.2247 9.75 47.1814 8.7C48.1614 7.62667 49.363 6.81 50.7864 6.25C52.2097 5.69 53.8547 5.41 55.7214 5.41C57.1214 5.41 58.393 5.57333 59.5364 5.9C60.6797 6.22667 61.6714 6.69333 62.5114 7.3C63.3514 7.90667 64.0047 8.64167 64.4714 9.505C64.9614 10.345 65.2297 11.3017 65.2764 12.375L60.5164 13.845C60.4697 12.865 60.213 12.06 59.7464 11.43C59.303 10.8 58.708 10.3333 57.9614 10.03C57.238 9.70333 56.4214 9.54 55.5114 9.54C54.2514 9.54 53.1664 9.83167 52.2564 10.415C51.3697 10.975 50.693 11.85 50.2264 13.04C49.7597 14.2067 49.5264 15.6883 49.5264 17.485C49.5264 18.8617 49.6547 20.0517 49.9114 21.055C50.1914 22.035 50.5997 22.8517 51.1364 23.505C51.673 24.1583 52.3147 24.6483 53.0614 24.975C53.808 25.2783 54.6714 25.43 55.6514 25.43C56.678 25.43 57.5647 25.2667 58.3114 24.94C59.0814 24.59 59.688 24.065 60.1314 23.365C60.598 22.6417 60.8547 21.7317 60.9014 20.635H56.5264V16.995H65.8714V21.23V29H62.3714L62.4414 23.085H61.8114C61.438 24.485 60.9364 25.6633 60.3064 26.62C59.6764 27.5533 58.8597 28.265 57.8564 28.755C56.8764 29.245 55.663 29.49 54.2164 29.49ZM70.306 29V5.9H75.381V29H70.306ZM73.806 29V24.905H88.121V29H73.806ZM73.806 19.2V15.455H86.371V19.2H73.806ZM73.806 9.96V5.9H88.051V9.96H73.806ZM92.0443 29V5.9H98.6243L109.089 22.245H109.474L109.159 5.9H114.059V29H108.109L97.0493 11.885H96.6643L96.9793 29H92.0443ZM121.598 29V24.905H128.318C129.625 24.905 130.71 24.625 131.573 24.065C132.436 23.4817 133.09 22.6417 133.533 21.545C133.976 20.4483 134.198 19.1067 134.198 17.52C134.198 16.2133 134.058 15.0933 133.778 14.16C133.498 13.2033 133.078 12.4217 132.518 11.815C131.981 11.2083 131.293 10.7533 130.453 10.45C129.636 10.1467 128.668 9.995 127.548 9.995H121.598V5.9H127.373C130.173 5.9 132.46 6.355 134.233 7.265C136.006 8.175 137.313 9.48167 138.153 11.185C138.993 12.865 139.413 14.8833 139.413 17.24C139.413 19.0133 139.203 20.5533 138.783 21.86C138.363 23.1667 137.791 24.275 137.068 25.185C136.368 26.095 135.551 26.83 134.618 27.39C133.685 27.95 132.693 28.3583 131.643 28.615C130.593 28.8717 129.531 29 128.458 29H121.598ZM119.183 29V5.9H124.223V29H119.183ZM140.808 29L148.718 5.9H156.068L163.978 29H158.518L152.673 9.89H152.148L146.268 29H140.808ZM145.253 24.45V21.02H160.268V24.45H145.253Z" fill="#214442"/>
<path d="M69.6944 44V34.76H71.4584V44H69.6944ZM63.6184 44V34.76H65.3824V44H63.6184ZM64.6124 40.038V38.582H70.3944V40.038H64.6124ZM72.8559 44L76.0479 34.76H78.6379L81.8299 44H79.8979L77.4479 36.174H77.2519L74.7739 44H72.8559ZM74.5499 42.096V40.85H80.3739V42.096H74.5499ZM83.2102 44V34.76H85.0022V44H83.2102ZM87.1887 44V34.76H90.7587C91.244 34.76 91.6873 34.802 92.0887 34.886C92.4993 34.9607 92.8587 35.0727 93.1667 35.222C93.484 35.3713 93.75 35.558 93.9647 35.782C94.1793 35.9967 94.3427 36.2487 94.4547 36.538C94.5667 36.818 94.6227 37.1307 94.6227 37.476C94.6227 37.8027 94.5713 38.1013 94.4687 38.372C94.366 38.6333 94.212 38.862 94.0067 39.058C93.8107 39.254 93.5587 39.4173 93.2507 39.548C92.952 39.6693 92.602 39.758 92.2007 39.814V39.996C92.63 40.052 92.98 40.1593 93.2507 40.318C93.5307 40.4767 93.7547 40.696 93.9227 40.976C94.0907 41.256 94.2353 41.6153 94.3567 42.054L94.9167 44H92.9707L92.5367 42.208C92.4527 41.8347 92.322 41.536 92.1447 41.312C91.9767 41.088 91.762 40.9293 91.5007 40.836C91.2393 40.7427 90.922 40.696 90.5487 40.696H88.9527V44H87.1887ZM88.9527 39.338H90.6327C91.3327 39.338 91.8647 39.2073 92.2287 38.946C92.602 38.6847 92.7887 38.2833 92.7887 37.742C92.7887 37.2007 92.6113 36.7993 92.2567 36.538C91.9113 36.2767 91.3793 36.146 90.6607 36.146H88.9527V39.338ZM103.334 44.182C102.727 44.182 102.186 44.1213 101.71 44C101.234 43.888 100.828 43.7107 100.492 43.468C100.165 43.216 99.9132 42.9127 99.7359 42.558C99.5585 42.194 99.4652 41.7693 99.4559 41.284L101.024 40.822C101.015 41.27 101.108 41.6433 101.304 41.942C101.5 42.2313 101.78 42.446 102.144 42.586C102.517 42.726 102.942 42.796 103.418 42.796C103.875 42.796 104.258 42.74 104.566 42.628C104.883 42.516 105.121 42.3667 105.28 42.18C105.439 41.984 105.518 41.7647 105.518 41.522C105.518 41.2513 105.42 41.0367 105.224 40.878C105.028 40.71 104.762 40.5747 104.426 40.472C104.099 40.36 103.726 40.2573 103.306 40.164C102.849 40.0613 102.401 39.9493 101.962 39.828C101.533 39.7067 101.141 39.5433 100.786 39.338C100.431 39.1327 100.147 38.8713 99.9319 38.554C99.7265 38.2273 99.6239 37.8167 99.6239 37.322C99.6239 36.762 99.7639 36.2813 100.044 35.88C100.324 35.4693 100.73 35.152 101.262 34.928C101.803 34.6947 102.447 34.578 103.194 34.578C103.931 34.578 104.575 34.69 105.126 34.914C105.677 35.1287 106.106 35.446 106.414 35.866C106.722 36.286 106.885 36.7807 106.904 37.35L105.294 37.798C105.294 37.49 105.243 37.224 105.14 37C105.047 36.7667 104.907 36.5753 104.72 36.426C104.533 36.2673 104.309 36.1507 104.048 36.076C103.796 36.0013 103.507 35.964 103.18 35.964C102.797 35.964 102.461 36.0153 102.172 36.118C101.892 36.2207 101.677 36.3653 101.528 36.552C101.379 36.7293 101.304 36.9393 101.304 37.182C101.304 37.4807 101.416 37.7187 101.64 37.896C101.864 38.0733 102.158 38.218 102.522 38.33C102.895 38.4327 103.301 38.5353 103.74 38.638C104.141 38.722 104.543 38.8247 104.944 38.946C105.355 39.0673 105.733 39.226 106.078 39.422C106.423 39.618 106.699 39.884 106.904 40.22C107.119 40.5467 107.226 40.962 107.226 41.466C107.226 42.0073 107.081 42.4833 106.792 42.894C106.503 43.3047 106.069 43.622 105.49 43.846C104.911 44.07 104.193 44.182 103.334 44.182ZM108.102 44L111.294 34.76H113.884L117.076 44H115.144L112.694 36.174H112.498L110.02 44H108.102ZM109.796 42.096V40.85H115.62V42.096H109.796ZM118.456 44V34.76H120.22V44H118.456ZM118.862 44V42.488H124.266V44H118.862ZM129.267 44.182C128.595 44.182 127.998 44.0747 127.475 43.86C126.952 43.6453 126.504 43.3373 126.131 42.936C125.767 42.5253 125.487 42.026 125.291 41.438C125.095 40.85 124.997 40.178 124.997 39.422C124.997 38.33 125.184 37.4293 125.557 36.72C125.93 36.0013 126.444 35.4647 127.097 35.11C127.75 34.7553 128.492 34.578 129.323 34.578C129.967 34.578 130.55 34.6853 131.073 34.9C131.596 35.1053 132.039 35.4133 132.403 35.824C132.776 36.2253 133.066 36.7293 133.271 37.336C133.476 37.9333 133.579 38.6193 133.579 39.394C133.579 40.1687 133.476 40.8547 133.271 41.452C133.075 42.04 132.79 42.5393 132.417 42.95C132.044 43.3513 131.591 43.6593 131.059 43.874C130.536 44.0793 129.939 44.182 129.267 44.182ZM129.309 42.754C129.841 42.754 130.284 42.628 130.639 42.376C131.003 42.1147 131.278 41.7413 131.465 41.256C131.661 40.7707 131.759 40.178 131.759 39.478C131.759 38.7593 131.661 38.1433 131.465 37.63C131.269 37.1167 130.984 36.7293 130.611 36.468C130.247 36.1973 129.799 36.062 129.267 36.062C128.763 36.062 128.324 36.1927 127.951 36.454C127.587 36.706 127.307 37.084 127.111 37.588C126.915 38.0827 126.817 38.6893 126.817 39.408C126.817 39.9493 126.873 40.43 126.985 40.85C127.097 41.2607 127.256 41.606 127.461 41.886C127.676 42.166 127.937 42.3807 128.245 42.53C128.562 42.6793 128.917 42.754 129.309 42.754ZM135.409 44V34.76H137.719L142.143 41.634H142.269L142.157 34.76H143.879V44H141.779L137.159 36.86H137.019L137.131 44H135.409Z" fill="#214442"/>
</svg>
