<svg width="133" height="32" viewBox="0 0 133 32" fill="none" xmlns="http://www.w3.org/2000/svg">
<path d="M14.88 31.2672C10.4267 31.2672 7.04 30.1472 4.72 27.9072C2.4 25.6405 1.24 22.4539 1.24 18.3472C1.24 14.0539 2.42667 10.7072 4.8 8.30719C7.17333 5.90719 10.6667 4.70719 15.28 4.70719C16.8533 4.70719 18.2667 4.80052 19.52 4.98719C20.8 5.17385 22.0133 5.45385 23.16 5.82719V11.3472C22.0133 10.9205 20.8133 10.6272 19.56 10.4672C18.3333 10.3072 17.0667 10.2272 15.76 10.2272C12.9867 10.2272 10.96 10.8939 9.68 12.2272C8.42667 13.5339 7.8 15.5739 7.8 18.3472C7.8 20.8805 8.4 22.7605 9.6 23.9872C10.8 25.1872 12.5733 25.7872 14.92 25.7872C16.4667 25.7872 17.9067 25.5739 19.24 25.1472V20.2672H13.68V16.2272H24.64V28.9872C23.7333 29.5739 22.4667 30.1072 20.84 30.5872C19.24 31.0405 17.2533 31.2672 14.88 31.2672ZM27.9384 30.8672V5.10719H46.9384V10.0672H34.3784V15.4672H45.4584V20.5072H34.3784V25.9072H46.9384V30.8672H27.9384ZM50.0088 30.8672V5.10719H55.5288L66.4888 20.5072V5.10719H72.9688V30.8672H67.4088L56.4488 15.5072V30.8672H50.0088ZM104.215 30.8672L114.055 5.10719H121.015L130.855 30.8672H124.135L121.815 25.0272H113.215L110.935 30.8672H104.215ZM114.095 20.2672H120.935L117.495 11.3072L114.095 20.2672Z" fill="white"/>
<path d="M78 13.4072L103.76 13.4072V18.5672C103.76 21.1806 103.32 23.3806 102.44 25.1672C101.587 26.9539 100.2 28.3139 98.28 29.2472C96.3867 30.1806 93.8667 30.6472 90.72 30.6472C86.2933 30.6472 83.0667 29.6206 81.04 27.5672C79.0133 25.5406 78 22.5406 78 18.5672L78 13.4072ZM82.96 16.8472L82.96 17.6872C82.96 19.0739 83.16 20.2339 83.56 21.1672C83.9867 22.1272 84.76 22.8472 85.88 23.3272C87 23.8339 88.6133 24.0872 90.72 24.0872C92.8533 24.0872 94.4933 23.8606 95.64 23.4072C96.8133 22.9806 97.6267 22.2872 98.08 21.3272C98.56 20.3939 98.8 19.1806 98.8 17.6872V16.8472L82.96 16.8472Z" fill="white"/>
<path d="M90.9935 9.75608C98.614 9.73643 103.918 7.90928 104 6.12457C103.966 4.37147 98.6317 2.50294 90.9936 2.49299H90.716C91.9509 3.58839 93.894 4.54349 96.8963 4.58126C97.0444 4.58511 97.1849 4.64401 97.2879 4.74536C97.391 4.84671 97.4482 4.98246 97.4475 5.12353C97.4467 5.2646 97.388 5.39978 97.284 5.50014C97.1799 5.60049 97.0387 5.65805 96.8906 5.66047C90.4489 5.58402 88.2926 1.56502 87.7079 0C84.1155 1.38456 83.121 4.17362 84.2015 6.49146C84.2676 6.62027 84.2773 6.76882 84.2284 6.90443C84.1795 7.04004 84.0761 7.1516 83.9409 7.21457C83.8056 7.27754 83.6497 7.28676 83.5073 7.2402C83.365 7.19365 83.2479 7.09513 83.1817 6.96632C82.6562 5.83355 82.5271 4.56978 82.8135 3.36175C72.2488 6.08214 80.9391 9.76525 90.9935 9.75608Z" fill="white"/>
<path d="M90.993 16.5851C98.2921 16.5851 103.432 14.979 103.8 13.4752C103.805 13.4422 103.779 13.4106 103.8 13.3827C103.794 13.367 103.798 13.3504 103.8 13.334C103.795 13.3266 103.799 13.3181 103.8 13.3097V9.76073C99.0503 13.077 82.7482 13.0767 78.0029 9.75586C77.9939 9.98066 78.0094 13.098 78.0029 13.3146C78.0029 14.8622 83.3428 16.5851 90.993 16.5851Z" fill="white"/>
</svg>
