<svg width="75" height="75" viewBox="0 0 75 75" fill="none" xmlns="http://www.w3.org/2000/svg">
<path fill-rule="evenodd" clip-rule="evenodd" d="M41.2582 2.11559C53.3358 5.16818 61.0005 16.549 59.7396 29.5225C59.441 32.6083 58.5783 35.9595 58.1138 35.9595C57.9479 35.9595 57.3175 35.7273 56.6871 35.495L55.5257 34.9972L56.1561 32.5751C56.6538 30.6838 56.7534 29.423 56.6538 26.8349C56.322 20.6302 54.1653 15.454 50.1505 11.4061C46.4675 7.6899 42.5854 5.83179 37.3429 5.26772C34.0912 4.90273 31.9345 6.19677 35.0867 6.59494C45.4389 7.92217 51.909 13.3637 54.2317 22.7206C55.0944 26.2708 54.7958 34.3005 53.7672 34.3005C53.3358 34.3005 44.1449 31.7456 42.5854 31.1815C37.9733 29.5557 33.4608 26.5695 29.8442 22.7869C25.6634 18.4071 24.0044 14.0605 24.3363 8.3535C24.5685 4.04005 24.8671 3.47599 27.5547 2.48057C30.6404 1.35244 37.5088 1.15336 41.2582 2.11559ZM32.7972 11.1738C32.3327 11.9038 32.4986 12.0365 34.0912 12.2024C39.5328 12.866 41.789 13.795 44.8748 16.6486C47.9606 19.5684 49.321 22.3224 50.1174 27.2995C50.6151 30.3188 51.1791 29.8211 51.1791 26.4036C51.1791 22.2892 49.321 18.2744 46.0361 15.1555C43.2158 12.501 40.6277 11.2402 36.8452 10.7093C34.6885 10.4438 33.1622 10.6097 32.7972 11.1738ZM20.2217 6.6613C20.1554 6.79402 19.6245 7.82265 19.0273 8.91757C17.2024 12.4347 16.4724 15.4209 16.4724 19.5352C16.4392 25.01 17.6669 28.9253 21.1176 34.2341C24.668 39.742 30.0431 44.3209 39.6323 50.0943C43.9789 52.6824 46.7992 55.4363 48.1928 58.3894C50.2832 62.9019 49.3541 68.0117 45.8702 70.6329C43.7135 72.292 41.3908 72.8892 37.7078 72.7233C35.3188 72.6238 34.2902 72.3915 32.7639 71.6947C31.7021 71.197 30.8726 70.6329 30.939 70.4338C31.0054 70.2016 31.7354 69.8366 32.5649 69.6043C34.3566 69.0735 36.5465 67.2485 37.3097 65.689C37.9733 64.3287 38.0064 62.2051 37.4092 60.7452C36.646 58.9534 34.5225 57.4272 29.0809 54.7064L23.8716 52.1183L20.7858 52.5165C15.7756 53.2132 14.5148 52.5496 14.0171 48.9662C13.8179 47.5394 13.4861 46.6435 12.9553 46.0795C12.4576 45.5486 12.2585 45.0509 12.3912 44.5201C12.524 44.0887 12.3912 43.5578 12.0594 43.1928C11.6281 42.7283 11.6281 42.4297 11.9267 41.5338C12.2917 40.472 12.2917 40.4056 10.6326 39.0121C9.73682 38.2158 8.97362 37.4526 8.97362 37.3199C8.97362 37.1872 9.73682 36.1918 10.6658 35.13C10.7917 34.9853 10.9119 34.8476 11.0266 34.7161C12.267 33.2947 12.8671 32.607 13.0806 31.8151C13.2808 31.073 13.1416 30.2393 12.8718 28.6245C12.8455 28.4669 12.818 28.302 12.7894 28.129C12.0263 23.716 12.3912 19.6016 13.9838 15.2218C15.0788 12.2356 18.1978 7.49081 19.6245 6.76084C20.0227 6.52858 20.2881 6.4954 20.2217 6.6613ZM28.8818 25.0432C24.4689 20.5306 22.3454 16.2836 22.0136 11.3065C21.914 9.91297 21.7813 8.75167 21.7149 8.75167C21.3831 8.75167 19.525 12.9655 19.0937 14.6245C18.0651 18.5067 18.6623 24.081 20.5868 28.4939C21.6154 30.9161 24.7012 35.3954 27.0238 37.8508C29.7114 40.7707 33.5603 43.6905 38.1724 46.4113C40.2627 47.6722 42.9171 49.3312 44.0453 50.1275C50.7145 54.8391 53.2695 62.0061 50.5818 68.4099C50.3164 69.0403 50.1173 69.6707 50.1173 69.8366C50.1173 70.4338 51.3449 70.102 52.8049 69.173C54.9285 67.8126 56.5211 66.0872 57.6161 63.8974C58.4787 62.172 58.5783 61.7074 58.5783 58.5221C58.5783 55.3368 58.4787 54.8723 57.5829 53.0473C57.052 51.9524 55.7911 50.2603 54.8289 49.298C52.838 47.3404 50.7809 46.2122 45.3725 44.1219C39.0019 41.6665 35.6175 39.6757 32.1004 36.3577C30.3418 34.6655 29.8109 33.6037 30.5077 33.1723C30.6404 33.0728 32.1668 34.0351 33.8921 35.3291C38.0065 38.4148 40.1963 39.6094 45.8039 41.7661C48.3919 42.7947 51.3449 44.0555 52.3736 44.5532C56.1561 46.4776 59.0428 49.7957 60.4032 53.9101C61.0336 55.735 61.1331 56.4982 60.9672 59.3185L60.8013 62.5701L62.0954 61.3093C62.8254 60.5793 63.9867 58.9203 64.6503 57.5931C65.6789 55.4695 65.8448 54.7396 65.9775 52.2842C66.2097 47.639 64.6503 44.0224 61.1664 40.9366C58.5783 38.6803 54.298 36.8554 47.4629 35.13C39.3668 33.0728 33.7594 30.0202 28.8818 25.0432Z" fill="#407D7A"/>
</svg>
