<svg width="140" height="46" viewBox="0 0 140 46" fill="none" xmlns="http://www.w3.org/2000/svg">
<path fill-rule="evenodd" clip-rule="evenodd" d="M38.3267 24.6427C31.5811 30.1085 23.723 29.733 26.2335 45.9122C28.056 42.8521 31.4159 40.1859 36.3131 37.9125C43.0135 34.3625 45.8471 28.2277 44.8213 19.5068C43.4904 24.5039 38.7937 30.0365 34.5712 32.9888C33.4768 33.8211 32.8287 33.1812 33.628 32.1889C35.3959 29.9974 39.4451 27.5905 38.3274 24.6421" fill="#030303"/>
<path fill-rule="evenodd" clip-rule="evenodd" d="M6.6981 24.6427C13.4458 30.1085 21.3012 29.733 18.7913 45.9122C16.9688 42.8521 13.609 40.1859 8.71041 37.9125C2.01337 34.3632 -0.820925 28.2277 0.204215 19.5068C1.5351 24.5039 6.23249 30.0365 10.4536 32.9888C11.5494 33.8211 12.1975 33.1812 11.3975 32.1889C9.63097 29.9974 5.58104 27.5905 6.6981 24.6421" fill="#030303"/>
<path fill-rule="evenodd" clip-rule="evenodd" d="M24.8708 11.0353C26.6886 8.83724 25.7974 2.66279 23.9829 0.713276C23.2035 -0.124968 21.816 -0.117696 21.0367 0.717904C19.2142 2.67601 18.3403 8.83856 20.1634 11.0353C21.2525 12.3515 23.7811 12.3515 24.8708 11.0353Z" fill="#FF4C2F"/>
<path opacity="0.75" fill-rule="evenodd" clip-rule="evenodd" d="M32.198 15.6812C34.5267 14.0252 35.2767 7.83227 34.0331 5.48149C33.4982 4.47202 32.1547 4.12298 31.1855 4.72984C28.9147 6.15314 26.4628 11.8827 27.6491 14.4708C28.3592 16.023 30.8018 16.6735 32.198 15.6806" fill="#FF4C2F"/>
<path opacity="0.75" fill-rule="evenodd" clip-rule="evenodd" d="M12.8263 15.6812C10.4962 14.0252 9.74686 7.83227 10.9912 5.48149C11.5254 4.47202 12.8696 4.12298 13.8394 4.72984C16.1095 6.15314 18.5608 11.8827 17.3738 14.4708C16.6651 16.023 14.2211 16.6735 12.8263 15.6806" fill="#FF4C2F"/>
<path opacity="0.4" fill-rule="evenodd" clip-rule="evenodd" d="M37.1653 24.1109C39.8457 23.11 42.1851 17.3216 41.5963 14.7315C41.3438 13.619 40.1368 12.9361 39.0411 13.2745C36.4786 14.0658 32.6151 18.9704 33.0874 21.7753C33.3672 23.4564 35.558 24.7125 37.1653 24.1115" fill="#FF4C2F"/>
<path opacity="0.4" fill-rule="evenodd" clip-rule="evenodd" d="M7.85784 24.1109C5.17808 23.11 2.83671 17.3216 3.42555 14.7315C3.67867 13.619 4.88633 12.9361 5.98074 13.2745C8.54459 14.0658 12.4067 18.9704 11.9357 21.7753C11.656 23.4564 9.46515 24.7125 7.85784 24.1115" fill="#FF4C2F"/>
<path fill-rule="evenodd" clip-rule="evenodd" d="M25.7631 30.3877C28.2697 27.358 27.0421 18.844 24.5402 16.1554C23.4651 14.9992 21.5507 15.0118 20.4762 16.1634C17.965 18.8619 16.76 27.36 19.2712 30.3871C20.7733 32.203 24.2611 32.203 25.7625 30.3871" fill="#FF4C2F"/>
<path d="M75.2106 20.7401C75.1341 20.8293 74.9621 21.1607 74.6944 21.7342C74.4268 22.3077 74.1018 23.0469 73.7194 23.9518C73.3498 24.8567 72.9484 25.9018 72.5151 27.087C72.0817 28.2723 71.6548 29.5277 71.2342 30.8531C70.8136 32.1658 70.4249 33.5168 70.068 34.906C69.7112 36.2952 69.4244 37.6461 69.2078 38.9588C68.8637 39.0608 68.4686 39.1627 68.0225 39.2647C67.5892 39.3667 67.1559 39.4622 66.7225 39.5515C66.2892 39.6407 65.8941 39.7108 65.5373 39.7617C65.1804 39.8255 64.9191 39.8573 64.7535 39.8573C64.9829 38.876 65.2059 37.9392 65.4226 37.0471C65.652 36.155 65.9005 35.2819 66.1681 34.428C66.4358 33.5869 66.7289 32.7521 67.0475 31.9237C67.3789 31.0953 67.7612 30.2414 68.1946 29.362C67.7103 29.9865 67.1941 30.5919 66.6461 31.1781C66.1108 31.7644 65.5564 32.2869 64.9829 32.7457C64.4221 33.2045 63.8486 33.5678 63.2623 33.8354C62.6888 34.1158 62.1153 34.256 61.5418 34.256C61.1467 34.256 60.7006 34.1477 60.2036 33.931C59.7193 33.7143 59.2286 33.4148 58.7315 33.0325C58.2345 32.6629 57.7502 32.2168 57.2786 31.6943C56.8071 31.1845 56.3865 30.6301 56.0169 30.0311C55.66 29.4321 55.3733 28.8012 55.1566 28.1385C54.9272 27.4757 54.8125 26.813 54.8125 26.1503C54.8125 25.0542 54.9654 23.8562 55.2713 22.5562C55.5772 21.2563 56.0041 19.9181 56.5522 18.5416C57.1002 17.1652 57.7629 15.7824 58.5404 14.3932C59.3178 12.9913 60.1717 11.6467 61.1021 10.3594C62.0324 9.07222 63.0265 7.87421 64.0844 6.76541C65.1549 5.64387 66.2637 4.66889 67.4108 3.84047C68.5578 3.01206 69.7239 2.36208 70.9092 1.89052C72.0945 1.40621 73.2797 1.16406 74.465 1.16406C74.9111 1.16406 75.3444 1.26602 75.765 1.46994C76.1983 1.66111 76.5998 1.90963 76.9694 2.21551C77.3517 2.50864 77.6958 2.83363 78.0017 3.19049C78.3203 3.54734 78.588 3.87871 78.8046 4.18458C79.0595 4.55418 79.2889 4.98114 79.4928 5.46544C79.7095 5.94974 79.8178 6.43405 79.8178 6.91835C79.8178 7.73402 79.6904 8.59429 79.4355 9.49917C79.1933 10.4041 78.8556 11.3026 78.4223 12.1947C77.989 13.0868 77.4792 13.9535 76.8929 14.7946C76.3066 15.6231 75.6758 16.3686 75.0003 17.0314L71.6357 13.8961C72.018 13.501 72.4768 12.9913 73.0121 12.3668C73.5474 11.7423 74.0572 11.0413 74.5415 10.2639C75.0258 9.47368 75.44 8.6389 75.7841 7.75951C76.1282 6.86737 76.3003 5.96249 76.3003 5.04486C76.3003 4.89192 76.2939 4.71987 76.2811 4.52869C76.2684 4.33752 76.2238 4.1591 76.1473 3.99341C76.0836 3.82773 75.9753 3.68754 75.8223 3.57283C75.6821 3.45813 75.4782 3.40078 75.2106 3.40078C74.4969 3.40078 73.7131 3.66842 72.8592 4.2037C72.018 4.73898 71.145 5.46544 70.2401 6.38307C69.348 7.28795 68.4431 8.35214 67.5255 9.57564C66.6206 10.7864 65.7476 12.0736 64.9064 13.4373C64.0652 14.801 63.2751 16.2029 62.5359 17.6431C61.8094 19.0705 61.1722 20.4597 60.6241 21.8107C60.0889 23.1616 59.6619 24.4297 59.3433 25.615C59.0374 26.8003 58.8845 27.8262 58.8845 28.6929C58.8845 29.4958 58.9801 30.0693 59.1712 30.4134C59.3751 30.7575 59.6555 30.9296 60.0124 30.9296C60.4457 30.9296 60.9364 30.7894 61.4844 30.509C62.0324 30.2159 62.5996 29.8399 63.1858 29.3811C63.7849 28.9095 64.3775 28.387 64.9637 27.8135C65.5628 27.2272 66.1172 26.641 66.6269 26.0547C67.1495 25.4557 67.6147 24.8822 68.0225 24.3341C68.4431 23.7861 68.7745 23.3209 69.0166 22.9386C69.246 22.569 69.4436 22.1866 69.6092 21.7916C69.7749 21.3965 69.9661 20.995 70.1828 20.5872C70.6671 20.5872 71.1131 20.5935 71.521 20.6063C71.9415 20.619 72.3494 20.6381 72.7445 20.6636C73.1523 20.6764 73.5538 20.6891 73.9488 20.7019C74.3439 20.7146 74.7645 20.7274 75.2106 20.7401Z" fill="#030303"/>
<path d="M90.6191 26.3032C89.4465 27.4503 88.3377 28.4125 87.2927 29.1899C86.2603 29.9674 85.2726 30.5919 84.3295 31.0634C83.3864 31.535 82.4815 31.8727 81.6149 32.0766C80.761 32.2805 79.9262 32.3825 79.1105 32.3825C78.7664 32.3825 78.384 32.255 77.9635 32.0002C77.5429 31.7453 77.1542 31.433 76.7973 31.0634C76.4277 30.7066 76.1218 30.3306 75.8797 29.9355C75.6375 29.5404 75.5165 29.2027 75.5165 28.9223C75.5165 27.8772 75.663 26.9213 75.9562 26.0547C76.2365 25.1753 76.6125 24.3851 77.0841 23.6842C77.5556 22.9832 78.0909 22.3651 78.6899 21.8298C79.3017 21.2945 79.9325 20.8484 80.5825 20.4916C81.2453 20.1347 81.9016 19.8671 82.5516 19.6887C83.2016 19.5102 83.8006 19.421 84.3486 19.421C84.7437 19.421 85.1324 19.5357 85.5148 19.7651C85.9099 19.9945 86.2667 20.2749 86.5853 20.6063C86.904 20.9376 87.1589 21.2881 87.35 21.6577C87.5539 22.0146 87.6559 22.3268 87.6559 22.5945C87.6559 23.0278 87.4711 23.4739 87.1015 23.9327C86.7446 24.3787 86.2349 24.8376 85.5721 25.3091C84.9094 25.7807 84.1128 26.265 83.1825 26.762C82.2521 27.2463 81.2261 27.737 80.1046 28.2341C80.0664 28.5399 80.0472 28.8394 80.0472 29.1326C80.0472 29.5277 80.1301 29.7953 80.2958 29.9355C80.4742 30.0757 80.7992 30.1458 81.2707 30.1458C82.1119 30.1458 82.9021 30.0056 83.6413 29.7252C84.3932 29.4448 85.1133 29.0816 85.8015 28.6355C86.4897 28.1895 87.1525 27.6797 87.7897 27.1061C88.427 26.5326 89.0578 25.9527 89.6823 25.3665L90.6191 26.3032ZM83.8898 21.5239C83.6349 21.5239 83.3545 21.6641 83.0486 21.9445C82.7428 22.2121 82.4369 22.569 82.131 23.0151C81.8251 23.4611 81.532 23.9773 81.2516 24.5635C80.9712 25.1371 80.7291 25.7361 80.5252 26.3606C80.9967 26.0547 81.4555 25.7297 81.9016 25.3856C82.3604 25.0415 82.7683 24.6846 83.1251 24.315C83.482 23.9327 83.7687 23.544 83.9854 23.1489C84.2021 22.7538 84.3104 22.3587 84.3104 21.9636C84.3104 21.8489 84.2722 21.7469 84.1957 21.6577C84.132 21.5685 84.03 21.5239 83.8898 21.5239Z" fill="#030303"/>
<path d="M95.1116 21.7724C94.9587 22.1803 94.8057 22.5945 94.6528 23.0151C94.4999 23.4356 94.3469 23.869 94.194 24.315C94.9969 23.3974 95.6851 22.6518 96.2587 22.0783C96.8449 21.492 97.3356 21.0332 97.7307 20.7019C98.1385 20.3705 98.4635 20.1475 98.7057 20.0328C98.9606 19.9053 99.1581 19.8416 99.2983 19.8416C99.464 19.8416 99.7125 19.9244 100.044 20.0901C100.375 20.2558 100.707 20.4597 101.038 20.7019C101.382 20.944 101.675 21.1925 101.917 21.4474C102.172 21.7023 102.3 21.9254 102.3 22.1165C102.3 22.1548 102.293 22.2058 102.281 22.2695C102.268 22.3205 102.249 22.3906 102.223 22.4798C102.121 22.7984 101.987 23.1744 101.822 23.6077C101.669 24.041 101.503 24.4935 101.325 24.965C101.146 25.4238 100.968 25.889 100.789 26.3606C100.611 26.8194 100.452 27.2527 100.312 27.6605C100.171 28.0684 100.057 28.4252 99.9674 28.7311C99.8782 29.037 99.8336 29.26 99.8336 29.4002C99.8336 29.4767 99.8718 29.5149 99.9483 29.5149C100.088 29.5149 100.299 29.4321 100.579 29.2664C100.86 29.1007 101.178 28.884 101.535 28.6164C101.905 28.3488 102.287 28.0556 102.682 27.737C103.077 27.4184 103.453 27.1061 103.81 26.8003C104.18 26.4816 104.511 26.1949 104.804 25.94C105.097 25.6851 105.32 25.4939 105.473 25.3665C105.601 25.4812 105.741 25.6277 105.894 25.8062C106.047 25.9846 106.193 26.1503 106.333 26.3032C106.053 26.5836 105.703 26.9277 105.282 27.3355C104.861 27.7306 104.403 28.1385 103.906 28.5591C103.421 28.9796 102.911 29.4002 102.376 29.8208C101.854 30.2414 101.344 30.6173 100.847 30.9487C100.35 31.2801 99.8846 31.5477 99.4512 31.7516C99.0179 31.9555 98.6547 32.0575 98.3615 32.0575C98.1704 32.0575 97.9282 31.9874 97.6351 31.8472C97.342 31.7198 97.0552 31.5541 96.7748 31.3502C96.5072 31.159 96.2778 30.9423 96.0866 30.7002C95.8954 30.458 95.7998 30.2222 95.7998 29.9928C95.9145 29.4703 96.0675 28.8777 96.2587 28.2149C96.4626 27.5522 96.6792 26.8767 96.9086 26.1885C97.138 25.4875 97.3738 24.7993 97.616 24.1239C97.8709 23.4356 98.113 22.8048 98.3424 22.2312L98.3042 22.2695C98.062 22.5626 97.7116 22.9513 97.2528 23.4356C96.8067 23.9072 96.2969 24.5189 95.7234 25.2709C95.1499 26.0101 94.5445 26.9086 93.9072 27.9664C93.27 29.0115 92.6455 30.2541 92.0337 31.6943C91.9573 31.8727 91.8872 32.0129 91.8235 32.1149C91.7597 32.2168 91.6387 32.2678 91.4602 32.2678C91.2436 32.2678 90.995 32.2041 90.7147 32.0766C90.447 31.9619 90.173 31.8026 89.8926 31.5987C89.5995 31.4075 89.3127 31.1909 89.0323 30.9487C88.7392 30.7066 88.4779 30.4644 88.2485 30.2222C88.2485 30.1458 88.2868 29.9291 88.3632 29.5723C88.427 29.2154 88.5225 28.7693 88.65 28.2341C88.7774 27.686 88.9368 27.0679 89.1279 26.3797C89.3191 25.6787 89.5358 24.9459 89.7779 24.1812C90.0201 23.4165 90.2877 22.6391 90.5808 21.8489C90.8612 21.046 91.1671 20.2749 91.4985 19.5357C92.0337 19.7906 92.6264 20.1029 93.2764 20.4725C93.9391 20.8421 94.5508 21.2754 95.1116 21.7724Z" fill="#030303"/>
<path d="M116.886 28.884C116.886 29.2027 116.988 29.362 117.192 29.362C117.434 29.362 117.721 29.2855 118.052 29.1326C118.396 28.9796 118.753 28.7821 119.123 28.5399C119.492 28.285 119.868 28.0047 120.251 27.6988C120.633 27.3929 120.99 27.0934 121.321 26.8003C121.665 26.5071 121.971 26.2331 122.239 25.9782C122.507 25.7233 122.717 25.5194 122.87 25.3665C122.997 25.4812 123.15 25.6277 123.329 25.8062C123.507 25.9846 123.666 26.1503 123.807 26.3032C123.475 26.6346 123.099 27.0042 122.679 27.412C122.258 27.8199 121.806 28.2404 121.321 28.6738C120.85 29.0943 120.353 29.5085 119.83 29.9164C119.32 30.3115 118.811 30.6683 118.301 30.9869C117.791 31.2928 117.294 31.5413 116.81 31.7325C116.325 31.9237 115.867 32.0193 115.433 32.0193C115.204 32.0193 114.923 31.9109 114.592 31.6943C114.261 31.4904 113.942 31.2355 113.636 30.9296C113.33 30.6237 113.069 30.3051 112.852 29.9737C112.648 29.6296 112.547 29.3237 112.547 29.0561C112.547 28.4698 112.585 27.8581 112.661 27.2208C112.088 27.7306 111.533 28.2149 110.998 28.6738C110.463 29.1326 109.921 29.5659 109.373 29.9737C108.838 30.3688 108.283 30.732 107.71 31.0634C107.149 31.4075 106.55 31.7006 105.913 31.9428C105.722 32.0193 105.556 32.0575 105.416 32.0575C105.288 32.0575 105.123 31.9938 104.919 31.8663C104.715 31.7389 104.517 31.5732 104.326 31.3693C104.135 31.1781 103.969 30.9615 103.829 30.7193C103.689 30.4644 103.619 30.2222 103.619 29.9928C103.619 29.4703 103.721 28.8904 103.925 28.2532C104.116 27.6032 104.403 26.9405 104.785 26.265C105.155 25.5768 105.613 24.8949 106.161 24.2194C106.697 23.5312 107.308 22.8876 107.997 22.2886C108.685 21.6768 109.443 21.1288 110.272 20.6445C111.1 20.1475 111.986 19.7524 112.929 19.4592C113.107 19.4847 113.337 19.5676 113.617 19.7078C113.897 19.8352 114.159 19.969 114.401 20.1092C114.86 18.7965 115.382 17.4838 115.969 16.1711C116.568 14.8456 117.198 13.5775 117.861 12.3668C118.537 11.1433 119.238 10.0026 119.964 8.94477C120.69 7.87421 121.417 6.93109 122.143 6.11542C122.87 5.28701 123.584 4.61791 124.285 4.10812C124.998 3.59832 125.674 3.28607 126.311 3.17137C126.591 3.17137 126.884 3.26696 127.19 3.45813C127.509 3.63656 127.808 3.85959 128.089 4.12723C128.369 4.38213 128.605 4.64977 128.796 4.93016C129 5.21054 129.128 5.44632 129.179 5.63749C129.179 6.22376 129.032 6.9056 128.739 7.68304C128.446 8.46047 128.038 9.30163 127.515 10.2065C127.006 11.0986 126.394 12.0354 125.68 13.0167C124.979 13.9981 124.221 14.9986 123.405 16.0181C122.589 17.025 121.729 18.0318 120.824 19.0387C119.932 20.0455 119.034 21.0205 118.129 21.9636C117.746 23.2636 117.441 24.5062 117.211 25.6915C116.994 26.864 116.886 27.9282 116.886 28.884ZM126.483 5.48456C126.266 5.48456 125.999 5.64387 125.68 5.96249C125.374 6.28111 125.024 6.72718 124.629 7.30069C124.246 7.86146 123.838 8.53057 123.405 9.308C122.972 10.0854 122.532 10.933 122.086 11.8506C121.64 12.7682 121.194 13.7432 120.748 14.7755C120.302 15.8079 119.881 16.8529 119.486 17.9108C120.442 16.7382 121.347 15.5657 122.201 14.3932C123.067 13.2079 123.826 12.0864 124.476 11.0286C125.126 9.97073 125.642 9.00213 126.024 8.12273C126.407 7.24334 126.598 6.51689 126.598 5.94337C126.598 5.8669 126.591 5.77131 126.579 5.65661C126.579 5.54191 126.547 5.48456 126.483 5.48456ZM108.341 28.2341C108.761 28.2341 109.386 27.9409 110.214 27.3547C111.043 26.7557 111.979 25.9591 113.024 24.965C113.139 24.3787 113.279 23.7861 113.445 23.1871C113.611 22.5754 113.796 21.9572 113.999 21.3327C113.26 21.8298 112.534 22.3969 111.82 23.0342C111.119 23.6714 110.495 24.3023 109.947 24.9268C109.399 25.5513 108.952 26.1375 108.608 26.6856C108.277 27.2208 108.111 27.6287 108.111 27.9091C108.111 28.1257 108.188 28.2341 108.341 28.2341Z" fill="#030303"/>
<path d="M133.652 29.3237C133.652 29.4002 133.69 29.4384 133.767 29.4384C133.881 29.4384 134.073 29.3556 134.34 29.1899C134.608 29.0242 134.914 28.8139 135.258 28.5591C135.602 28.3042 135.965 28.0174 136.347 27.6988C136.743 27.3802 137.119 27.0679 137.475 26.762C137.832 26.4562 138.151 26.1758 138.431 25.9209C138.724 25.666 138.947 25.4684 139.1 25.3282C139.215 25.4429 139.355 25.5959 139.521 25.7871C139.699 25.9782 139.859 26.1503 139.999 26.3032C139.693 26.5836 139.323 26.9277 138.89 27.3355C138.469 27.7306 138.011 28.1448 137.514 28.5782C137.029 29.0115 136.526 29.4448 136.003 29.8781C135.481 30.2987 134.971 30.6747 134.474 31.0061C133.977 31.3374 133.505 31.6051 133.059 31.809C132.613 32.0256 132.225 32.134 131.893 32.134C131.664 32.134 131.409 32.0894 131.128 32.0002C130.861 31.9109 130.612 31.7835 130.383 31.6178C130.154 31.4649 129.962 31.2801 129.809 31.0634C129.656 30.8467 129.58 30.6046 129.58 30.337C129.58 30.235 129.574 30.1139 129.561 29.9737C129.561 29.8208 129.574 29.6296 129.599 29.4002C129.625 29.1581 129.676 28.8713 129.752 28.5399C129.829 28.1958 129.943 27.7752 130.096 27.2782C129.676 27.7243 129.179 28.1895 128.605 28.6738C128.044 29.1581 127.452 29.6169 126.827 30.0502C126.203 30.4835 125.572 30.8722 124.934 31.2163C124.31 31.5732 123.73 31.8408 123.195 32.0193C123.131 32.0448 123.08 32.0575 123.042 32.0575C123.004 32.0575 122.965 32.0575 122.927 32.0575C122.8 32.0575 122.634 31.9938 122.43 31.8663C122.213 31.7389 122.003 31.5668 121.799 31.3502C121.595 31.1462 121.423 30.9105 121.283 30.6428C121.13 30.3752 121.054 30.1075 121.054 29.8399C121.054 29.7634 121.092 29.5085 121.168 29.0752C121.245 28.6419 121.43 28.0939 121.723 27.4311C122.003 26.7557 122.424 26.0037 122.985 25.1753C123.545 24.3341 124.31 23.4739 125.279 22.5945C125.776 22.1484 126.311 21.7278 126.884 21.3327C127.369 21.0014 127.923 20.6636 128.548 20.3195C129.172 19.9754 129.829 19.7014 130.517 19.4975C130.542 19.4975 130.561 19.4911 130.574 19.4784C130.6 19.4656 130.631 19.472 130.67 19.4975C130.823 19.5485 131.001 19.6313 131.205 19.746C131.422 19.848 131.632 19.9627 131.836 20.0901C132.052 20.2048 132.237 20.3259 132.39 20.4533C132.556 20.568 132.664 20.6636 132.715 20.7401C132.728 20.7656 132.728 20.7847 132.715 20.7975L132.677 20.8357C132.103 21.1416 131.562 21.4857 131.052 21.868C130.542 22.2376 130.09 22.5881 129.695 22.9195C129.236 23.3146 128.809 23.7033 128.414 24.0856C127.483 25.0032 126.84 25.7998 126.483 26.4753C126.126 27.138 125.948 27.6159 125.948 27.9091C125.948 28.1257 126.037 28.2341 126.215 28.2341C126.394 28.2341 126.617 28.164 126.884 28.0238C127.165 27.8708 127.477 27.6733 127.821 27.4311C128.165 27.1762 128.541 26.8831 128.949 26.5517C129.37 26.2076 129.803 25.8508 130.249 25.4812C130.644 25.1626 131.027 24.8184 131.396 24.4488C131.715 24.143 132.046 23.7925 132.39 23.3974C132.734 23.0023 133.027 22.6008 133.27 22.193C133.27 22.1803 133.276 22.1675 133.289 22.1548C133.301 22.142 133.321 22.142 133.346 22.1548C133.486 22.2567 133.646 22.4288 133.824 22.6709C134.002 22.9004 134.168 23.1552 134.321 23.4356C134.474 23.716 134.601 23.99 134.703 24.2577C134.818 24.5126 134.875 24.7101 134.875 24.8503C134.582 25.4493 134.353 25.9973 134.187 26.4944C134.034 26.9787 133.913 27.4056 133.824 27.7752C133.748 28.1448 133.697 28.4635 133.671 28.7311C133.658 28.986 133.652 29.1835 133.652 29.3237Z" fill="#030303"/>
<path d="M76.3986 44.7093V36.5148H78.1546L81.6411 41.4137V36.5148H83.7025V44.7093H81.9338L78.4473 39.8231V44.7093H76.3986Z" fill="#FF4C2F"/>
<path d="M86.8808 44.8365C86.499 44.8365 86.1428 44.7687 85.8119 44.6329C85.4896 44.4972 85.2308 44.2894 85.0357 44.0094C84.8406 43.721 84.7431 43.3647 84.7431 42.9406C84.7431 42.3213 84.9509 41.8378 85.3666 41.49C85.7907 41.1337 86.4227 40.9556 87.2625 40.9556H88.9421V40.8156C88.9421 40.5102 88.8403 40.2939 88.6368 40.1667C88.4332 40.0309 88.0514 39.9631 87.4916 39.9631C86.8044 39.9631 86.13 40.0691 85.4684 40.2812V38.9578C85.7653 38.8391 86.1258 38.7415 86.5499 38.6652C86.9826 38.5888 87.4364 38.5507 87.9115 38.5507C88.8446 38.5507 89.5741 38.7415 90.1001 39.1233C90.6345 39.505 90.9017 40.1115 90.9017 40.9429V44.7093H89.1076L89.0058 44.2003C88.7852 44.4039 88.501 44.5608 88.1532 44.6711C87.8139 44.7814 87.3898 44.8365 86.8808 44.8365ZM87.5297 43.5768C87.8521 43.5768 88.132 43.5217 88.3695 43.4114C88.6071 43.3011 88.7979 43.1611 88.9421 42.9915V42.139H87.4916C86.8893 42.139 86.5881 42.3807 86.5881 42.8642C86.5881 43.0848 86.6645 43.2587 86.8172 43.3859C86.9699 43.5132 87.2074 43.5768 87.5297 43.5768Z" fill="#FF4C2F"/>
<path d="M92.5374 37.7236V36.1839H94.7642V37.7236H92.5374ZM92.7028 44.7093V40.1921H91.8121L91.9902 38.6779H94.7514V44.7093H92.7028Z" fill="#FF4C2F"/>
<path d="M97.9146 44.8365C97.253 44.8365 96.7779 44.6923 96.4895 44.4039C96.2011 44.1155 96.0569 43.6532 96.0569 43.0169V36.133H98.1055V42.8133C98.1055 43.0085 98.1437 43.1442 98.22 43.2205C98.3049 43.2884 98.4279 43.3223 98.589 43.3223C98.8181 43.3223 99.0217 43.2926 99.1998 43.2333V44.6202C99.0047 44.6966 98.8096 44.7517 98.6145 44.7856C98.4279 44.8196 98.1946 44.8365 97.9146 44.8365Z" fill="#FF4C2F"/>
<path d="M105.313 44.8365C104.77 44.8365 104.262 44.7941 103.786 44.7093C103.32 44.6329 102.917 44.5184 102.578 44.3657V42.6225C102.951 42.7837 103.362 42.9151 103.812 43.0169C104.27 43.1187 104.703 43.1696 105.11 43.1696C105.619 43.1696 105.996 43.123 106.242 43.0297C106.497 42.9364 106.624 42.7328 106.624 42.4189C106.624 42.2068 106.56 42.0372 106.433 41.9099C106.314 41.7827 106.115 41.6724 105.835 41.5791C105.564 41.4773 105.19 41.3585 104.715 41.2228C104.155 41.0531 103.71 40.8665 103.379 40.6629C103.048 40.4508 102.811 40.1964 102.667 39.8994C102.523 39.6025 102.45 39.2378 102.45 38.8051C102.45 38.0247 102.73 37.4267 103.29 37.011C103.85 36.5953 104.677 36.3875 105.771 36.3875C106.247 36.3875 106.709 36.4257 107.158 36.502C107.608 36.5699 107.973 36.6505 108.253 36.7438V38.4998C107.888 38.3556 107.519 38.2495 107.146 38.1817C106.781 38.1138 106.425 38.0799 106.077 38.0799C105.619 38.0799 105.246 38.1223 104.957 38.2071C104.677 38.2919 104.537 38.487 104.537 38.7924C104.537 38.9706 104.588 39.1148 104.69 39.2251C104.792 39.3269 104.966 39.4202 105.212 39.505C105.466 39.5898 105.81 39.6916 106.242 39.8104C106.912 39.9885 107.426 40.2048 107.782 40.4593C108.138 40.7053 108.384 40.9938 108.52 41.3246C108.656 41.6469 108.724 42.0117 108.724 42.4189C108.724 43.1399 108.444 43.7253 107.884 44.1749C107.324 44.616 106.467 44.8365 105.313 44.8365Z" fill="#FF4C2F"/>
<path d="M112.058 44.8365C111.311 44.8365 110.76 44.6457 110.404 44.2639C110.056 43.8822 109.882 43.3563 109.882 42.6861V40.2303H109.068V38.6779H109.882V37.4182L111.931 36.871V38.6779H113.394L113.305 40.2303H111.931V42.5461C111.931 42.8346 112.003 43.0381 112.147 43.1569C112.291 43.2672 112.507 43.3223 112.796 43.3223C113.042 43.3223 113.292 43.2799 113.547 43.1951V44.582C113.148 44.7517 112.652 44.8365 112.058 44.8365Z" fill="#FF4C2F"/>
<path d="M116.41 44.8365C115.697 44.8365 115.142 44.6372 114.743 44.2385C114.344 43.8313 114.145 43.2417 114.145 42.4698V38.6779H116.194V42.3553C116.194 42.6946 116.274 42.9448 116.435 43.106C116.605 43.2587 116.855 43.335 117.186 43.335C117.432 43.335 117.665 43.2841 117.886 43.1824C118.106 43.0806 118.289 42.9533 118.433 42.8006V38.6779H120.482V44.7093H118.573L118.509 44.2003C118.263 44.3869 117.967 44.5396 117.619 44.6584C117.271 44.7772 116.868 44.8365 116.41 44.8365Z" fill="#FF4C2F"/>
<path d="M124.311 44.8365C123.726 44.8365 123.225 44.7432 122.81 44.5566C122.394 44.37 122.076 44.0646 121.855 43.6404C121.635 43.2078 121.525 42.631 121.525 41.9099C121.525 41.1804 121.652 40.5696 121.906 40.0776C122.161 39.5771 122.509 39.1996 122.95 38.9451C123.399 38.6821 123.913 38.5507 124.489 38.5507C124.803 38.5507 125.083 38.5846 125.329 38.6525C125.584 38.7203 125.821 38.8221 126.042 38.9578V36.133H128.09V44.7093H126.322L126.207 44.2003C125.961 44.4124 125.686 44.5736 125.38 44.6838C125.075 44.7856 124.718 44.8365 124.311 44.8365ZM124.897 43.3478C125.346 43.3478 125.728 43.1951 126.042 42.8897V40.4466C125.753 40.1836 125.384 40.0521 124.935 40.0521C124.502 40.0521 124.171 40.2176 123.942 40.5484C123.722 40.8708 123.611 41.3288 123.611 41.9226C123.611 42.4995 123.717 42.8812 123.93 43.0678C124.15 43.2545 124.472 43.3478 124.897 43.3478Z" fill="#FF4C2F"/>
<path d="M129.791 37.7236V36.1839H132.018V37.7236H129.791ZM129.957 44.7093V40.1921H129.066L129.244 38.6779H132.005V44.7093H129.957Z" fill="#FF4C2F"/>
<path d="M136.454 44.8365C135.291 44.8365 134.435 44.5693 133.883 44.0349C133.332 43.492 133.056 42.7115 133.056 41.6936C133.056 40.6841 133.332 39.9079 133.883 39.365C134.443 38.8221 135.3 38.5507 136.454 38.5507C137.616 38.5507 138.473 38.8221 139.024 39.365C139.584 39.9079 139.864 40.6841 139.864 41.6936C139.864 42.7115 139.588 43.492 139.037 44.0349C138.485 44.5693 137.624 44.8365 136.454 44.8365ZM136.454 43.2333C136.929 43.2333 137.268 43.1145 137.472 42.877C137.675 42.6394 137.777 42.245 137.777 41.6936C137.777 41.1422 137.675 40.7477 137.472 40.5102C137.268 40.2727 136.929 40.1539 136.454 40.1539C135.987 40.1539 135.652 40.2727 135.448 40.5102C135.245 40.7477 135.143 41.1422 135.143 41.6936C135.143 42.245 135.245 42.6394 135.448 42.877C135.652 43.1145 135.987 43.2333 136.454 43.2333Z" fill="#FF4C2F"/>
</svg>
