<svg width="140" height="46" viewBox="0 0 140 46" fill="none" xmlns="http://www.w3.org/2000/svg">
<path fill-rule="evenodd" clip-rule="evenodd" d="M38.3267 24.6487C31.5811 30.1354 23.723 29.7585 26.2335 45.9996C28.056 42.9277 31.4159 40.2514 36.3131 37.9693C43.0135 34.4057 45.8471 28.2474 44.8213 19.4932C43.4904 24.5094 38.7937 30.0631 34.5712 33.0267C33.4768 33.8622 32.8287 33.2198 33.628 32.2238C35.3959 30.0239 39.4451 27.6077 38.3274 24.6481" fill="white"/>
<path fill-rule="evenodd" clip-rule="evenodd" d="M6.6981 24.6487C13.4458 30.1354 21.3012 29.7585 18.7913 45.9996C16.9688 42.9277 13.609 40.2514 8.71041 37.9693C2.01336 34.4064 -0.820925 28.2474 0.204215 19.4932C1.5351 24.5094 6.23249 30.0631 10.4536 33.0267C11.5494 33.8622 12.1975 33.2198 11.3975 32.2238C9.63097 30.0239 5.58104 27.6077 6.6981 24.6481" fill="white"/>
<path fill-rule="evenodd" clip-rule="evenodd" d="M24.8716 10.9893C26.6897 8.78283 25.7983 2.58475 23.9836 0.627779C23.2041 -0.213673 21.8164 -0.206373 21.037 0.632424C19.2142 2.59802 18.3402 8.78415 20.1636 10.9893C21.2528 12.3106 23.7817 12.3106 24.8716 10.9893Z" fill="white"/>
<path opacity="0.75" fill-rule="evenodd" clip-rule="evenodd" d="M32.1986 15.653C34.5277 13.9907 35.2778 7.774 34.034 5.41422C33.4991 4.40089 32.1553 4.05051 31.186 4.6597C28.9149 6.08844 26.4626 11.8399 27.6491 14.4379C28.3593 15.9961 30.8023 16.6491 32.1986 15.6523" fill="white"/>
<path opacity="0.75" fill-rule="evenodd" clip-rule="evenodd" d="M12.8266 15.653C10.4962 13.9907 9.74677 7.774 10.9912 5.41422C11.5255 4.40089 12.8699 4.05051 13.8399 4.6597C16.1103 6.08844 18.562 11.8399 17.3748 14.4379C16.6659 15.9961 14.2216 16.6491 12.8266 15.6523" fill="white"/>
<path opacity="0.4" fill-rule="evenodd" clip-rule="evenodd" d="M37.1659 24.1156C39.8467 23.1109 42.1864 17.3003 41.5975 14.7003C41.345 13.5835 40.1378 12.898 39.0419 13.2378C36.479 14.0321 32.6151 18.9554 33.0874 21.7711C33.3672 23.4586 35.5583 24.7195 37.1659 24.1162" fill="white"/>
<path opacity="0.4" fill-rule="evenodd" clip-rule="evenodd" d="M7.85847 24.1156C5.17834 23.1109 2.83664 17.3003 3.42557 14.7003C3.67872 13.5835 4.88655 12.898 5.98112 13.2378C8.54533 14.0321 12.408 18.9554 11.937 21.7711C11.6572 23.4586 9.46602 24.7195 7.85847 24.1162" fill="white"/>
<path fill-rule="evenodd" clip-rule="evenodd" d="M25.7631 30.4152C28.2697 27.3739 27.0421 18.8273 24.5402 16.1285C23.4651 14.9678 21.5507 14.9804 20.4762 16.1364C17.965 18.8453 16.76 27.3759 19.2712 30.4146C20.7733 32.2375 24.2611 32.2375 25.7625 30.4146" fill="white"/>
<path d="M75.2106 20.731C75.1341 20.8206 74.9621 21.1532 74.6944 21.7289C74.4268 22.3046 74.1018 23.0467 73.7194 23.955C73.3498 24.8634 72.9484 25.9124 72.5151 27.1022C72.0817 28.292 71.6548 29.5522 71.2342 30.8827C70.8136 32.2005 70.4249 33.5566 70.0681 34.9511C69.7112 36.3456 69.4244 37.7017 69.2078 39.0195C68.8637 39.1218 68.4686 39.2242 68.0225 39.3265C67.5892 39.4289 67.1559 39.5248 66.7225 39.6144C66.2892 39.7039 65.8941 39.7743 65.5373 39.8255C65.1804 39.8894 64.9191 39.9214 64.7535 39.9214C64.9829 38.9363 65.2059 37.996 65.4226 37.1004C65.652 36.2049 65.9005 35.3285 66.1681 34.4714C66.4358 33.627 66.7289 32.789 67.0475 31.9574C67.3789 31.1258 67.7612 30.2687 68.1946 29.3859C67.7103 30.0128 67.1941 30.6205 66.6461 31.209C66.1108 31.7975 65.5564 32.322 64.9829 32.7826C64.4221 33.2432 63.8486 33.6078 63.2623 33.8764C62.6888 34.1579 62.1153 34.2986 61.5418 34.2986C61.1467 34.2986 60.7006 34.1899 60.2036 33.9724C59.7193 33.7549 59.2286 33.4543 58.7315 33.0705C58.2345 32.6994 57.7502 32.2517 57.2786 31.7271C56.8071 31.2154 56.3865 30.6589 56.0169 30.0576C55.66 29.4563 55.3733 28.823 55.1566 28.1577C54.9272 27.4924 54.8125 26.8272 54.8125 26.1619C54.8125 25.0617 54.9654 23.8591 55.2713 22.5541C55.5772 21.2492 56.0041 19.9058 56.5522 18.5241C57.1002 17.1424 57.7629 15.7543 58.5404 14.3598C59.3178 12.9525 60.1717 11.6028 61.1021 10.3107C62.0324 9.0185 63.0265 7.8159 64.0844 6.70286C65.1549 5.57703 66.2637 4.59832 67.4108 3.76673C68.5578 2.93515 69.7239 2.28268 70.9092 1.80931C72.0945 1.32316 73.2797 1.08008 74.465 1.08008C74.9111 1.08008 75.3444 1.18243 75.765 1.38712C76.1983 1.57903 76.5998 1.8285 76.9694 2.13555C77.3517 2.4298 77.6958 2.75604 78.0017 3.11426C78.3203 3.47248 78.588 3.80511 78.8046 4.11216C79.0595 4.48317 79.2889 4.91176 79.4928 5.39792C79.7095 5.88407 79.8178 6.37023 79.8178 6.85638C79.8178 7.67517 79.6904 8.53874 79.4355 9.44709C79.1933 10.3554 78.8556 11.2574 78.4223 12.1529C77.989 13.0485 77.4792 13.9184 76.8929 14.7628C76.3066 15.5944 75.6758 16.3428 75.0003 17.0081L71.6357 13.8609C72.018 13.4643 72.4768 12.9525 73.0121 12.3256C73.5474 11.6988 74.0572 10.9951 74.5415 10.2147C75.0258 9.4215 75.44 8.58352 75.7841 7.70076C76.1282 6.80521 76.3003 5.89687 76.3003 4.97573C76.3003 4.8222 76.2939 4.64949 76.2812 4.45759C76.2684 4.26568 76.2238 4.08657 76.1473 3.92026C76.0836 3.75394 75.9753 3.61321 75.8223 3.49807C75.6821 3.38292 75.4782 3.32535 75.2106 3.32535C74.4969 3.32535 73.7131 3.59402 72.8592 4.13135C72.018 4.66868 71.145 5.39792 70.2401 6.31905C69.348 7.2274 68.4431 8.29566 67.5255 9.52385C66.6206 10.7392 65.7476 12.0314 64.9064 13.4003C64.0652 14.7692 63.2751 16.1765 62.5359 17.6222C61.8094 19.0551 61.1722 20.4496 60.6241 21.8057C60.0889 23.1618 59.6619 24.4348 59.3433 25.6246C59.0374 26.8144 58.8845 27.8443 58.8845 28.7142C58.8845 29.5202 58.9801 30.0959 59.1712 30.4414C59.3751 30.7868 59.6555 30.9595 60.0124 30.9595C60.4457 30.9595 60.9364 30.8188 61.4844 30.5373C62.0324 30.2431 62.5996 29.8657 63.1858 29.4051C63.7849 28.9317 64.3775 28.4072 64.9638 27.8315C65.5628 27.243 66.1172 26.6545 66.6269 26.066C67.1495 25.4647 67.6147 24.889 68.0225 24.3388C68.4431 23.7887 68.7745 23.3217 69.0166 22.9379C69.246 22.5669 69.4436 22.1831 69.6092 21.7865C69.7749 21.3899 69.9661 20.9869 70.1828 20.5775C70.6671 20.5775 71.1131 20.5839 71.521 20.5967C71.9415 20.6095 72.3494 20.6287 72.7445 20.6543C73.1523 20.6671 73.5538 20.6799 73.9489 20.6927C74.3439 20.7054 74.7645 20.7182 75.2106 20.731Z" fill="white"/>
<path d="M90.6191 26.3154C89.4466 27.4669 88.3378 28.4328 87.2927 29.2132C86.2603 29.9936 85.2726 30.6205 84.3295 31.0938C83.3864 31.5672 82.4815 31.9062 81.6149 32.1109C80.761 32.3156 79.9262 32.418 79.1105 32.418C78.7664 32.418 78.384 32.29 77.9635 32.0342C77.5429 31.7783 77.1542 31.4649 76.7973 31.0938C76.4277 30.7356 76.1218 30.3582 75.8797 29.9616C75.6375 29.565 75.5165 29.226 75.5165 28.9445C75.5165 27.8954 75.663 26.9359 75.9562 26.066C76.2365 25.1832 76.6125 24.39 77.0841 23.6864C77.5556 22.9827 78.0909 22.3622 78.6899 21.8249C79.3017 21.2876 79.9325 20.8398 80.5825 20.4816C81.2453 20.1233 81.9016 19.8547 82.5516 19.6756C83.2016 19.4965 83.8006 19.4069 84.3486 19.4069C84.7437 19.4069 85.1324 19.522 85.5148 19.7523C85.9099 19.9826 86.2667 20.2641 86.5853 20.5967C86.904 20.9293 87.1589 21.2812 87.35 21.6522C87.5539 22.0104 87.6559 22.3238 87.6559 22.5925C87.6559 23.0275 87.4711 23.4753 87.1015 23.9358C86.7447 24.3836 86.2349 24.8442 85.5721 25.3175C84.9094 25.7909 84.1128 26.2771 83.1825 26.776C82.2521 27.2622 81.2261 27.7547 80.1046 28.2537C80.0664 28.5607 80.0472 28.8614 80.0472 29.1556C80.0472 29.5522 80.1301 29.8209 80.2958 29.9616C80.4742 30.1023 80.7992 30.1727 81.2707 30.1727C82.1119 30.1727 82.9021 30.032 83.6413 29.7505C84.3932 29.4691 85.1133 29.1044 85.8015 28.6567C86.4898 28.2089 87.1525 27.6971 87.7897 27.1214C88.427 26.5457 89.0578 25.9636 89.6823 25.3751L90.6191 26.3154ZM83.8898 21.5178C83.6349 21.5178 83.3545 21.6586 83.0487 21.94C82.7428 22.2087 82.4369 22.5669 82.131 23.0147C81.8251 23.4625 81.532 23.9806 81.2516 24.5691C80.9712 25.1448 80.7291 25.7461 80.5252 26.373C80.9967 26.066 81.4556 25.7397 81.9016 25.3943C82.3604 25.0489 82.7683 24.6907 83.1251 24.3196C83.482 23.9358 83.7687 23.5456 83.9854 23.149C84.2021 22.7524 84.3104 22.3558 84.3104 21.9592C84.3104 21.8441 84.2722 21.7417 84.1957 21.6522C84.132 21.5626 84.03 21.5178 83.8898 21.5178Z" fill="white"/>
<path d="M95.1116 21.7673C94.9587 22.1767 94.8058 22.5925 94.6528 23.0147C94.4999 23.4369 94.3469 23.8719 94.194 24.3196C94.9969 23.3985 95.6851 22.6501 96.2587 22.0744C96.8449 21.4859 97.3356 21.0253 97.7307 20.6927C98.1385 20.36 98.4635 20.1361 98.7057 20.021C98.9606 19.8931 99.1581 19.8291 99.2983 19.8291C99.464 19.8291 99.7125 19.9122 100.044 20.0786C100.375 20.2449 100.707 20.4496 101.038 20.6927C101.382 20.9357 101.675 21.1852 101.917 21.4411C102.172 21.697 102.3 21.9208 102.3 22.1127C102.3 22.1511 102.293 22.2023 102.281 22.2663C102.268 22.3174 102.249 22.3878 102.223 22.4774C102.121 22.7972 101.987 23.1746 101.822 23.6096C101.669 24.0446 101.503 24.4987 101.325 24.9721C101.146 25.4327 100.968 25.8996 100.789 26.373C100.611 26.8336 100.452 27.2686 100.312 27.678C100.171 28.0874 100.057 28.4456 99.9674 28.7526C99.8782 29.0597 99.8336 29.2836 99.8336 29.4243C99.8336 29.501 99.8718 29.5394 99.9483 29.5394C100.088 29.5394 100.299 29.4563 100.579 29.2899C100.86 29.1236 101.178 28.9061 101.535 28.6375C101.905 28.3688 102.287 28.0746 102.682 27.7547C103.077 27.4349 103.453 27.1214 103.81 26.8144C104.18 26.4945 104.511 26.2067 104.804 25.9508C105.097 25.6949 105.32 25.503 105.473 25.3751C105.601 25.4903 105.741 25.6374 105.894 25.8165C106.047 25.9956 106.193 26.1619 106.333 26.3154C106.053 26.5969 105.703 26.9423 105.282 27.3517C104.861 27.7483 104.403 28.1577 103.906 28.5799C103.421 29.0021 102.911 29.4243 102.376 29.8465C101.854 30.2687 101.344 30.6461 100.847 30.9787C100.35 31.3113 99.8846 31.58 99.4512 31.7847C99.0179 31.9894 98.6547 32.0917 98.3616 32.0917C98.1704 32.0917 97.9282 32.0214 97.6351 31.8806C97.342 31.7527 97.0552 31.5864 96.7748 31.3817C96.5072 31.1898 96.2778 30.9723 96.0866 30.7292C95.8954 30.4861 95.7998 30.2495 95.7998 30.0192C95.9145 29.4946 96.0675 28.8997 96.2587 28.2345C96.4626 27.5692 96.6792 26.8911 96.9086 26.2003C97.1381 25.4966 97.3738 24.8058 97.616 24.1277C97.8709 23.4369 98.113 22.8036 98.3424 22.2279L98.3042 22.2663C98.0621 22.5605 97.7116 22.9507 97.2528 23.4369C96.8067 23.9102 96.2969 24.5243 95.7234 25.2792C95.1499 26.0212 94.5445 26.9231 93.9072 27.985C93.27 29.0341 92.6455 30.2815 92.0338 31.7271C91.9573 31.9062 91.8872 32.047 91.8235 32.1493C91.7597 32.2517 91.6387 32.3028 91.4602 32.3028C91.2436 32.3028 90.995 32.2389 90.7147 32.1109C90.447 31.9958 90.173 31.8359 89.8926 31.6312C89.5995 31.4393 89.3127 31.2218 89.0323 30.9787C88.7392 30.7356 88.4779 30.4925 88.2485 30.2495C88.2485 30.1727 88.2868 29.9552 88.3632 29.597C88.427 29.2388 88.5226 28.791 88.65 28.2537C88.7775 27.7035 88.9368 27.0831 89.1279 26.3922C89.3191 25.6886 89.5358 24.9529 89.7779 24.1853C90.0201 23.4177 90.2877 22.6373 90.5808 21.8441C90.8612 21.0381 91.1671 20.2641 91.4985 19.522C92.0338 19.7779 92.6264 20.0914 93.2764 20.4624C93.9391 20.8334 94.5509 21.2684 95.1116 21.7673Z" fill="white"/>
<path d="M116.886 28.9061C116.886 29.226 116.988 29.3859 117.192 29.3859C117.434 29.3859 117.721 29.3091 118.052 29.1556C118.396 29.0021 118.753 28.8038 119.123 28.5607C119.492 28.3048 119.868 28.0234 120.251 27.7163C120.633 27.4093 120.99 27.1086 121.321 26.8144C121.665 26.5201 121.971 26.2451 122.239 25.9892C122.507 25.7333 122.717 25.5286 122.87 25.3751C122.997 25.4903 123.15 25.6374 123.329 25.8165C123.507 25.9956 123.666 26.1619 123.807 26.3154C123.475 26.6481 123.099 27.0191 122.679 27.4285C122.258 27.8379 121.806 28.2601 121.321 28.695C120.85 29.1172 120.353 29.533 119.83 29.9424C119.32 30.339 118.811 30.6972 118.301 31.0171C117.791 31.3241 117.294 31.5736 116.81 31.7655C116.325 31.9574 115.867 32.0534 115.433 32.0534C115.204 32.0534 114.923 31.9446 114.592 31.7271C114.261 31.5224 113.942 31.2666 113.636 30.9595C113.33 30.6525 113.069 30.3326 112.852 30C112.648 29.6546 112.547 29.3475 112.547 29.0789C112.547 28.4904 112.585 27.8763 112.661 27.2366C112.088 27.7483 111.533 28.2345 110.998 28.695C110.463 29.1556 109.921 29.5906 109.373 30C108.838 30.3966 108.283 30.7612 107.71 31.0938C107.149 31.4393 106.55 31.7335 105.913 31.9766C105.722 32.0534 105.556 32.0917 105.416 32.0917C105.288 32.0917 105.123 32.0278 104.919 31.8998C104.715 31.7719 104.517 31.6056 104.326 31.4009C104.135 31.209 103.969 30.9915 103.829 30.7484C103.689 30.4925 103.619 30.2495 103.619 30.0192C103.619 29.4946 103.721 28.9125 103.925 28.2729C104.116 27.6204 104.403 26.9551 104.785 26.2771C105.155 25.5862 105.613 24.9017 106.161 24.2237C106.697 23.5328 107.308 22.8868 107.997 22.2855C108.685 21.6714 109.443 21.1212 110.272 20.6351C111.1 20.1361 111.986 19.7395 112.929 19.4453C113.107 19.4709 113.337 19.554 113.617 19.6948C113.897 19.8227 114.159 19.957 114.401 20.0978C114.86 18.78 115.382 17.4623 115.969 16.1445C116.568 14.814 117.198 13.541 117.861 12.3256C118.537 11.0975 119.238 9.95243 119.964 8.89057C120.69 7.8159 121.417 6.86918 122.143 6.05039C122.87 5.21881 123.584 4.54714 124.285 4.0354C124.998 3.52365 125.674 3.21021 126.311 3.09507C126.591 3.09507 126.884 3.19102 127.19 3.38292C127.509 3.56203 127.808 3.78592 128.089 4.05459C128.369 4.31046 128.605 4.57913 128.796 4.86058C129 5.14204 129.128 5.37872 129.179 5.57063C129.179 6.15913 129.032 6.84359 128.739 7.624C128.446 8.40441 128.038 9.24879 127.515 10.1571C127.006 11.0527 126.394 11.993 125.68 12.9781C124.979 13.9632 124.221 14.9675 123.405 15.991C122.589 17.0017 121.729 18.0124 120.824 19.0231C119.932 20.0338 119.034 21.0125 118.129 21.9592C117.746 23.2642 117.441 24.5115 117.211 25.7013C116.994 26.8784 116.886 27.9466 116.886 28.9061ZM126.483 5.41711C126.266 5.41711 125.999 5.57703 125.68 5.89687C125.374 6.21671 125.024 6.66448 124.629 7.24019C124.246 7.80311 123.838 8.47477 123.405 9.25518C122.972 10.0356 122.532 10.8864 122.086 11.8075C121.64 12.7286 121.194 13.7074 120.748 14.7436C120.302 15.7799 119.881 16.829 119.486 17.8909C120.442 16.7138 121.347 15.5368 122.201 14.3598C123.067 13.17 123.826 12.0442 124.476 10.9823C125.126 9.92045 125.642 8.94814 126.024 8.06538C126.407 7.18262 126.598 6.45339 126.598 5.87768C126.598 5.80091 126.591 5.70496 126.579 5.58982C126.579 5.47468 126.547 5.41711 126.483 5.41711ZM108.341 28.2537C108.761 28.2537 109.386 27.9594 110.214 27.3709C111.043 26.7696 111.979 25.97 113.024 24.9721C113.139 24.3836 113.279 23.7887 113.445 23.1874C113.611 22.5733 113.796 21.9528 113.999 21.3259C113.26 21.8249 112.534 22.3942 111.82 23.0339C111.119 23.6736 110.495 24.3068 109.947 24.9337C109.399 25.5606 108.953 26.1491 108.608 26.6992C108.277 27.2366 108.111 27.646 108.111 27.9274C108.111 28.1449 108.188 28.2537 108.341 28.2537Z" fill="white"/>
<path d="M133.652 29.3475C133.652 29.4243 133.69 29.4627 133.767 29.4627C133.881 29.4627 134.073 29.3795 134.34 29.2132C134.608 29.0469 134.914 28.8358 135.258 28.5799C135.602 28.324 135.965 28.0362 136.347 27.7163C136.743 27.3965 137.119 27.0831 137.475 26.776C137.832 26.469 138.151 26.1875 138.431 25.9316C138.724 25.6758 138.947 25.4775 139.1 25.3367C139.215 25.4519 139.355 25.6054 139.521 25.7973C139.699 25.9892 139.859 26.1619 139.999 26.3154C139.693 26.5969 139.323 26.9423 138.89 27.3517C138.47 27.7483 138.011 28.1641 137.514 28.5991C137.029 29.0341 136.526 29.4691 136.003 29.904C135.481 30.3262 134.971 30.7036 134.474 31.0363C133.977 31.3689 133.505 31.6376 133.059 31.8423C132.613 32.0598 132.225 32.1685 131.893 32.1685C131.664 32.1685 131.409 32.1237 131.128 32.0342C130.861 31.9446 130.612 31.8167 130.383 31.6504C130.154 31.4968 129.962 31.3113 129.809 31.0938C129.656 30.8764 129.58 30.6333 129.58 30.3646C129.58 30.2623 129.574 30.1407 129.561 30C129.561 29.8465 129.574 29.6546 129.599 29.4243C129.625 29.1812 129.676 28.8933 129.752 28.5607C129.829 28.2153 129.943 27.7931 130.096 27.2941C129.676 27.7419 129.179 28.2089 128.605 28.695C128.044 29.1812 127.452 29.6418 126.827 30.0768C126.203 30.5117 125.572 30.9019 124.935 31.2474C124.31 31.6056 123.73 31.8743 123.195 32.0534C123.131 32.079 123.08 32.0917 123.042 32.0917C123.004 32.0917 122.965 32.0917 122.927 32.0917C122.8 32.0917 122.634 32.0278 122.43 31.8998C122.213 31.7719 122.003 31.5992 121.799 31.3817C121.595 31.177 121.423 30.9403 121.283 30.6717C121.13 30.403 121.054 30.1343 121.054 29.8657C121.054 29.7889 121.092 29.533 121.168 29.098C121.245 28.6631 121.43 28.1129 121.723 27.4477C122.003 26.7696 122.424 26.0148 122.985 25.1832C123.545 24.3388 124.31 23.4753 125.279 22.5925C125.776 22.1447 126.311 21.7225 126.884 21.3259C127.369 20.9933 127.923 20.6543 128.548 20.3088C129.172 19.9634 129.829 19.6884 130.517 19.4837C130.542 19.4837 130.561 19.4773 130.574 19.4645C130.6 19.4517 130.631 19.4581 130.67 19.4837C130.823 19.5348 131.001 19.618 131.205 19.7331C131.422 19.8355 131.632 19.9506 131.836 20.0786C132.052 20.1937 132.237 20.3152 132.39 20.4432C132.556 20.5583 132.664 20.6543 132.715 20.731C132.728 20.7566 132.728 20.7758 132.715 20.7886L132.677 20.827C132.103 21.134 131.562 21.4795 131.052 21.8633C130.542 22.2343 130.09 22.5861 129.695 22.9187C129.236 23.3153 128.809 23.7055 128.414 24.0894C127.483 25.0105 126.84 25.8101 126.483 26.4882C126.126 27.1534 125.948 27.6332 125.948 27.9274C125.948 28.1449 126.037 28.2537 126.215 28.2537C126.394 28.2537 126.617 28.1833 126.884 28.0426C127.165 27.8891 127.477 27.6907 127.821 27.4477C128.165 27.1918 128.541 26.8975 128.949 26.5649C129.37 26.2195 129.803 25.8613 130.249 25.4903C130.644 25.1704 131.027 24.825 131.396 24.454C131.715 24.1469 132.046 23.7951 132.39 23.3985C132.734 23.0019 133.027 22.5989 133.27 22.1895C133.27 22.1767 133.276 22.1639 133.289 22.1511C133.301 22.1383 133.321 22.1383 133.346 22.1511C133.486 22.2535 133.646 22.4262 133.824 22.6693C134.002 22.8995 134.168 23.1554 134.321 23.4369C134.474 23.7183 134.601 23.9934 134.703 24.2621C134.818 24.5179 134.875 24.7162 134.875 24.857C134.582 25.4583 134.353 26.0084 134.187 26.5073C134.034 26.9935 133.913 27.4221 133.824 27.7931C133.748 28.1641 133.697 28.484 133.671 28.7526C133.658 29.0085 133.652 29.2068 133.652 29.3475Z" fill="white"/>
<path d="M76.3986 44.7919V36.566H78.1546L81.6411 41.4837V36.566H83.7025V44.7919H81.9338L78.4473 39.8871V44.7919H76.3986Z" fill="white"/>
<path d="M86.8808 44.9197C86.4991 44.9197 86.1428 44.8516 85.8119 44.7153C85.4896 44.5791 85.2308 44.3704 85.0357 44.0894C84.8406 43.7999 84.7431 43.4423 84.7431 43.0165C84.7431 42.3949 84.9509 41.9095 85.3666 41.5603C85.7907 41.2027 86.4227 41.0239 87.2625 41.0239H88.9421V40.8834C88.9421 40.5768 88.8403 40.3597 88.6368 40.2319C88.4332 40.0957 88.0514 40.0276 87.4916 40.0276C86.8044 40.0276 86.13 40.134 85.4684 40.3469V39.0185C85.7653 38.8993 86.1258 38.8013 86.55 38.7247C86.9826 38.6481 87.4364 38.6098 87.9115 38.6098C88.8446 38.6098 89.5741 38.8014 90.1001 39.1845C90.6345 39.5677 90.9017 40.1766 90.9017 41.0111V44.7919H89.1076L89.0058 44.281C88.7852 44.4854 88.501 44.6429 88.1532 44.7536C87.8139 44.8643 87.3898 44.9197 86.8808 44.9197ZM87.5297 43.6551C87.8521 43.6551 88.132 43.5998 88.3695 43.4891C88.6071 43.3784 88.7979 43.2379 88.9421 43.0676V42.2118H87.4916C86.8893 42.2118 86.5881 42.4545 86.5881 42.9398C86.5881 43.1612 86.6645 43.3358 86.8172 43.4635C86.9699 43.5913 87.2074 43.6551 87.5297 43.6551Z" fill="white"/>
<path d="M92.5374 37.7795V36.234H94.7642V37.7795H92.5374ZM92.7028 44.7919V40.2575H91.8121L91.9902 38.7375H94.7514V44.7919H92.7028Z" fill="white"/>
<path d="M97.9147 44.9197C97.253 44.9197 96.7779 44.7749 96.4895 44.4854C96.2011 44.1959 96.0569 43.7318 96.0569 43.0931V36.1829H98.1055V42.8887C98.1055 43.0846 98.1437 43.2208 98.22 43.2975C98.3049 43.3656 98.4279 43.3997 98.5891 43.3997C98.8181 43.3997 99.0217 43.3699 99.1998 43.3103V44.7025C99.0047 44.7792 98.8096 44.8345 98.6145 44.8686C98.4279 44.9026 98.1946 44.9197 97.9147 44.9197Z" fill="white"/>
<path d="M105.313 44.9197C104.771 44.9197 104.262 44.8771 103.786 44.7919C103.32 44.7153 102.917 44.6003 102.578 44.4471V42.6972C102.951 42.8589 103.362 42.9909 103.812 43.0931C104.27 43.1953 104.703 43.2464 105.11 43.2464C105.619 43.2464 105.996 43.1996 106.242 43.1059C106.497 43.0122 106.624 42.8078 106.624 42.4928C106.624 42.2799 106.56 42.1096 106.433 41.9819C106.314 41.8541 106.115 41.7434 105.835 41.6498C105.564 41.5476 105.19 41.4284 104.715 41.2921C104.155 41.1218 103.71 40.9345 103.379 40.7301C103.048 40.5172 102.811 40.2617 102.667 39.9637C102.523 39.6657 102.45 39.2995 102.45 38.8652C102.45 38.0818 102.73 37.4815 103.29 37.0642C103.85 36.6469 104.677 36.4383 105.771 36.4383C106.247 36.4383 106.709 36.4766 107.158 36.5533C107.608 36.6214 107.973 36.7023 108.253 36.796V38.5587C107.888 38.4139 107.519 38.3075 107.146 38.2393C106.781 38.1712 106.425 38.1371 106.077 38.1371C105.619 38.1371 105.246 38.1797 104.957 38.2649C104.677 38.35 104.537 38.5459 104.537 38.8524C104.537 39.0313 104.588 39.176 104.69 39.2867C104.792 39.3889 104.966 39.4826 105.212 39.5677C105.466 39.6529 105.81 39.7551 106.242 39.8743C106.912 40.0531 107.426 40.2703 107.782 40.5257C108.138 40.7727 108.384 41.0622 108.52 41.3943C108.656 41.7179 108.724 42.084 108.724 42.4928C108.724 43.2166 108.444 43.8042 107.884 44.2555C107.324 44.6983 106.467 44.9197 105.313 44.9197Z" fill="white"/>
<path d="M112.058 44.9197C111.311 44.9197 110.76 44.7281 110.404 44.3449C110.056 43.9617 109.882 43.4337 109.882 42.761V40.2958H109.068V38.7375H109.882V37.4729L111.931 36.9237V38.7375H113.394L113.305 40.2958H111.931V42.6205C111.931 42.91 112.003 43.1144 112.147 43.2336C112.291 43.3443 112.507 43.3997 112.796 43.3997C113.042 43.3997 113.292 43.3571 113.547 43.2719V44.6642C113.148 44.8345 112.652 44.9197 112.058 44.9197Z" fill="white"/>
<path d="M116.41 44.9197C115.697 44.9197 115.142 44.7196 114.743 44.3193C114.344 43.9106 114.145 43.3188 114.145 42.5439V38.7375H116.194V42.4289C116.194 42.7695 116.274 43.0207 116.435 43.1825C116.605 43.3358 116.855 43.4124 117.186 43.4124C117.432 43.4124 117.665 43.3614 117.886 43.2592C118.107 43.157 118.289 43.0293 118.433 42.876V38.7375H120.482V44.7919H118.573L118.509 44.281C118.263 44.4684 117.967 44.6216 117.619 44.7409C117.271 44.8601 116.868 44.9197 116.41 44.9197Z" fill="white"/>
<path d="M124.311 44.9197C123.726 44.9197 123.225 44.826 122.81 44.6387C122.394 44.4513 122.076 44.1448 121.855 43.719C121.635 43.2847 121.525 42.7057 121.525 41.9819C121.525 41.2495 121.652 40.6364 121.906 40.1425C122.161 39.6401 122.509 39.2612 122.95 39.0057C123.399 38.7417 123.913 38.6098 124.489 38.6098C124.803 38.6098 125.083 38.6438 125.329 38.7119C125.584 38.7801 125.821 38.8822 126.042 39.0185V36.1829H128.09V44.7919H126.322L126.207 44.281C125.961 44.4939 125.686 44.6557 125.38 44.7664C125.075 44.8686 124.718 44.9197 124.311 44.9197ZM124.897 43.4252C125.346 43.4252 125.728 43.2719 126.042 42.9654V40.5129C125.753 40.249 125.384 40.117 124.935 40.117C124.502 40.117 124.171 40.283 123.942 40.6151C123.722 40.9387 123.611 41.3985 123.611 41.9946C123.611 42.5737 123.717 42.9569 123.93 43.1442C124.15 43.3315 124.472 43.4252 124.897 43.4252Z" fill="white"/>
<path d="M129.791 37.7795V36.234H132.018V37.7795H129.791ZM129.957 44.7919V40.2575H129.066L129.244 38.7375H132.005V44.7919H129.957Z" fill="white"/>
<path d="M136.454 44.9197C135.291 44.9197 134.435 44.6514 133.883 44.115C133.332 43.57 133.056 42.7866 133.056 41.7647C133.056 40.7514 133.332 39.9722 133.883 39.4272C134.443 38.8822 135.3 38.6098 136.454 38.6098C137.616 38.6098 138.473 38.8822 139.024 39.4272C139.584 39.9722 139.864 40.7514 139.864 41.7647C139.864 42.7866 139.588 43.57 139.037 44.115C138.485 44.6514 137.624 44.9197 136.454 44.9197ZM136.454 43.3103C136.929 43.3103 137.268 43.191 137.472 42.9526C137.675 42.7142 137.777 42.3182 137.777 41.7647C137.777 41.2112 137.675 40.8152 137.472 40.5768C137.268 40.3384 136.929 40.2192 136.454 40.2192C135.987 40.2192 135.652 40.3384 135.448 40.5768C135.245 40.8152 135.143 41.2112 135.143 41.7647C135.143 42.3182 135.245 42.7142 135.448 42.9526C135.652 43.191 135.987 43.3103 136.454 43.3103Z" fill="white"/>
</svg>
