<svg width="624" height="484" viewBox="0 0 624 484" fill="none" xmlns="http://www.w3.org/2000/svg">
<g clip-path="url(#clip0_342_71)">
<mask id="mask0_342_71" style="mask-type:alpha" maskUnits="userSpaceOnUse" x="-3" y="-3" width="672" height="542">
<path d="M656.682 528.495C656.558 534.016 651.982 538.392 646.461 538.268L7.03001 523.93C1.50855 523.806 -2.86712 519.23 -2.74331 513.708L1.37796 329.915C5.58749 142.185 161.185 -6.58748 348.915 -2.37795L658.428 4.56238C663.949 4.68619 668.325 9.26258 668.201 14.784L656.682 528.495Z" fill="#D9D9D9"/>
</mask>
<g mask="url(#mask0_342_71)">
<path d="M233.661 121.321C316.571 65.0396 400.394 27.1793 468.881 11.453C503.126 3.58947 533.51 1.26622 558.018 4.92241C582.524 8.57854 601.101 18.2037 611.833 34.1894C622.564 50.175 624.496 71.0992 618.705 95.3218C612.914 119.545 599.411 147.014 579.354 176.011C539.242 234.004 472.981 298.025 390.071 354.307C307.16 410.588 223.336 448.447 154.849 464.174C120.604 472.037 90.2193 474.361 65.7122 470.704C41.2056 467.048 22.6287 457.423 11.8971 441.437C1.16554 425.452 -0.766277 404.528 5.02455 380.305C10.8155 356.082 24.319 328.613 44.376 299.615C84.4882 241.622 150.75 177.602 233.661 121.321Z" stroke="#D0D0D0"/>
</g>
<path d="M124.315 457.154V457.154C126.793 462.996 132.294 466.993 138.616 467.545V467.545V467.545C132.774 470.023 128.777 475.524 128.226 481.846V481.846V481.846C125.747 476.004 120.246 472.007 113.924 471.455V471.455V471.455C119.766 468.977 123.763 463.476 124.315 457.154V457.154Z" fill="#001588"/>
<circle cx="603.762" cy="138" r="5" fill="#001588"/>
</g>
<defs>
<clipPath id="clip0_342_71">
<rect width="624" height="484" fill="white"/>
</clipPath>
</defs>
</svg>
