<svg width="156" height="43" viewBox="0 0 156 43" fill="none" xmlns="http://www.w3.org/2000/svg">
<g clip-path="url(#clip0_39_110)">
<path d="M34.1056 24.7269C33.7802 24.9918 33.4345 25.2429 33.0683 25.4791C30.4161 27.1909 26.7109 28.0958 22.3535 28.0958C18.0596 28.0958 13.5114 27.2536 9.87523 25.7851C8.10391 25.0698 6.74164 24.2807 5.69578 23.4718C5.29398 23.6501 4.91086 23.8402 4.54781 24.0422C1.61516 25.6736 0 28.0616 0 30.7667C0 33.4718 1.61516 35.8598 4.54781 37.4912C7.49859 39.1325 11.7568 40.0001 16.862 40.0001C22.1343 40.0001 27.6992 39.1158 32.1297 37.5738C37.2784 35.7819 40 33.428 40 30.7667C40 28.4697 37.971 26.4022 34.1056 24.7269Z" fill="#4349A4"/>
<path d="M10.7529 23.6119C14.1207 24.972 18.349 25.752 22.3535 25.752C26.2591 25.752 29.5248 24.9767 31.7973 23.5099C34.0516 22.055 35.293 19.9436 35.293 17.5645C35.293 15.1855 34.0515 13.074 31.7973 11.6191C31.6118 11.4994 31.419 11.3847 31.2204 11.2742C30.3021 12.3476 29.0283 13.3013 27.4295 14.0912C24.8059 15.3873 21.5262 16.1307 18.431 16.1307C15.1794 16.1307 12.3955 15.2896 10.3802 13.6984C9.85664 13.285 9.39109 12.8274 8.98617 12.3326C6.21125 13.7977 4.70703 15.6188 4.70703 17.5645C4.70703 19.8899 6.85414 22.0376 10.7529 23.6119Z" fill="#4349A4"/>
<path d="M11.8325 11.859C13.4299 13.1204 15.7116 13.787 18.4309 13.787C21.1781 13.787 24.0795 13.132 26.3912 11.99C29.0962 10.6537 30.5859 8.84373 30.5859 6.89358C30.5859 4.94342 29.0962 3.1335 26.3912 1.79717C24.0795 0.655061 21.1781 6.10352e-05 18.4309 6.10352e-05C15.7116 6.10352e-05 13.4299 0.66678 11.8325 1.92803C10.273 3.15944 9.41406 4.92287 9.41406 6.89358C9.41406 8.86428 10.273 10.6277 11.8325 11.859Z" fill="#4349A4"/>
</g>
<path d="M57.705 24.3501C53.995 24.3501 51.195 23.3467 49.305 21.3401C47.4383 19.3334 46.505 16.6151 46.505 13.1851C46.505 10.7117 46.9133 8.57673 47.73 6.78006C48.5467 4.96006 49.7833 3.56006 51.44 2.58006C53.12 1.60006 55.2433 1.11006 57.81 1.11006C59.14 1.11006 60.3417 1.20339 61.415 1.39006C62.5117 1.55339 63.5383 1.79839 64.495 2.12506V5.41506C62.5817 4.71506 60.4583 4.36506 58.125 4.36506C55.255 4.36506 53.2367 5.12339 52.07 6.64006C50.9267 8.15672 50.355 10.3384 50.355 13.1851C50.355 15.7751 50.9617 17.7467 52.175 19.1001C53.3883 20.4534 55.2667 21.1301 57.81 21.1301C59.8167 21.1301 61.4383 20.8967 62.675 20.4301V14.1301H57.04V11.6451H65.93V22.4951C65.2067 22.9617 64.1683 23.3934 62.815 23.7901C61.485 24.1634 59.7817 24.3501 57.705 24.3501ZM69.6269 24.0001V1.46006H85.3419V4.43506H73.4419V11.2601H84.0469V14.2001H73.4419V21.0601H85.3419V24.0001H69.6269ZM88.87 24.0001V1.46006H92.23L103.99 18.0501V1.46006H107.77V24.0001H104.41L92.685 7.44506V24.0001H88.87ZM112.215 24.0001V1.46006H121.35C124.686 1.46006 127.16 2.34672 128.77 4.12006C130.38 5.87006 131.185 8.78672 131.185 12.8701C131.185 16.7201 130.391 19.5434 128.805 21.3401C127.218 23.1134 124.733 24.0001 121.35 24.0001H112.215ZM116.03 21.0601H120.755C122.225 21.0601 123.45 20.8501 124.43 20.4301C125.41 19.9867 126.145 19.1701 126.635 17.9801C127.125 16.7901 127.37 15.0867 127.37 12.8701C127.37 10.6534 127.148 8.93839 126.705 7.72506C126.261 6.51172 125.55 5.66006 124.57 5.17006C123.613 4.68006 122.341 4.43506 120.755 4.43506H116.03V21.0601ZM132.365 24.0001L140.975 1.46006H145.245L153.785 24.0001H149.865L147.625 18.1901H138.56L136.32 24.0001H132.365ZM139.155 15.2501H146.995L143.075 4.92506L139.155 15.2501Z" fill="#11104A"/>
<path d="M45.882 39.0001V29.9841H50.25C51.146 29.9841 51.8087 30.1941 52.238 30.6141C52.6673 31.0341 52.882 31.6267 52.882 32.3921C52.882 32.8774 52.784 33.2881 52.588 33.6241C52.392 33.9507 52.1307 34.1981 51.804 34.3661C52.2427 34.4874 52.588 34.7067 52.84 35.0241C53.1013 35.3321 53.232 35.7894 53.232 36.3961C53.232 37.2734 52.994 37.9267 52.518 38.3561C52.0513 38.7854 51.3607 39.0001 50.446 39.0001H45.882ZM47.408 33.8341H50.04C50.5533 33.8341 50.9173 33.7174 51.132 33.4841C51.356 33.2414 51.468 32.9194 51.468 32.5181C51.468 32.0514 51.356 31.7061 51.132 31.4821C50.908 31.2487 50.488 31.1321 49.872 31.1321H47.408V33.8341ZM47.408 37.8801H50.124C50.6653 37.8801 51.062 37.7681 51.314 37.5441C51.566 37.3107 51.692 36.9094 51.692 36.3401C51.692 35.8734 51.566 35.5281 51.314 35.3041C51.0713 35.0707 50.6233 34.9541 49.97 34.9541H47.408V37.8801ZM58.074 39.1401C56.9167 39.1401 56.0207 38.8554 55.386 38.2861C54.7514 37.7167 54.434 36.8441 54.434 35.6681C54.434 34.6041 54.7047 33.7641 55.246 33.1481C55.7874 32.5321 56.6087 32.2241 57.71 32.2241C58.718 32.2241 59.474 32.4901 59.978 33.0221C60.4914 33.5447 60.748 34.2214 60.748 35.0521V36.2841H55.89C55.9647 36.9281 56.198 37.3714 56.59 37.6141C56.982 37.8567 57.5794 37.9781 58.382 37.9781C58.718 37.9781 59.0634 37.9454 59.418 37.8801C59.7727 37.8147 60.0807 37.7307 60.342 37.6281V38.7481C60.0434 38.8787 59.698 38.9767 59.306 39.0421C58.9234 39.1074 58.5127 39.1401 58.074 39.1401ZM55.89 35.2901H59.404V34.8281C59.404 34.3707 59.278 34.0161 59.026 33.7641C58.774 33.5027 58.3494 33.3721 57.752 33.3721C57.0427 33.3721 56.5527 33.5261 56.282 33.8341C56.0207 34.1421 55.89 34.6274 55.89 35.2901ZM64.3056 39.1401C63.8856 39.1401 63.4936 39.0654 63.1296 38.9161C62.7749 38.7667 62.4902 38.5427 62.2756 38.2441C62.0609 37.9361 61.9536 37.5581 61.9536 37.1101C61.9536 36.4754 62.1682 35.9667 62.5976 35.5841C63.0362 35.1921 63.7082 34.9961 64.6136 34.9961H66.7416V34.7021C66.7416 34.3847 66.6902 34.1327 66.5876 33.9461C66.4942 33.7594 66.3169 33.6241 66.0556 33.5401C65.8036 33.4561 65.4302 33.4141 64.9356 33.4141C64.1516 33.4141 63.4189 33.5307 62.7376 33.7641V32.6301C63.0362 32.5087 63.4002 32.4107 63.8296 32.3361C64.2589 32.2614 64.7209 32.2241 65.2156 32.2241C66.1862 32.2241 66.9236 32.4201 67.4276 32.8121C67.9409 33.2041 68.1976 33.8434 68.1976 34.7301V39.0001H66.8956L66.7976 38.3281C66.5269 38.5894 66.1909 38.7901 65.7896 38.9301C65.3976 39.0701 64.9029 39.1401 64.3056 39.1401ZM64.7116 38.0481C65.1689 38.0481 65.5656 37.9734 65.9016 37.8241C66.2469 37.6654 66.5269 37.4554 66.7416 37.1941V36.0321H64.6416C64.1936 36.0321 63.8669 36.1207 63.6616 36.2981C63.4656 36.4661 63.3676 36.7274 63.3676 37.0821C63.3676 37.4274 63.4842 37.6747 63.7176 37.8241C63.9509 37.9734 64.2822 38.0481 64.7116 38.0481ZM72.2838 39.1401C71.4905 39.1401 70.8791 38.9207 70.4498 38.4821C70.0298 38.0434 69.8198 37.3994 69.8198 36.5501V32.3641H71.3458V36.5501C71.3458 37.0447 71.4671 37.4087 71.7098 37.6421C71.9525 37.8754 72.3258 37.9921 72.8298 37.9921C73.2031 37.9921 73.5485 37.9221 73.8658 37.7821C74.1831 37.6421 74.4585 37.4554 74.6918 37.2221V32.3641H76.2038V39.0001H74.8178L74.7478 38.3141C74.4491 38.5474 74.0945 38.7434 73.6838 38.9021C73.2731 39.0607 72.8065 39.1401 72.2838 39.1401ZM80.5176 39.1401C79.8082 39.1401 79.2762 38.9534 78.9216 38.5801C78.5762 38.1974 78.4036 37.6794 78.4036 37.0261V33.5541H77.4236V32.3641H78.4036V30.8381L79.9156 30.3761V32.3641H81.6796L81.5816 33.5541H79.9156V36.9421C79.9156 37.3247 80.0042 37.5954 80.1816 37.7541C80.3589 37.9034 80.6482 37.9781 81.0496 37.9781C81.3016 37.9781 81.5676 37.9314 81.8476 37.8381V38.9161C81.4836 39.0654 81.0402 39.1401 80.5176 39.1401ZM83.8839 41.4641C83.3799 41.4641 82.9506 41.3987 82.5959 41.2681V40.1341C82.7546 40.1901 82.8992 40.2274 83.0299 40.2461C83.1699 40.2647 83.3099 40.2741 83.4499 40.2741C83.7392 40.2741 83.9726 40.2274 84.1499 40.1341C84.3272 40.0407 84.4812 39.8914 84.6119 39.6861C84.7519 39.4901 84.9012 39.2334 85.0599 38.9161L82.1059 32.3641H83.6879L85.8159 37.2921L87.9719 32.3641H89.5399L86.8379 38.6221C86.6046 39.1821 86.3526 39.6721 86.0819 40.0921C85.8206 40.5214 85.5126 40.8574 85.1579 41.1001C84.8126 41.3427 84.3879 41.4641 83.8839 41.4641ZM96.9197 39.1401C95.949 39.1401 95.1697 38.9301 94.5817 38.5101C93.9937 38.0807 93.6997 37.5114 93.6997 36.8021C93.6997 36.1674 93.8863 35.6307 94.2597 35.1921C94.6423 34.7534 95.1603 34.3567 95.8137 34.0021C95.4497 33.6754 95.1557 33.3534 94.9317 33.0361C94.717 32.7187 94.6097 32.3454 94.6097 31.9161C94.6097 31.3281 94.8197 30.8381 95.2397 30.4461C95.6597 30.0447 96.2383 29.8441 96.9757 29.8441C97.7037 29.8441 98.273 30.0354 98.6837 30.4181C99.1037 30.7914 99.3137 31.2907 99.3137 31.9161C99.3137 32.4014 99.197 32.8167 98.9637 33.1621C98.7303 33.5074 98.357 33.8481 97.8437 34.1841L99.9157 36.2981C100.065 35.9807 100.14 35.6074 100.14 35.1781V34.9401H101.302V35.2061C101.302 35.5607 101.255 35.9107 101.162 36.2561C101.068 36.5921 100.942 36.8861 100.784 37.1381L101.918 38.2861L100.994 39.1261L99.9857 38.1181C99.6403 38.4727 99.2063 38.7341 98.6837 38.9021C98.161 39.0607 97.573 39.1401 96.9197 39.1401ZM96.8917 33.5261C97.293 33.2647 97.5917 33.0314 97.7877 32.8261C97.9837 32.6207 98.0817 32.3407 98.0817 31.9861C98.0817 31.6594 97.993 31.4027 97.8157 31.2161C97.6477 31.0201 97.3677 30.9221 96.9757 30.9221C96.5743 30.9221 96.285 31.0247 96.1077 31.2301C95.9303 31.4354 95.8417 31.6874 95.8417 31.9861C95.8417 32.2754 95.9257 32.5367 96.0937 32.7701C96.271 32.9941 96.537 33.2461 96.8917 33.5261ZM96.9197 38.0761C97.853 38.0761 98.567 37.8101 99.0617 37.2781L96.7237 34.9121C96.201 35.1267 95.809 35.3834 95.5477 35.6821C95.2957 35.9714 95.1697 36.3354 95.1697 36.7741C95.1697 37.2034 95.333 37.5301 95.6597 37.7541C95.9863 37.9687 96.4063 38.0761 96.9197 38.0761ZM109.288 39.1401C108.121 39.1401 107.183 38.9907 106.474 38.6921V37.3481C106.875 37.4974 107.304 37.6187 107.762 37.7121C108.228 37.8054 108.69 37.8521 109.148 37.8521C109.866 37.8521 110.403 37.7681 110.758 37.6001C111.122 37.4321 111.304 37.0961 111.304 36.5921C111.304 36.2841 111.229 36.0367 111.08 35.8501C110.93 35.6634 110.683 35.5047 110.338 35.3741C109.992 35.2341 109.516 35.0894 108.91 34.9401C107.939 34.6881 107.258 34.3707 106.866 33.9881C106.474 33.5961 106.278 33.0594 106.278 32.3781C106.278 31.5847 106.567 30.9641 107.146 30.5161C107.724 30.0681 108.588 29.8441 109.736 29.8441C110.258 29.8441 110.748 29.8814 111.206 29.9561C111.672 30.0307 112.036 30.1147 112.298 30.2081V31.5521C111.588 31.2814 110.804 31.1461 109.946 31.1461C109.274 31.1461 108.751 31.2347 108.378 31.4121C108.004 31.5894 107.818 31.9114 107.818 32.3781C107.818 32.6487 107.883 32.8681 108.014 33.0361C108.144 33.2041 108.368 33.3487 108.686 33.4701C109.012 33.5914 109.46 33.7267 110.03 33.8761C110.767 34.0627 111.336 34.2867 111.738 34.5481C112.148 34.8001 112.433 35.0987 112.592 35.4441C112.76 35.7801 112.844 36.1627 112.844 36.5921C112.844 37.3854 112.55 38.0107 111.962 38.4681C111.374 38.9161 110.482 39.1401 109.288 39.1401ZM114.323 42.0241V32.3641H115.639L115.723 33.0221C116.022 32.7514 116.349 32.5507 116.703 32.4201C117.058 32.2894 117.478 32.2241 117.963 32.2241C118.915 32.2241 119.657 32.4854 120.189 33.0081C120.721 33.5214 120.987 34.3754 120.987 35.5701C120.987 36.7647 120.712 37.6607 120.161 38.2581C119.611 38.8461 118.859 39.1401 117.907 39.1401C117.105 39.1401 116.419 38.9534 115.849 38.5801V42.0241H114.323ZM117.515 37.9921C118.803 37.9921 119.447 37.1801 119.447 35.5561C119.447 34.7721 119.303 34.2167 119.013 33.8901C118.724 33.5541 118.239 33.3861 117.557 33.3861C116.876 33.3861 116.307 33.6194 115.849 34.0861V37.4041C116.064 37.5814 116.302 37.7261 116.563 37.8381C116.834 37.9407 117.151 37.9921 117.515 37.9921ZM124.544 39.1401C124.124 39.1401 123.732 39.0654 123.368 38.9161C123.013 38.7667 122.729 38.5427 122.514 38.2441C122.299 37.9361 122.192 37.5581 122.192 37.1101C122.192 36.4754 122.407 35.9667 122.836 35.5841C123.275 35.1921 123.947 34.9961 124.852 34.9961H126.98V34.7021C126.98 34.3847 126.929 34.1327 126.826 33.9461C126.733 33.7594 126.555 33.6241 126.294 33.5401C126.042 33.4561 125.669 33.4141 125.174 33.4141C124.39 33.4141 123.657 33.5307 122.976 33.7641V32.6301C123.275 32.5087 123.639 32.4107 124.068 32.3361C124.497 32.2614 124.959 32.2241 125.454 32.2241C126.425 32.2241 127.162 32.4201 127.666 32.8121C128.179 33.2041 128.436 33.8434 128.436 34.7301V39.0001H127.134L127.036 38.3281C126.765 38.5894 126.429 38.7901 126.028 38.9301C125.636 39.0701 125.141 39.1401 124.544 39.1401ZM124.95 38.0481C125.407 38.0481 125.804 37.9734 126.14 37.8241C126.485 37.6654 126.765 37.4554 126.98 37.1941V36.0321H124.88C124.432 36.0321 124.105 36.1207 123.9 36.2981C123.704 36.4661 123.606 36.7274 123.606 37.0821C123.606 37.4274 123.723 37.6747 123.956 37.8241C124.189 37.9734 124.521 38.0481 124.95 38.0481Z" fill="#11104A"/>
<defs>
<clipPath id="clip0_39_110">
<rect width="40" height="40" fill="white"/>
</clipPath>
</defs>
</svg>
