<svg width="141" height="45" viewBox="0 0 141 45" fill="none" xmlns="http://www.w3.org/2000/svg">
<path d="M28.2176 23.92C28.1525 23.7199 28.2058 23.4829 28.1961 23.263C28.1796 22.8898 28.2508 22.4767 28.1135 22.1532C27.8933 21.6345 28.0054 21.2888 28.4119 20.9692C28.5308 20.8758 28.6379 20.7672 28.7488 20.664C29.5799 19.8894 29.6031 19.7466 29.0173 18.7864C28.8399 18.4958 28.6404 18.2187 28.4501 17.9359C28.1543 17.4964 27.8801 17.0399 27.5556 16.6226C27.1949 16.1585 27.1502 15.7225 27.5101 15.2448C27.8009 14.8588 27.7856 14.4506 27.591 14.0164C27.2427 13.2393 26.9188 12.4513 26.5853 11.6676C26.4101 11.2559 26.2363 10.8436 26.0646 10.4381C25.6617 10.6046 25.306 10.7515 24.9145 10.9132C24.9558 11.0327 24.9902 11.1566 25.0404 11.2735C25.362 12.021 25.6615 12.7795 26.02 13.5088C26.2535 13.9839 26.3902 14.4035 25.9903 14.8554C25.8793 14.9807 25.8474 15.1762 25.7229 15.4742C25.7295 14.8408 25.3334 14.8362 25.0112 14.7781C24.4914 14.6844 23.9663 14.6057 23.44 14.5638C22.6088 14.4976 21.7757 14.4781 20.97 14.7619C20.1304 15.0576 19.3941 15.5039 18.7354 16.2599C19.4299 16.1809 20.0141 15.9126 20.6897 16.1471C20.4717 16.3044 20.3378 16.401 20.1877 16.5093C20.6953 16.4525 21.1718 16.3991 21.6483 16.3458C21.1266 16.6761 20.5395 16.8656 20.1741 17.4756C20.4656 17.5299 20.7154 17.5901 20.9688 17.6208C21.639 17.7024 22.3109 17.7699 22.9819 17.846C23.1582 17.866 23.3332 17.8972 23.5449 17.9287C23.5331 17.7135 23.4989 17.5605 23.5239 17.4176C23.5505 17.2641 23.5895 17.0629 23.6976 16.9816C24.3261 16.5082 24.9767 16.0638 25.5951 15.6271C26.4629 16.9713 27.2918 18.2554 28.1376 19.5654C27.2588 20.3304 26.1134 20.1598 25.1845 20.6078C25.263 21.5916 26.0799 21.092 26.4343 21.2476C26.5696 21.8276 26.6864 22.3284 26.8118 22.8663C25.7648 23.1526 24.7894 23.595 24.2589 24.6732C24.8975 24.3217 25.5884 24.1991 26.2957 24.1329C26.8816 24.078 26.9792 24.1607 27.056 24.8782C26.5098 24.956 25.9604 25.0342 25.3568 25.1201C25.3937 25.4411 25.4248 25.7125 25.4594 26.0142C25.7962 26.0142 26.0799 25.9949 26.3591 26.0217C26.517 26.0368 26.7122 26.0848 26.8143 26.1913C27.534 26.9418 27.1947 28.1642 26.1822 28.3914C25.7108 28.4972 25.198 28.5306 24.72 28.4701C23.7105 28.3425 22.7004 28.1787 21.7111 27.9436C20.2031 27.5853 18.7196 27.1374 17.3289 26.4254C16.3522 25.9254 15.8137 25.1317 15.7115 24.0529C15.5116 21.9428 15.3432 19.8296 15.1351 17.7203C15.0827 17.1885 15.2205 16.8106 15.6861 16.5378C15.9296 16.3953 16.1384 16.1949 16.3718 16.0335C17.0542 15.5616 17.7411 15.0963 18.4604 14.6051C18.3539 14.363 18.2678 14.1361 18.1576 13.9217C17.7856 13.1979 17.3877 12.4867 17.0359 11.7534C16.8821 11.4329 16.6705 11.2246 16.3356 11.1634C15.409 10.9942 14.4836 10.7507 13.55 10.7079C12.6221 10.6652 11.6847 10.8309 10.75 10.9052C10.8784 10.8328 11.0319 10.7425 11.1886 10.6582C12.6049 9.89696 14.1281 9.82994 15.6653 10.0545C16.7665 10.2153 17.8515 10.4911 18.9406 10.7297C20.5627 11.085 22.1958 11.2454 23.8334 10.8926C25.9203 10.443 27.2706 8.6474 26.9967 6.26753C26.8671 5.14142 26.3383 4.1825 25.5806 3.35652C23.8798 1.50269 21.7346 0.470532 19.2924 0.00284976C19.233 -0.00856381 19.1665 0.016912 19.0412 0.0332562C19.2121 0.264815 19.3755 0.429169 19.4699 0.626578C19.6383 0.979121 19.8532 1.34253 19.8919 1.71753C19.9881 2.64915 19.216 3.49769 18.1531 3.60781C17.2338 3.70313 16.3033 3.71674 15.3776 3.72094C14.1471 3.72642 12.9245 3.73573 11.724 4.07312C9.0158 4.83426 7.00435 6.41144 5.89612 9.03638C5.12414 10.865 5.13382 12.7556 5.55321 14.6629C6.02974 16.8299 6.97742 18.8128 8.01537 20.748C8.99444 22.5735 9.93966 24.3948 10.0951 26.5131C10.1624 27.4298 10.2589 28.3443 10.3446 29.2866C10.0611 29.2563 9.85998 29.2348 9.6014 29.2072C9.54481 29.5821 9.47326 29.9311 9.44432 30.2836C9.41503 30.641 9.30249 30.9368 9.02739 31.1796C8.3915 31.7411 7.71956 32.2706 7.14043 32.8935C6.48492 33.5987 5.95974 34.3883 5.17653 34.9688C5.01288 35.0901 4.83435 35.2145 4.75997 35.4041C4.45165 36.1905 11.3925 39.6671 12.2816 40.1839C13.6846 40.9993 15.0875 41.8148 16.4904 42.6302C17.192 43.0379 17.8934 43.4456 18.5949 43.8533C19.1788 44.1926 20.0986 44.52 20.5677 45C18.0436 42.4171 15.5195 39.8341 12.9954 37.2512C14.0793 37.8036 15.1631 38.3561 16.2468 38.9085C14.0927 36.6917 11.5548 34.8918 9.03269 33.1052C10.2827 33.1136 11.5326 33.122 12.7826 33.1304C12.4006 33.0444 10.9104 32.7696 10.9077 32.2375C10.905 31.734 12.3204 32.3374 12.6579 32.4407C15.0287 33.1659 17.4306 33.7606 19.8869 34.1039C21.8183 34.3737 23.6552 34.8911 25.3311 35.9189C25.863 36.2452 26.4165 36.5366 26.9633 36.8382C29.5025 38.2391 31.5732 40.1344 33.0804 42.6266C33.2535 42.9127 33.4361 43.1931 33.6174 43.4811C33.9626 43.3881 34.2532 43.3095 34.5439 43.2317C34.8279 43.1557 35.1121 43.0803 35.4641 42.9865C35.3121 42.7062 35.2123 42.4864 35.0818 42.2865C33.6223 40.0497 31.7227 38.1134 29.5605 36.5514C28.4621 35.7579 27.2947 35.06 26.0763 34.4673C25.2693 34.0747 23.5746 33.6617 23.6616 32.489C23.6819 32.2163 23.5337 32.0698 23.254 32.054C23.1482 32.0481 23.044 32.0125 22.8997 31.9821C22.9731 31.4096 23.0487 30.8677 23.1101 30.3242C23.1446 30.0193 23.3041 29.9083 23.6026 29.9105C24.2655 29.9153 24.9284 29.901 25.5912 29.8911C26.1689 29.8824 26.7125 29.7358 27.2212 29.4644C27.4554 29.3395 27.6585 29.19 27.8326 29.0225C27.8367 29.0146 27.8408 29.0064 27.845 28.9987C27.8739 28.9239 27.9032 28.8494 27.9314 28.7744C28.0979 28.3322 28.2515 27.8853 28.4124 27.441C28.448 27.3427 28.4843 27.2442 28.5206 27.1459C28.5048 26.9796 28.4746 26.8105 28.4252 26.6388C28.3679 26.4396 28.3027 26.2378 28.2057 26.0562C28.07 25.8022 28.0573 25.5721 28.1729 25.3012C28.3641 24.8543 28.3721 24.3948 28.2176 23.92ZM9.00896 7.17495C10.644 5.69457 12.6026 5.14727 14.7627 5.20361C15.6142 5.22579 16.4648 5.29299 17.3162 5.30286C18.0391 5.31126 18.7466 5.18982 19.4211 4.90658C20.4965 4.45506 21.2545 3.72295 21.536 2.55748C21.5471 2.51146 21.5855 2.47202 21.6176 2.41888C22.9098 4.86156 21.3696 7.20847 19.003 7.49098C17.8201 7.63223 16.6765 7.37264 15.524 7.19423C14.1518 6.98184 12.7704 6.88268 11.4076 7.18253C9.32905 7.63981 7.87006 8.89895 6.97103 10.8194C6.91061 10.9486 6.85028 11.0778 6.76741 11.1949C7.05555 9.60011 7.80846 8.26198 9.00896 7.17495ZM10.3794 21.0202C10.1898 20.4633 10.0418 19.8845 10.2624 19.2996C10.3609 19.0387 10.4794 18.7682 10.6545 18.5566C11.2158 17.8783 11.7747 17.8503 12.4715 18.3918C13.3961 19.1101 13.828 20.089 13.9944 21.2095C14.0526 21.6012 14.0658 21.9995 14.0996 22.3948C14.0935 22.3954 14.0875 22.3959 14.0814 22.3965C14.0814 22.4912 14.0827 22.5857 14.0812 22.6804C14.0653 23.6706 13.4866 24.0509 12.5722 23.6345C11.4333 23.1159 10.771 22.1704 10.3794 21.0202ZM13.722 29.7733C16.2065 30.3335 18.6893 30.9011 21.2537 31.4847V32.1892C20.8613 32.1366 20.4743 32.1192 20.1045 32.0298C17.4663 31.3924 14.8314 30.7412 12.1962 30.0913C11.9542 30.0316 11.7348 29.9597 11.7372 29.6246C11.7476 28.1506 11.7416 26.6765 11.7961 25.1927C12.0388 26.127 12.2781 27.0622 12.5262 27.9951C12.6086 28.3049 12.7422 28.6031 12.8018 28.9162C12.9016 29.4412 13.2407 29.6647 13.722 29.7733Z" fill="#F8AA60"/>
<path d="M14.8958 35.2468C14.8754 35.3783 14.9161 35.4538 14.96 35.5273C16.2128 37.6261 17.7166 39.5449 19.1988 41.4807C19.4821 41.8507 19.7971 42.0399 20.2453 42.1512C21.9284 42.5687 23.5998 43.0336 25.2353 43.4701C21.8214 40.7549 18.3586 38.0009 14.8958 35.2468Z" fill="#F8AA60"/>
<path d="M21.3696 36.4413C21.4196 36.6788 21.5283 36.8686 21.6658 37.0345C23.1374 38.8104 24.6118 40.584 26.0925 42.3524C26.1834 42.4609 26.3223 42.5578 26.4571 42.5962C27.3592 42.8529 28.2662 43.0923 29.0158 43.2951C26.5352 41.0717 23.9524 38.7566 21.3696 36.4413Z" fill="#F8AA60"/>
<path d="M22.6964 36.225C24.1635 37.7774 25.4513 39.5503 27.6352 40.3272C26.879 39.3782 23.2816 36.3975 22.6964 36.225Z" fill="#F8AA60"/>
<path d="M12.8037 22.2236C12.5882 21.6257 12.3916 21.0803 12.2052 20.5634C12.2882 20.4604 12.4077 20.3807 12.4087 20.2995C12.4157 19.7645 12.2179 19.2993 11.8325 18.9317C11.7597 18.8622 11.5771 18.8499 11.4701 18.8858C11.2043 18.9749 10.8503 19.6085 10.9218 19.8795C11.0507 20.3676 11.1807 20.8597 11.3688 21.3268C11.6204 21.9517 12.1395 22.2763 12.8037 22.2236Z" fill="#F8AA60"/>
<path d="M29.1134 3.86638C28.7045 3.69901 28.2891 3.54433 27.8677 3.40234H26.8661C26.9755 3.55501 27.0772 3.7096 27.1708 3.86638H29.1134Z" fill="white"/>
<path d="M33.1436 6.05564C32.9141 5.8964 32.681 5.74181 32.445 5.59161H27.8642C27.8982 5.74492 27.9257 5.8996 27.9466 6.05564H33.1436Z" fill="white"/>
<path d="M35.8073 8.2449C35.6449 8.08767 35.4801 7.93291 35.3127 7.78088H27.9297C27.9043 7.93811 27.8722 8.09288 27.8334 8.2449H35.8073Z" fill="white"/>
<path d="M27.1161 10.434H37.7763C37.6542 10.2775 37.5299 10.1228 37.4035 9.96993H27.0147C26.9945 9.99705 26.975 10.0249 26.9543 10.0515C26.9553 10.0538 27.0844 10.3589 27.1161 10.434Z" fill="white"/>
<path d="M39.2754 12.6232C39.1824 12.4673 39.0873 12.3126 38.9905 12.1592H27.8463C27.9113 12.3132 27.9768 12.4678 28.043 12.6232H39.2754Z" fill="white"/>
<path d="M4.29617 12.1592H3.25439C3.15746 12.3126 3.06253 12.4672 2.96953 12.6232H4.30402C4.29799 12.4673 4.29516 12.3125 4.29617 12.1592Z" fill="white"/>
<path d="M2.04618 14.3485C1.97298 14.5021 1.90152 14.6568 1.83188 14.8125H4.58957C4.55589 14.6564 4.52523 14.5019 4.49739 14.3485H2.04618Z" fill="white"/>
<path d="M28.6941 14.8125H40.4128C40.3432 14.6568 40.2717 14.5021 40.1985 14.3485H28.6877C28.7085 14.5129 28.709 14.6677 28.6941 14.8125Z" fill="white"/>
<path d="M1.15038 16.5377C1.09735 16.6916 1.04597 16.8463 0.996405 17.0018H5.21956C5.1648 16.8483 5.11195 16.6935 5.06075 16.5377H1.15038Z" fill="white"/>
<path d="M41.2483 17.0018C41.1987 16.8463 41.1474 16.6916 41.0943 16.5377H28.6903C28.7961 16.6934 28.8973 16.8488 28.9969 17.0018H41.2483Z" fill="white"/>
<path d="M41.819 19.1908C41.7874 19.0355 41.7539 18.8808 41.7188 18.7268H30.1044C30.1827 18.8752 30.2523 19.0296 30.3035 19.1908H41.819Z" fill="white"/>
<path d="M0.525658 18.7268C0.49061 18.8808 0.457112 19.0355 0.425441 19.1908H6.13223C6.05985 19.0373 5.98857 18.8826 5.91838 18.7268H0.525658Z" fill="white"/>
<path d="M29.4093 21.3752C29.4076 21.3769 29.406 21.3784 29.4042 21.3801H42.1458C42.1308 21.2249 42.1142 21.0703 42.096 20.916H29.8712C29.7247 21.0813 29.5631 21.2319 29.4093 21.3752Z" fill="white"/>
<path d="M7.00135 20.916H0.148277C0.130023 21.0702 0.113411 21.2249 0.0984421 21.3801H7.24924C7.21839 21.3225 7.18763 21.2651 7.15706 21.2081C7.10503 21.1113 7.05319 21.0138 7.00135 20.916Z" fill="white"/>
<path d="M29.1652 23.2201C29.1707 23.3443 29.1646 23.4576 29.1596 23.5487C29.1593 23.5552 29.1589 23.5623 29.1585 23.5693H42.2439C42.2442 23.5237 42.2448 23.4782 42.2448 23.4325C42.2448 23.3232 42.2437 23.2142 42.242 23.1053H29.1637C29.1634 23.1463 29.1637 23.1852 29.1652 23.2201Z" fill="white"/>
<path d="M0.00273805 23.1053C0.00109515 23.2142 0 23.3232 0 23.4325C0 23.4781 0.000547878 23.5237 0.000821694 23.5693H8.33077C8.26441 23.4131 8.19568 23.2585 8.12504 23.1053H0.00273805Z" fill="white"/>
<path d="M29.1399 25.7586H42.118C42.1348 25.6044 42.1503 25.4498 42.1638 25.2946H29.2001C29.1687 25.4109 29.1299 25.5263 29.0832 25.6406C29.1034 25.6799 29.1219 25.7193 29.1399 25.7586Z" fill="white"/>
<path d="M0.0813217 25.2946C0.0949213 25.4498 0.110255 25.6044 0.12714 25.7586H9.01622C8.98728 25.6028 8.95415 25.4481 8.91673 25.2946H0.0813217Z" fill="white"/>
<path d="M0.387776 27.4836C0.417896 27.6389 0.449476 27.7936 0.482973 27.9477H9.24035C9.22592 27.7935 9.21169 27.6389 9.19781 27.4836H0.387776Z" fill="white"/>
<path d="M29.3246 27.7731C29.3036 27.8312 29.2829 27.8895 29.2621 27.9477H41.7616C41.7951 27.7936 41.8266 27.6389 41.8568 27.4836H29.4307L29.4244 27.5007C29.3909 27.5915 29.3574 27.6823 29.3246 27.7731Z" fill="white"/>
<path d="M27.9884 30.1369H41.1589C41.2104 29.983 41.2601 29.8284 41.3082 29.6729H28.5537C28.538 29.6903 28.5219 29.7073 28.505 29.7237C28.3469 29.876 28.1738 30.014 27.9884 30.1369Z" fill="white"/>
<path d="M0.936484 29.6729C0.984493 29.8284 1.03424 29.983 1.08571 30.1369H8.48103C8.496 29.9783 8.5169 29.8239 8.54036 29.6729H0.936484Z" fill="white"/>
<path d="M6.78986 31.8622H1.74799C1.8158 32.0178 1.88535 32.1725 1.95673 32.3262H6.3419C6.37037 32.2949 6.3983 32.2635 6.42732 32.2322C6.5458 32.1048 6.66701 31.9818 6.78986 31.8622Z" fill="white"/>
<path d="M40.2876 32.3262C40.359 32.1725 40.4286 32.0178 40.4963 31.8622H24.5112C24.5758 32.0054 24.6154 32.1619 24.6283 32.3262H40.2876Z" fill="white"/>
<path d="M39.1089 34.5155C39.2035 34.3621 39.2963 34.2074 39.3871 34.0514H27.3917C27.6688 34.2005 27.9428 34.3558 28.2141 34.5155H39.1089Z" fill="white"/>
<path d="M4.59658 34.1885C4.65554 34.1448 4.71295 34.0988 4.76954 34.0514H2.85739C2.9482 34.2074 3.04094 34.3621 3.13558 34.5155H4.20548C4.33654 34.3808 4.47108 34.2813 4.57193 34.2068L4.59658 34.1885Z" fill="white"/>
<path d="M37.5593 36.7045C37.6829 36.5516 37.8043 36.3969 37.9236 36.2405H30.7636C30.9608 36.3929 31.1556 36.5472 31.3467 36.7045H37.5593Z" fill="white"/>
<path d="M35.52 38.8938C35.6831 38.7417 35.8436 38.5869 36.0019 38.4298H33.2238C33.3729 38.5828 33.5204 38.7371 33.6646 38.8938H35.52Z" fill="white"/>
<path d="M6.24294 38.4298C6.40111 38.5869 6.56166 38.7417 6.72486 38.8938H7.85918C7.58729 38.7402 7.31657 38.5849 7.05179 38.4298H6.24294Z" fill="white"/>
<path d="M11.0401 40.619H8.83154C9.05306 40.7779 9.27768 40.9327 9.50549 41.0831H11.8915L11.7919 41.0251C11.6707 40.9547 11.3958 40.8078 11.0401 40.619Z" fill="white"/>
<path d="M12.6811 42.8083C13.0605 42.9739 13.4456 43.1287 13.8362 43.2723H15.6579L14.8595 42.8083H12.6811Z" fill="white"/>
<path d="M59.5762 25.1671C58.1872 25.1671 56.9353 24.8504 55.8206 24.217C54.7231 23.5664 53.8485 22.6078 53.1969 21.3409C52.5624 20.057 52.2451 18.4478 52.2451 16.5133C52.2451 15.0924 52.4252 13.8341 52.7853 12.7385C53.1626 11.6257 53.7028 10.6842 54.4059 9.91382C55.1261 9.12633 56.0093 8.52716 57.0554 8.11629C58.1014 7.70543 59.3104 7.5 60.6823 7.5C61.7112 7.5 62.6459 7.61983 63.4861 7.8595C64.3264 8.09917 65.0553 8.44156 65.6726 8.88666C66.29 9.33176 66.7701 9.87102 67.1131 10.5044C67.4732 11.1207 67.6704 11.8226 67.7047 12.6101L64.2064 13.6886C64.1721 12.9696 63.9835 12.379 63.6405 11.9168C63.3147 11.4546 62.8774 11.1122 62.3286 10.8896C61.797 10.6499 61.1968 10.5301 60.528 10.5301C59.6019 10.5301 58.8045 10.7441 58.1357 11.1721C57.4841 11.5829 56.9868 12.2249 56.6438 13.098C56.3008 13.954 56.1293 15.041 56.1293 16.3592C56.1293 17.3693 56.2236 18.2423 56.4123 18.9785C56.6181 19.6975 56.9182 20.2967 57.3126 20.776C57.707 21.2553 58.1786 21.6148 58.7274 21.8545C59.2761 22.0771 59.9106 22.1883 60.6309 22.1883C61.3854 22.1883 62.0371 22.0685 62.5858 21.8288C63.1517 21.572 63.5976 21.1869 63.9234 20.6733C64.2664 20.1426 64.4551 19.4749 64.4893 18.6703H61.274V15.9997H68.142V24.8076H65.5697L65.6212 20.4678H65.1582C64.8838 21.495 64.5151 22.3595 64.0521 23.0614C63.589 23.7462 62.9888 24.2683 62.2514 24.6278C61.5312 24.9873 60.6394 25.1671 59.5762 25.1671Z" fill="white"/>
<path d="M71.4012 24.8076V7.8595H75.1311V24.8076H71.4012ZM73.9736 24.8076V21.8032H84.4943V24.8076H73.9736ZM73.9736 17.6175V14.8698H83.2082V17.6175H73.9736ZM73.9736 10.8383V7.8595H84.4429V10.8383H73.9736Z" fill="white"/>
<path d="M87.3778 24.8076V7.8595H92.2137L99.9049 19.8516H100.188L99.9564 7.8595H103.558V24.8076H99.1847L91.0562 12.2506H90.7732L91.0047 24.8076H87.3778Z" fill="white"/>
<path d="M109.098 24.8076V21.8032H114.037C114.997 21.8032 115.795 21.5977 116.429 21.1869C117.064 20.7589 117.544 20.1426 117.87 19.338C118.196 18.5334 118.359 17.549 118.359 16.3849C118.359 15.4262 118.256 14.6045 118.05 13.9197C117.844 13.2178 117.535 12.6443 117.124 12.1992C116.729 11.7541 116.223 11.4203 115.606 11.1978C115.006 10.9752 114.294 10.8639 113.471 10.8639H109.098V7.8595H113.342C115.4 7.8595 117.081 8.19333 118.384 8.86098C119.688 9.52863 120.648 10.4873 121.265 11.737C121.883 12.9696 122.191 14.4504 122.191 16.1795C122.191 17.4805 122.037 18.6104 121.728 19.5691C121.42 20.5278 120.999 21.3409 120.468 22.0086C119.953 22.6762 119.353 23.2155 118.667 23.6264C117.981 24.0372 117.252 24.3368 116.481 24.5251C115.709 24.7134 114.929 24.8076 114.14 24.8076H109.098ZM107.323 24.8076V7.8595H111.027V24.8076H107.323Z" fill="white"/>
<path d="M123.216 24.8076L129.03 7.8595H134.432L140.245 24.8076H136.232L131.937 10.7869H131.551L127.229 24.8076H123.216ZM126.483 21.4693V18.9528H137.518V21.4693H126.483Z" fill="white"/>
<path d="M73.3024 37.3777V31.1634H74.4908V37.3777H73.3024ZM69.209 37.3777V31.1634H70.3974V37.3777H69.209ZM69.8786 34.7131V33.7339H73.774V34.7131H69.8786Z" fill="white"/>
<path d="M75.4323 37.3777L77.5828 31.1634H79.3276L81.4781 37.3777H80.1765L78.5259 32.1144H78.3939L76.7245 37.3777H75.4323ZM76.5736 36.0972V35.2592H80.4972V36.0972H76.5736Z" fill="white"/>
<path d="M82.408 37.3777V31.1634H83.6153V37.3777H82.408Z" fill="white"/>
<path d="M85.0884 37.3777V31.1634H87.4935C87.8204 31.1634 88.1191 31.1917 88.3895 31.2482C88.6662 31.2984 88.9083 31.3737 89.1158 31.4741C89.3295 31.5746 89.5087 31.7001 89.6534 31.8508C89.798 31.9951 89.908 32.1646 89.9835 32.3592C90.0589 32.5475 90.0967 32.7578 90.0967 32.99C90.0967 33.2097 90.0621 33.4106 89.9929 33.5926C89.9237 33.7684 89.82 33.9222 89.6817 34.054C89.5496 34.1858 89.3798 34.2957 89.1723 34.3836C88.9711 34.4652 88.7353 34.5248 88.465 34.5625V34.6849C88.7542 34.7225 88.99 34.7947 89.1723 34.9014C89.361 35.0081 89.5119 35.1556 89.6251 35.3439C89.7383 35.5323 89.8357 35.7739 89.9175 36.0689L90.2947 37.3777H88.9837L88.6913 36.1725C88.6347 35.9214 88.5467 35.7206 88.4272 35.5699C88.314 35.4193 88.1694 35.3126 87.9934 35.2498C87.8173 35.187 87.6035 35.1556 87.352 35.1556H86.2768V37.3777H85.0884ZM86.2768 34.2423H87.4086C87.8802 34.2423 88.2386 34.1544 88.4838 33.9787C88.7353 33.8029 88.8611 33.533 88.8611 33.1689C88.8611 32.8049 88.7416 32.535 88.5027 32.3592C88.27 32.1834 87.9116 32.0956 87.4275 32.0956H86.2768V34.2423Z" fill="white"/>
<path d="M95.9654 37.5001C95.5567 37.5001 95.192 37.4593 94.8713 37.3777C94.5506 37.3024 94.2771 37.1831 94.0507 37.0199C93.8307 36.8504 93.6609 36.6464 93.5414 36.4079C93.4219 36.1631 93.3591 35.8775 93.3528 35.5511L94.4091 35.2404C94.4029 35.5417 94.4657 35.7928 94.5978 35.9936C94.7298 36.1882 94.9185 36.3326 95.1637 36.4267C95.4152 36.5209 95.7013 36.568 96.022 36.568C96.3301 36.568 96.5879 36.5303 96.7954 36.455C97.0092 36.3797 97.1695 36.2792 97.2764 36.1537C97.3833 36.0219 97.4368 35.8744 97.4368 35.7112C97.4368 35.5291 97.3707 35.3847 97.2387 35.278C97.1067 35.165 96.9274 35.074 96.7011 35.005C96.481 34.9297 96.2295 34.8606 95.9465 34.7978C95.6384 34.7288 95.3366 34.6535 95.0411 34.5719C94.7518 34.4903 94.4877 34.3804 94.2488 34.2423C94.0099 34.1042 93.8181 33.9285 93.6735 33.715C93.5351 33.4953 93.466 33.2192 93.466 32.8865C93.466 32.5098 93.5603 32.1866 93.7489 31.9167C93.9376 31.6405 94.2111 31.4271 94.5695 31.2764C94.9342 31.1195 95.368 31.041 95.8711 31.041C96.3678 31.041 96.8017 31.1163 97.1727 31.267C97.5437 31.4114 97.8329 31.6248 98.0404 31.9073C98.2479 32.1897 98.3579 32.5224 98.3705 32.9053L97.2859 33.2066C97.2859 32.9995 97.2513 32.8206 97.1821 32.6699C97.1192 32.513 97.0249 32.3843 96.8991 32.2839C96.7734 32.1772 96.6225 32.0987 96.4464 32.0485C96.2766 31.9983 96.0817 31.9732 95.8616 31.9732C95.6038 31.9732 95.3775 32.0077 95.1826 32.0767C94.9939 32.1458 94.8493 32.2431 94.7487 32.3686C94.6481 32.4879 94.5978 32.6291 94.5978 32.7923C94.5978 32.9932 94.6732 33.1532 94.8241 33.2725C94.9751 33.3918 95.1731 33.4891 95.4184 33.5644C95.6699 33.6334 95.9434 33.7025 96.2389 33.7715C96.5093 33.828 96.7797 33.8971 97.0501 33.9787C97.3267 34.0603 97.5814 34.167 97.814 34.2988C98.0467 34.4306 98.2322 34.6095 98.3705 34.8355C98.5151 35.0552 98.5874 35.3345 98.5874 35.6735C98.5874 36.0376 98.49 36.3577 98.2951 36.6339C98.1001 36.9101 97.8077 37.1235 97.4179 37.2741C97.0281 37.4248 96.5439 37.5001 95.9654 37.5001Z" fill="white"/>
<path d="M99.1777 37.3777L101.328 31.1634H103.073L105.223 37.3777H103.922L102.271 32.1144H102.139L100.47 37.3777H99.1777ZM100.319 36.0972V35.2592H104.243V36.0972H100.319Z" fill="white"/>
<path d="M106.153 37.3777V31.1634H107.342V37.3777H106.153ZM106.427 37.3777V36.3608H110.068V37.3777H106.427Z" fill="white"/>
<path d="M113.437 37.5001C112.984 37.5001 112.581 37.4279 112.229 37.2836C111.877 37.1392 111.575 36.932 111.324 36.6621C111.079 36.3859 110.89 36.0501 110.758 35.6547C110.626 35.2592 110.56 34.8073 110.56 34.2988C110.56 33.5644 110.686 32.9587 110.937 32.4816C111.189 31.9983 111.534 31.6373 111.975 31.3988C112.415 31.1603 112.915 31.041 113.474 31.041C113.908 31.041 114.301 31.1132 114.653 31.2576C115.005 31.3957 115.304 31.6028 115.549 31.879C115.801 32.1489 115.996 32.4879 116.134 32.8959C116.272 33.2976 116.342 33.759 116.342 34.28C116.342 34.801 116.272 35.2623 116.134 35.6641C116.002 36.0595 115.81 36.3954 115.559 36.6715C115.307 36.9415 115.002 37.1486 114.644 37.293C114.292 37.4311 113.889 37.5001 113.437 37.5001ZM113.465 36.5397C113.823 36.5397 114.122 36.455 114.361 36.2855C114.606 36.1097 114.792 35.8587 114.917 35.5323C115.049 35.2058 115.115 34.8073 115.115 34.3365C115.115 33.8531 115.049 33.4389 114.917 33.0936C114.785 32.7484 114.594 32.4879 114.342 32.3121C114.097 32.1301 113.795 32.0391 113.437 32.0391C113.097 32.0391 112.801 32.1269 112.55 32.3027C112.305 32.4722 112.116 32.7264 111.984 33.0654C111.852 33.3981 111.786 33.8061 111.786 34.2894C111.786 34.6535 111.824 34.9767 111.899 35.2592C111.975 35.5354 112.082 35.7676 112.22 35.956C112.364 36.1443 112.541 36.2886 112.748 36.3891C112.962 36.4895 113.201 36.5397 113.465 36.5397Z" fill="white"/>
<path d="M117.575 37.3777V31.1634H119.131L122.111 35.7865H122.196L122.121 31.1634H123.281V37.3777H121.866L118.754 32.5758H118.659L118.735 37.3777H117.575Z" fill="white"/>
</svg>
