<svg width="170" height="49" viewBox="0 0 170 49" fill="none" xmlns="http://www.w3.org/2000/svg">
<g clip-path="url(#clip0_263_41360)">
<path d="M32.3137 5.81651C32.3137 8.19965 30.3836 10.133 27.9996 10.133C25.6156 10.133 23.6855 8.19965 23.6855 5.81651C23.6855 3.43337 25.6156 1.5 27.9996 1.5C30.3836 1.5 32.3137 3.43113 32.3137 5.81651Z" fill="#8025BD"/>
<path d="M55.4698 17.121C54.2733 17.0225 51.2743 16.7428 46.9222 17.8997C46.3721 13.4087 45.1353 9.91786 43.6056 6.19434C37.5114 8.33357 32.0455 11.9027 27.9976 15.897C23.9519 11.9049 18.4861 8.33357 12.3896 6.19434C10.8577 9.91786 9.62319 13.4087 9.07302 17.8997C4.3989 16.6735 1.72414 17.0225 0.525422 17.121C-0.762757 23.8945 0.221269 31.5921 4.3497 37.2244C10.1957 45.1951 19.4679 45.8037 24.2539 46.4997C22.2478 44.5529 17.6967 39.4375 16.7305 38.1754C16.7283 38.1732 16.7126 38.1553 16.7126 38.1553C12.4209 32.5499 11.0702 26.6826 11.3832 19.8353C11.4481 18.4278 11.7031 17.0069 11.9088 15.9663H11.9133C12.3382 13.751 12.9778 11.5558 13.7963 9.39871C16.0999 10.3855 21.5567 13.0394 26.3114 17.7498C24.5401 19.7637 23.0641 21.9141 21.9056 24.1697C21.9056 24.1697 18.5577 21.1511 13.3088 19.3072C13.2171 20.1844 13.188 21.1108 13.2149 21.988C20.8724 25.3087 25.9938 31.0618 27.9574 34.3803C29.5967 32.2366 30.6813 30.5539 33.1548 28.2602C33.611 29.5044 33.9733 30.7843 34.235 32.0822C33.4701 33.3085 30.9676 37.1304 27.9954 39.5941C25.0232 37.1304 22.5229 33.3085 21.7558 32.0822C21.8922 31.4087 22.0107 30.8045 22.1986 30.1444C21.6104 29.5603 20.8724 28.936 20.1299 28.3497C19.6379 29.84 19.3807 31.1289 19.119 32.5499C22.1024 38.0031 25.4034 40.6951 27.9529 42.7582C30.65 40.6123 34.3916 37.4639 36.865 32.5499C35.7289 26.0852 31.9248 20.5268 30.8535 19.1662C30.243 19.7592 29.6257 20.3925 29.1024 20.9967C30.2877 22.5384 31.2941 24.1496 32.1104 25.8211C30.5941 27.1548 29.2321 28.5936 27.9909 30.1712C26.7497 28.5936 25.39 27.1548 23.8714 25.8211C25.8507 21.7597 29.3976 17.7341 31.0794 16.4295C35.4606 12.536 40.1101 10.2871 42.1877 9.39647C43.3842 12.5494 44.1513 15.6463 44.4756 18.6314C41.1388 19.7749 38.18 21.3099 35.4293 23.2277C35.8385 23.9213 36.2209 24.7314 36.5475 25.5079C39.0008 23.758 42.6283 21.8022 45.8532 20.8177C48.8008 19.9181 51.9251 19.4974 53.3117 19.4974C53.6114 22.1625 53.9893 29.7707 49.6149 35.7386C47.1168 39.1444 43.4513 41.4984 38.681 42.7694C42.2123 39.1354 47.0564 32.3239 47.157 22.2587C46.3139 22.4982 45.4261 22.7756 44.6366 23.0733C44.4018 29.6386 42.0714 34.4944 39.2692 38.1531C39.0791 38.3679 34.7762 43.5414 31.728 46.4974C36.5139 45.8015 45.7861 45.1928 51.6321 37.2222C55.7606 31.5899 56.7446 23.8945 55.4564 17.1188L55.4698 17.121ZM17.3053 42.7717C12.535 41.5007 8.86951 39.1466 6.37143 35.7408C1.99699 29.7751 2.37494 22.1647 2.67462 19.4997H2.7283C4.54427 19.4997 6.64651 19.8196 8.86057 20.435C8.34619 31.5049 13.5638 38.9206 17.3053 42.7694V42.7717Z" fill="#F64C96"/>
</g>
<path d="M76.8179 27.0127C75.576 27.0127 74.3683 26.8019 73.1948 26.3804C72.0213 25.9474 70.9618 25.298 70.0161 24.4321C69.0819 23.5662 68.3356 22.4782 67.7773 21.168C67.2191 19.8464 66.9399 18.3083 66.9399 16.5537C66.9399 14.0244 67.4583 11.8597 68.4951 10.0596C69.5433 8.24805 70.9674 6.86377 72.7676 5.90674C74.5677 4.93831 76.5957 4.4541 78.8516 4.4541C79.3529 4.4541 79.9681 4.52246 80.6973 4.65918C81.4264 4.7959 82.1556 4.99528 82.8848 5.25732C83.6139 5.50798 84.2235 5.82129 84.7134 6.19727C84.7931 6.25423 84.7703 6.44222 84.645 6.76123C84.5197 7.08024 84.3431 7.44482 84.1152 7.85498C83.8874 8.26514 83.6481 8.64681 83.3975 9C83.1582 9.35319 82.9645 9.59814 82.8164 9.73486L81.7397 9.49561C80.9878 8.39046 80.2131 7.63281 79.4155 7.22266C78.618 6.80111 77.7236 6.59033 76.7324 6.59033C76.3109 6.59033 75.7925 6.73275 75.1772 7.01758C74.562 7.29102 73.9525 7.76383 73.3486 8.43604C72.7562 9.10824 72.2606 10.0311 71.8618 11.2046C71.4631 12.3667 71.2637 13.8364 71.2637 15.6138C71.2637 17.6418 71.5656 19.2995 72.1694 20.5869C72.7733 21.863 73.5537 22.8029 74.5107 23.4067C75.4678 24.0106 76.4818 24.3125 77.5527 24.3125C78.1794 24.3125 78.7376 24.2555 79.2275 24.1416C79.7288 24.0277 80.1789 23.8739 80.5776 23.6802V18.4678C80.5776 18.2969 80.5264 18.1374 80.4238 17.9893C80.3213 17.8298 80.0763 17.6759 79.689 17.5278C79.3016 17.3683 78.6807 17.2145 77.8262 17.0664V15.8188H86.3369V17.0664C85.6875 17.2145 85.2489 17.4196 85.021 17.6816C84.7931 17.9437 84.6792 18.2057 84.6792 18.4678V23.6118C82.993 24.9904 81.5176 25.9019 80.2529 26.3462C78.9997 26.7905 77.8547 27.0127 76.8179 27.0127ZM95.2578 27.0127C93.9704 27.0127 92.7855 26.6766 91.7031 26.0044C90.6322 25.3322 89.772 24.3923 89.1226 23.1846C88.4845 21.9655 88.1655 20.5527 88.1655 18.9463C88.1655 15.8245 89.339 13.4092 91.686 11.7002C92.2899 11.2559 93.0076 10.8799 93.8394 10.5723C94.6825 10.2533 95.5369 10.0938 96.4028 10.0938C97.8953 10.0938 99.1201 10.4242 100.077 11.085C101.034 11.7344 101.741 12.5946 102.196 13.6655C102.652 14.7251 102.88 15.8701 102.88 17.1006C102.675 17.3285 102.316 17.5848 101.803 17.8696C101.291 18.1431 100.852 18.3538 100.487 18.502H92.4038C92.4608 20.1426 92.8538 21.4927 93.583 22.5522C94.3236 23.6118 95.3604 24.1416 96.6934 24.1416C97.1719 24.1416 97.639 24.096 98.0947 24.0049C98.5505 23.9137 99.0745 23.7257 99.667 23.4409C100.259 23.1447 101 22.689 101.889 22.0737C102.037 22.1535 102.208 22.3358 102.401 22.6206C102.606 22.894 102.732 23.0763 102.777 23.1675C101.729 24.2384 100.812 25.0474 100.026 25.5942C99.2397 26.1411 98.4764 26.5114 97.7358 26.7051C96.9953 26.9102 96.1693 27.0127 95.2578 27.0127ZM92.4551 16.5879H98.146C98.408 16.5879 98.5789 16.548 98.6587 16.4683C98.7498 16.3771 98.7954 16.2119 98.7954 15.9727C98.7954 15.5169 98.7043 14.9928 98.522 14.4004C98.3511 13.7965 98.0492 13.2725 97.6162 12.8281C97.1833 12.3724 96.5737 12.1445 95.7876 12.1445C94.728 12.1445 93.9362 12.5433 93.4121 13.3408C92.8994 14.1383 92.5804 15.2207 92.4551 16.5879ZM104.828 26.5V25.2524C106.332 24.8537 107.084 24.5062 107.084 24.21V14.7251C107.084 14.1326 107.056 13.694 106.999 13.4092C106.942 13.1243 106.759 12.925 106.452 12.811C106.144 12.6971 105.603 12.6003 104.828 12.5205V11.3242C105.91 11.1989 106.868 11.0451 107.699 10.8628C108.542 10.6691 109.38 10.4128 110.211 10.0938L110.929 10.8115L111.117 13.2725C112.439 12.1331 113.681 11.3185 114.843 10.8286C116.005 10.3387 117.03 10.0938 117.919 10.0938C118.899 10.0938 119.77 10.4242 120.534 11.085C121.308 11.7458 121.696 12.8737 121.696 14.4688V24.21C121.696 24.3581 121.85 24.5119 122.157 24.6714C122.465 24.8309 123.069 25.0246 123.969 25.2524V26.5H115.338V25.2524C116.159 25.036 116.74 24.848 117.082 24.6885C117.423 24.5176 117.594 24.3581 117.594 24.21V16.4512C117.594 15.1979 117.463 14.3434 117.201 13.8877C116.939 13.432 116.472 13.2041 115.8 13.2041C115.253 13.2041 114.621 13.3636 113.903 13.6826C113.196 14.0016 112.291 14.634 111.186 15.5796V24.21C111.186 24.5859 111.943 24.9334 113.458 25.2524V26.5H104.828ZM131.71 27.0127C130.696 27.0127 129.711 26.6937 128.754 26.0557C127.797 25.4062 127.005 24.4777 126.378 23.27C125.763 22.0509 125.456 20.5983 125.456 18.9121C125.456 17.3854 125.809 15.9499 126.515 14.6055C127.222 13.2611 128.196 12.173 129.438 11.3413C130.691 10.5096 132.132 10.0938 133.761 10.0938C134.297 10.0938 134.826 10.1564 135.351 10.2817C135.886 10.4071 136.461 10.6805 137.077 11.1021V5.24023C137.077 4.39714 137.048 3.7819 136.991 3.39453C136.934 2.99577 136.746 2.72803 136.427 2.59131C136.108 2.45459 135.544 2.35775 134.735 2.30078V1.12158C135.989 0.996257 137.117 0.825358 138.119 0.608887C139.133 0.392415 139.936 0.193034 140.529 0.0107422L141.178 0.643066V21.3901C141.178 22.1877 141.207 22.7459 141.264 23.0649C141.332 23.3726 141.435 23.5719 141.571 23.6631C141.697 23.7428 141.873 23.7713 142.101 23.7485C142.329 23.7144 142.75 23.5662 143.366 23.3042L143.844 24.5518C143.149 25.0189 142.449 25.4404 141.742 25.8164C141.047 26.181 140.432 26.4715 139.896 26.688C139.361 26.9045 138.985 27.0127 138.769 27.0127C137.948 27.0127 137.424 26.0158 137.196 24.022C136.16 25.0929 135.248 25.862 134.462 26.3291C133.687 26.7848 132.77 27.0127 131.71 27.0127ZM133.437 23.7656C134.075 23.7656 134.673 23.6118 135.231 23.3042C135.789 22.9852 136.404 22.5181 137.077 21.9028V14.4346C136.667 13.7738 136.154 13.2611 135.539 12.8965C134.935 12.5319 134.251 12.3496 133.488 12.3496C132.36 12.3496 131.42 12.7996 130.668 13.6997C129.927 14.5884 129.557 16.0182 129.557 17.9893C129.557 19.1969 129.751 20.2337 130.138 21.0996C130.526 21.9541 131.015 22.6149 131.608 23.082C132.2 23.5378 132.81 23.7656 133.437 23.7656ZM148.971 27.0127C148.345 27.0127 147.729 26.8646 147.125 26.5684C146.533 26.2835 146.043 25.8506 145.656 25.2695C145.268 24.6771 145.075 23.9422 145.075 23.0649C145.075 22.2902 145.211 21.6351 145.485 21.0996C145.77 20.5527 146.123 20.0685 146.544 19.647C146.909 19.2824 147.365 18.9349 147.912 18.6045C148.47 18.2741 149.267 17.9551 150.304 17.6475C151.341 17.3398 152.777 17.0493 154.611 16.7759V14.7593C154.611 14.0529 154.457 13.4661 154.149 12.999C153.842 12.5319 153.255 12.304 152.389 12.3154C151.842 12.3154 151.33 12.5091 150.851 12.8965C150.373 13.2839 150.167 13.8193 150.236 14.5029C150.247 14.6055 150.054 14.7422 149.655 14.9131C149.267 15.0726 148.795 15.2321 148.236 15.3916C147.689 15.5511 147.177 15.6821 146.698 15.7847C146.231 15.8758 145.929 15.9043 145.792 15.8701L145.434 14.9473C145.798 14.0358 146.431 13.2155 147.331 12.4863C148.231 11.7572 149.279 11.1761 150.475 10.7432C151.671 10.3102 152.902 10.0938 154.167 10.0938C155.727 10.0938 156.872 10.4868 157.602 11.2729C158.342 12.0477 158.712 13.0218 158.712 14.1953V22.4326C158.712 23.3213 158.94 23.7656 159.396 23.7656C159.556 23.7656 159.738 23.7371 159.943 23.6802C160.159 23.6118 160.495 23.4865 160.951 23.3042L161.327 24.5859C160.689 25.0303 160.028 25.4347 159.345 25.7993C158.661 26.1639 158.04 26.4544 157.482 26.6709C156.924 26.8988 156.502 27.0127 156.217 27.0127C155.796 27.0127 155.437 26.7734 155.141 26.2949C154.856 25.805 154.685 25.1385 154.628 24.2954C153.603 25.3322 152.589 26.0443 151.586 26.4316C150.583 26.819 149.712 27.0127 148.971 27.0127ZM151.005 24.022C151.438 24.022 151.933 23.908 152.492 23.6802C153.05 23.4409 153.756 22.9567 154.611 22.2275V18.4507C153.244 18.6672 152.275 18.8893 151.706 19.1172C151.136 19.3337 150.703 19.59 150.407 19.8862C150.111 20.1825 149.871 20.5015 149.689 20.8433C149.507 21.1851 149.416 21.5952 149.416 22.0737C149.416 22.8485 149.604 23.3669 149.979 23.6289C150.367 23.891 150.709 24.022 151.005 24.022Z" fill="#2E004D"/>
<path d="M67.26 44.5V32.908H68.736V43.348H74.91V44.5H67.26ZM79.723 44.68C78.703 44.68 77.929 44.398 77.401 43.834C76.885 43.27 76.627 42.448 76.627 41.368V35.968H78.103V41.422C78.103 42.13 78.277 42.652 78.625 42.988C78.985 43.324 79.537 43.492 80.281 43.492C80.809 43.492 81.307 43.396 81.775 43.204C82.243 43.012 82.645 42.748 82.981 42.412V35.968H84.457V44.5H83.125L83.035 43.528C82.627 43.864 82.141 44.14 81.577 44.356C81.013 44.572 80.395 44.68 79.723 44.68ZM85.8098 44.5L89.0498 40.162L85.9178 35.968H87.5198L89.8418 39.154L92.1818 35.968H93.7658L90.6698 40.162L93.8918 44.5H92.2898L89.8418 41.17L87.4118 44.5H85.8098ZM98.2504 44.68C97.2304 44.68 96.4564 44.398 95.9284 43.834C95.4124 43.27 95.1544 42.448 95.1544 41.368V35.968H96.6304V41.422C96.6304 42.13 96.8044 42.652 97.1524 42.988C97.5124 43.324 98.0644 43.492 98.8084 43.492C99.3364 43.492 99.8344 43.396 100.302 43.204C100.77 43.012 101.172 42.748 101.508 42.412V35.968H102.984V44.5H101.652L101.562 43.528C101.154 43.864 100.668 44.14 100.104 44.356C99.5404 44.572 98.9224 44.68 98.2504 44.68ZM105.51 44.5V35.968H106.842L106.95 37.048C107.37 36.772 107.862 36.52 108.426 36.292C109.002 36.064 109.566 35.896 110.118 35.788V36.94C109.782 37.012 109.416 37.114 109.02 37.246C108.624 37.366 108.246 37.504 107.886 37.66C107.526 37.816 107.226 37.978 106.986 38.146V44.5H105.51ZM112.702 47.668C112.138 47.668 111.646 47.59 111.226 47.434V46.246C111.43 46.318 111.616 46.366 111.784 46.39C111.964 46.414 112.144 46.426 112.324 46.426C112.732 46.426 113.05 46.354 113.278 46.21C113.518 46.066 113.728 45.844 113.908 45.544C114.088 45.256 114.286 44.878 114.502 44.41L110.74 35.968H112.27L115.24 42.844L118.3 35.968H119.812L116.23 44.122C115.93 44.806 115.624 45.412 115.312 45.94C115 46.48 114.64 46.9 114.232 47.2C113.824 47.512 113.314 47.668 112.702 47.668ZM129.162 44.68C127.722 44.68 126.558 44.5 125.67 44.14V42.826C126.174 43.018 126.708 43.168 127.272 43.276C127.848 43.372 128.436 43.42 129.036 43.42C130.068 43.42 130.842 43.282 131.358 43.006C131.874 42.718 132.132 42.208 132.132 41.476C132.132 41.02 132.024 40.66 131.808 40.396C131.604 40.12 131.262 39.892 130.782 39.712C130.302 39.52 129.66 39.328 128.856 39.136C127.584 38.824 126.69 38.422 126.174 37.93C125.658 37.426 125.4 36.754 125.4 35.914C125.4 34.93 125.754 34.156 126.462 33.592C127.17 33.016 128.25 32.728 129.702 32.728C130.374 32.728 130.998 32.776 131.574 32.872C132.15 32.968 132.594 33.07 132.906 33.178V34.474C132.474 34.318 132.006 34.198 131.502 34.114C130.998 34.03 130.476 33.988 129.936 33.988C128.952 33.988 128.196 34.132 127.668 34.42C127.14 34.708 126.876 35.206 126.876 35.914C126.876 36.31 126.966 36.634 127.146 36.886C127.338 37.126 127.656 37.336 128.1 37.516C128.544 37.684 129.162 37.864 129.954 38.056C130.902 38.284 131.64 38.56 132.168 38.884C132.696 39.196 133.068 39.568 133.284 40C133.5 40.432 133.608 40.924 133.608 41.476C133.608 42.496 133.236 43.288 132.492 43.852C131.748 44.404 130.638 44.68 129.162 44.68ZM135.762 48.388V35.968H137.022L137.13 36.868C137.526 36.496 137.958 36.226 138.426 36.058C138.906 35.878 139.464 35.788 140.1 35.788C141.3 35.788 142.242 36.124 142.926 36.796C143.61 37.456 143.952 38.56 143.952 40.108C143.952 41.644 143.61 42.79 142.926 43.546C142.242 44.302 141.294 44.68 140.082 44.68C138.966 44.68 138.018 44.41 137.238 43.87V48.388H135.762ZM139.686 43.492C140.646 43.492 141.348 43.222 141.792 42.682C142.248 42.13 142.476 41.272 142.476 40.108C142.476 38.992 142.266 38.194 141.846 37.714C141.426 37.222 140.718 36.976 139.722 36.976C139.23 36.976 138.774 37.06 138.354 37.228C137.934 37.396 137.562 37.654 137.238 38.002V42.646C137.538 42.91 137.892 43.12 138.3 43.276C138.708 43.42 139.17 43.492 139.686 43.492ZM148.674 44.68C148.134 44.68 147.636 44.584 147.18 44.392C146.724 44.2 146.358 43.918 146.082 43.546C145.806 43.162 145.668 42.682 145.668 42.106C145.668 41.326 145.926 40.69 146.442 40.198C146.958 39.694 147.798 39.442 148.962 39.442H151.932V38.92C151.932 38.452 151.866 38.08 151.734 37.804C151.614 37.528 151.38 37.33 151.032 37.21C150.684 37.09 150.174 37.03 149.502 37.03C148.986 37.03 148.488 37.072 148.008 37.156C147.528 37.24 147.078 37.354 146.658 37.498V36.274C147.042 36.13 147.492 36.016 148.008 35.932C148.536 35.836 149.1 35.788 149.7 35.788C150.912 35.788 151.818 36.034 152.418 36.526C153.03 37.018 153.336 37.816 153.336 38.92V44.5H152.094L151.986 43.528C151.614 43.912 151.164 44.2 150.636 44.392C150.108 44.584 149.454 44.68 148.674 44.68ZM149.052 43.474C149.676 43.474 150.228 43.366 150.708 43.15C151.188 42.922 151.596 42.616 151.932 42.232V40.576H148.998C148.326 40.576 147.846 40.702 147.558 40.954C147.27 41.206 147.126 41.59 147.126 42.106C147.126 42.622 147.3 42.982 147.648 43.186C147.996 43.378 148.464 43.474 149.052 43.474Z" fill="#F64C96"/>
<defs>
<clipPath id="clip0_263_41360">
<rect width="56" height="45" fill="white" transform="translate(0 1.5)"/>
</clipPath>
</defs>
</svg>
