<svg width="180" height="54" viewBox="0 0 180 54" fill="none" xmlns="http://www.w3.org/2000/svg">
<path d="M36.074 6.7031C36.074 9.36322 33.9197 11.5213 31.2586 11.5213C28.5974 11.5213 26.4431 9.36322 26.4431 6.7031C26.4431 4.04297 28.5974 1.88489 31.2586 1.88489C33.9197 1.88489 36.074 4.04047 36.074 6.7031Z" fill="#8025BD"/>
<path d="M61.9213 19.3218C60.5857 19.2119 57.2381 18.8997 52.3802 20.1911C51.7661 15.178 50.3856 11.2815 48.6781 7.12522C41.8756 9.51309 35.7745 13.497 31.2561 17.9556C26.7402 13.4995 20.6391 9.51309 13.834 7.12522C12.124 11.2815 10.746 15.178 10.1319 20.1911C4.91454 18.8223 1.9289 19.2119 0.59085 19.3218C-0.84705 26.8826 0.251347 35.4749 4.85962 41.7618C11.3851 50.6589 21.735 51.3383 27.0772 52.1151C24.8379 49.942 19.7579 44.2321 18.6794 42.8234C18.6769 42.8209 18.6595 42.8009 18.6595 42.8009C13.869 36.544 12.3612 29.9948 12.7107 22.3516C12.783 20.7805 13.0676 19.1945 13.2973 18.033H13.3023C13.7766 15.5602 14.4905 13.1099 15.4042 10.702C17.9755 11.8035 24.0666 14.7659 29.3738 20.0237C27.3967 22.2717 25.7491 24.6721 24.456 27.1898C24.456 27.1898 20.719 23.8203 14.86 21.7622C14.7577 22.7413 14.7252 23.7754 14.7552 24.7545C23.3027 28.4612 29.0193 34.883 31.2111 38.5872C33.041 36.1943 34.2517 34.316 37.0127 31.7558C37.5219 33.1445 37.9263 34.5732 38.2184 36.022C37.3646 37.3907 34.5712 41.6569 31.2536 44.407C27.9359 41.6569 25.145 37.3907 24.2887 36.022C24.441 35.2701 24.5733 34.5957 24.783 33.8589C24.1265 33.207 23.3027 32.5101 22.4739 31.8557C21.9247 33.5192 21.6376 34.9579 21.3455 36.544C24.6757 42.6311 28.3603 45.6359 31.2061 47.9388C34.2167 45.5435 38.3931 42.0291 41.1541 36.544C39.886 29.3279 35.6397 23.1235 34.4439 21.6048C33.7624 22.2667 33.0734 22.9736 32.4893 23.648C33.8123 25.369 34.9357 27.1674 35.8469 29.0332C34.1543 30.5219 32.6341 32.1279 31.2486 33.8889C29.8631 32.1279 28.3453 30.5219 26.6503 29.0332C28.8596 24.4997 32.8188 20.0062 34.696 18.55C39.5864 14.2039 44.7763 11.6936 47.0954 10.6995C48.431 14.2189 49.2872 17.6758 49.6492 21.0078C45.9246 22.2842 42.622 23.9977 39.5514 26.1383C40.0083 26.9126 40.4352 27.8168 40.7996 28.6835C43.5381 26.7302 47.5872 24.5472 51.187 23.4482C54.4772 22.4441 57.9646 21.9745 59.5123 21.9745C59.8468 24.9493 60.2687 33.4418 55.3858 40.1033C52.5974 43.9049 48.5059 46.5326 43.1812 47.9513C47.1229 43.8949 52.53 36.2917 52.6423 25.0567C51.7012 25.324 50.7102 25.6337 49.8289 25.9659C49.5668 33.2944 46.9656 38.7146 43.8377 42.7984C43.6255 43.0382 38.8225 48.8131 35.42 52.1126C40.7622 51.3358 51.1121 50.6564 57.6375 41.7593C62.2458 35.4724 63.3442 26.8826 61.9063 19.3193L61.9213 19.3218ZM19.321 47.9538C13.9963 46.5351 9.90475 43.9074 7.11632 40.1058C2.23345 33.4468 2.65533 24.9518 2.98985 21.977H3.04976C5.0768 21.977 7.42337 22.3342 9.89476 23.021C9.3206 35.3775 15.1446 43.6551 19.321 47.9513V47.9538Z" fill="#F64C96"/>
<path d="M84.6854 30.1403C83.2992 30.1403 81.9512 29.905 80.6413 29.4345C79.3314 28.9512 78.1487 28.2263 77.0931 27.2598C76.0503 26.2933 75.2173 25.0788 74.5941 23.6163C73.971 22.141 73.6594 20.4242 73.6594 18.4657C73.6594 15.6424 74.2381 13.2261 75.3953 11.2168C76.5654 9.1947 78.155 7.64953 80.1644 6.58127C82.1737 5.50029 84.4374 4.9598 86.9555 4.9598C87.5151 4.9598 88.2018 5.0361 89.0157 5.18871C89.8296 5.34132 90.6436 5.56388 91.4575 5.85638C92.2714 6.13616 92.9518 6.48589 93.4986 6.90556C93.5876 6.96915 93.5622 7.17899 93.4223 7.53508C93.2824 7.89117 93.0853 8.29812 92.8309 8.75595C92.5766 9.21378 92.3095 9.63981 92.0297 10.0341C91.7627 10.4283 91.5465 10.7017 91.3812 10.8543L90.1794 10.5873C89.34 9.35367 88.4752 8.50796 87.585 8.05013C86.6948 7.57959 85.6965 7.34432 84.59 7.34432C84.1195 7.34432 83.5409 7.50328 82.8541 7.82122C82.1674 8.12644 81.487 8.65421 80.813 9.40454C80.1517 10.1549 79.5985 11.185 79.1534 12.4949C78.7082 13.7921 78.4857 15.4326 78.4857 17.4165C78.4857 19.6802 78.8227 21.5306 79.4967 22.9677C80.1707 24.392 81.0419 25.4412 82.1102 26.1152C83.1784 26.7893 84.3103 27.1263 85.5057 27.1263C86.2052 27.1263 86.8283 27.0627 87.3752 26.9355C87.9347 26.8083 88.4371 26.6367 88.8822 26.4205V20.6022C88.8822 20.4115 88.825 20.2334 88.7105 20.0681C88.596 19.8901 88.3226 19.7184 87.8902 19.553C87.4578 19.375 86.7647 19.2033 85.8109 19.038V17.6454H95.3108V19.038C94.586 19.2033 94.0963 19.4322 93.842 19.7247C93.5876 20.0172 93.4605 20.3097 93.4605 20.6022V26.3442C91.5783 27.883 89.9314 28.9004 88.5197 29.3963C87.1208 29.8923 85.8427 30.1403 84.6854 30.1403Z" fill="white"/>
<path d="M105.269 30.1403C103.832 30.1403 102.509 29.7651 101.301 29.0148C100.105 28.2645 99.1452 27.2153 98.4203 25.8673C97.7081 24.5065 97.352 22.9295 97.352 21.1364C97.352 17.6518 98.6619 14.9557 101.282 13.0481C101.956 12.5521 102.757 12.1324 103.685 11.7891C104.626 11.433 105.58 11.2549 106.547 11.2549C108.213 11.2549 109.58 11.6237 110.648 12.3613C111.716 13.0862 112.505 14.0464 113.014 15.2418C113.522 16.4246 113.777 17.7027 113.777 19.0761C113.548 19.3305 113.147 19.6166 112.575 19.9346C112.002 20.2398 111.513 20.4751 111.106 20.6404H102.083C102.146 22.4717 102.585 23.9787 103.399 25.1614C104.226 26.3442 105.383 26.9355 106.871 26.9355C107.405 26.9355 107.927 26.8846 108.435 26.7829C108.944 26.6812 109.529 26.4713 110.19 26.1534C110.852 25.8227 111.678 25.314 112.67 24.6273C112.835 24.7163 113.026 24.9198 113.242 25.2377C113.471 25.543 113.611 25.7464 113.662 25.8482C112.492 27.0436 111.468 27.9466 110.591 28.557C109.713 29.1674 108.861 29.5807 108.035 29.7969C107.208 30.0259 106.286 30.1403 105.269 30.1403ZM102.14 18.5039H108.492C108.785 18.5039 108.976 18.4594 109.065 18.3703C109.166 18.2686 109.217 18.0842 109.217 17.8171C109.217 17.3084 109.116 16.7234 108.912 16.0621C108.721 15.3881 108.384 14.8031 107.901 14.3071C107.418 13.7984 106.737 13.5441 105.86 13.5441C104.677 13.5441 103.793 13.9892 103.208 14.8794C102.636 15.7696 102.28 16.9778 102.14 18.5039Z" fill="white"/>
<path d="M115.951 29.568V28.1755C117.63 27.7304 118.469 27.3425 118.469 27.0118V16.4246C118.469 15.7633 118.437 15.2736 118.374 14.9557C118.31 14.6378 118.107 14.4152 117.763 14.288C117.42 14.1609 116.816 14.0528 115.951 13.9637V12.6284C117.159 12.4885 118.228 12.3168 119.156 12.1134C120.097 11.8972 121.032 11.611 121.96 11.2549L122.761 12.0561L122.971 14.8031C124.446 13.5313 125.833 12.6221 127.13 12.0752C128.427 11.5284 129.572 11.2549 130.564 11.2549C131.657 11.2549 132.63 11.6237 133.482 12.3613C134.347 13.099 134.779 14.358 134.779 16.1384V27.0118C134.779 27.1771 134.951 27.3488 135.294 27.5269C135.638 27.7049 136.312 27.9211 137.317 28.1755V29.568H127.683V28.1755C128.599 27.9338 129.247 27.724 129.629 27.546C130.01 27.3552 130.201 27.1771 130.201 27.0118V18.3513C130.201 16.9523 130.055 15.9985 129.762 15.4898C129.47 14.9811 128.948 14.7268 128.198 14.7268C127.588 14.7268 126.882 14.9048 126.081 15.2609C125.292 15.617 124.281 16.3228 123.048 17.3784V27.0118C123.048 27.4315 123.893 27.8194 125.585 28.1755V29.568H115.951Z" fill="white"/>
<path d="M145.958 30.1403C144.826 30.1403 143.726 29.7842 142.658 29.072C141.59 28.3472 140.706 27.3107 140.006 25.9626C139.32 24.6019 138.976 22.9804 138.976 21.0982C138.976 19.3941 139.37 17.7917 140.159 16.291C140.947 14.7904 142.035 13.5759 143.421 12.6475C144.82 11.7191 146.429 11.2549 148.247 11.2549C148.845 11.2549 149.436 11.3249 150.021 11.4648C150.619 11.6047 151.261 11.9099 151.948 12.3804V5.8373C151.948 4.89621 151.916 4.20947 151.853 3.77708C151.789 3.33197 151.579 3.03311 151.223 2.8805C150.867 2.72789 150.237 2.61979 149.334 2.5562V1.23995C150.733 1.10006 151.992 0.909296 153.112 0.667665C154.243 0.426034 155.14 0.203479 155.801 0L156.526 0.705817V23.8643C156.526 24.7545 156.558 25.3776 156.622 25.7337C156.698 26.0771 156.812 26.2996 156.965 26.4014C157.105 26.4904 157.302 26.5222 157.556 26.4968C157.811 26.4586 158.281 26.2933 158.968 26.0008L159.502 27.3933C158.726 27.9148 157.944 28.3853 157.156 28.805C156.38 29.2119 155.693 29.5362 155.095 29.7779C154.498 30.0195 154.078 30.1403 153.836 30.1403C152.921 30.1403 152.336 29.0275 152.081 26.802C150.924 27.9974 149.907 28.8558 149.029 29.3773C148.164 29.886 147.141 30.1403 145.958 30.1403ZM147.885 26.5158C148.597 26.5158 149.265 26.3442 149.888 26.0008C150.511 25.6447 151.198 25.1233 151.948 24.4365V16.1003C151.49 15.3627 150.918 14.7904 150.231 14.3834C149.557 13.9765 148.794 13.773 147.942 13.773C146.683 13.773 145.634 14.2753 144.794 15.28C143.968 16.272 143.554 17.868 143.554 20.0681C143.554 21.4162 143.771 22.5734 144.203 23.54C144.635 24.4938 145.182 25.2314 145.844 25.7528C146.505 26.2615 147.185 26.5158 147.885 26.5158Z" fill="white"/>
<path d="M165.225 30.1403C164.525 30.1403 163.839 29.975 163.165 29.6443C162.503 29.3264 161.957 28.8431 161.524 28.1945C161.092 27.5332 160.876 26.713 160.876 25.7337C160.876 24.8689 161.028 24.1377 161.333 23.54C161.651 22.9295 162.046 22.389 162.516 21.9185C162.923 21.5115 163.432 21.1237 164.042 20.7548C164.665 20.386 165.556 20.03 166.713 19.6866C167.87 19.3432 169.473 19.0189 171.52 18.7137V16.4627C171.52 15.6742 171.348 15.0193 171.005 14.4979C170.662 13.9765 170.007 13.7221 169.04 13.7348C168.43 13.7348 167.857 13.951 167.323 14.3834C166.789 14.8158 166.56 15.4135 166.637 16.1766C166.649 16.291 166.433 16.4436 165.988 16.6344C165.556 16.8124 165.028 16.9905 164.405 17.1685C163.794 17.3466 163.222 17.4928 162.688 17.6073C162.166 17.709 161.829 17.7408 161.677 17.7027L161.276 16.6726C161.683 15.6552 162.389 14.7395 163.394 13.9256C164.398 13.1117 165.568 12.4631 166.904 11.9798C168.239 11.4966 169.612 11.2549 171.024 11.2549C172.766 11.2549 174.044 11.6937 174.858 12.5712C175.685 13.436 176.098 14.5233 176.098 15.8332V25.0279C176.098 26.0199 176.353 26.5158 176.861 26.5158C177.039 26.5158 177.243 26.484 177.472 26.4205C177.713 26.3442 178.089 26.2043 178.597 26.0008L179.017 27.4315C178.305 27.9275 177.567 28.3789 176.804 28.7859C176.041 29.1929 175.348 29.5172 174.725 29.7588C174.102 30.0131 173.631 30.1403 173.313 30.1403C172.843 30.1403 172.442 29.8732 172.111 29.3391C171.793 28.7923 171.603 28.0483 171.539 27.1072C170.395 28.2645 169.263 29.0593 168.144 29.4917C167.024 29.9241 166.052 30.1403 165.225 30.1403ZM167.495 26.802C167.978 26.802 168.531 26.6748 169.155 26.4205C169.778 26.1534 170.566 25.6129 171.52 24.799V20.5832C169.994 20.8248 168.913 21.0728 168.277 21.3271C167.641 21.5688 167.158 21.8549 166.827 22.1856C166.497 22.5162 166.23 22.8723 166.026 23.2538C165.823 23.6353 165.721 24.0932 165.721 24.6273C165.721 25.4921 165.931 26.0707 166.35 26.3632C166.783 26.6557 167.164 26.802 167.495 26.802Z" fill="white"/>
<path d="M74.0167 49.6601V36.7208H75.6642V48.3742H82.5558V49.6601H74.0167Z" fill="#F64C96"/>
<path d="M87.9282 49.861C86.7897 49.861 85.9257 49.5463 85.3364 48.9167C84.7604 48.2872 84.4724 47.3696 84.4724 46.1641V40.1365H86.12V46.2244C86.12 47.0147 86.3142 47.5973 86.7026 47.9724C87.1045 48.3474 87.7206 48.535 88.5511 48.535C89.1405 48.535 89.6964 48.4278 90.2188 48.2135C90.7411 47.9992 91.1899 47.7045 91.5649 47.3294V40.1365H93.2125V49.6601H91.7257L91.6252 48.5751C91.1698 48.9502 90.6273 49.2583 89.9977 49.4994C89.3682 49.7405 88.6784 49.861 87.9282 49.861Z" fill="#F64C96"/>
<path d="M94.7225 49.6601L98.3391 44.8179L94.8431 40.1365H96.6313L99.2231 43.6928L101.835 40.1365H103.603L100.147 44.8179L103.744 49.6601H101.956L99.2231 45.9431L96.5107 49.6601H94.7225Z" fill="#F64C96"/>
<path d="M108.609 49.861C107.47 49.861 106.606 49.5463 106.017 48.9167C105.441 48.2872 105.153 47.3696 105.153 46.1641V40.1365H106.801V46.2244C106.801 47.0147 106.995 47.5973 107.383 47.9724C107.785 48.3474 108.401 48.535 109.232 48.535C109.821 48.535 110.377 48.4278 110.899 48.2135C111.422 47.9992 111.871 47.7045 112.246 47.3294V40.1365H113.893V49.6601H112.406L112.306 48.5751C111.85 48.9502 111.308 49.2583 110.678 49.4994C110.049 49.7405 109.359 49.861 108.609 49.861Z" fill="#F64C96"/>
<path d="M116.712 49.6601V40.1365H118.199L118.32 41.342C118.789 41.0339 119.338 40.7526 119.967 40.4981C120.61 40.2436 121.24 40.0561 121.856 39.9355V41.2214C121.481 41.3018 121.072 41.4157 120.63 41.563C120.188 41.6969 119.766 41.851 119.365 42.0251C118.963 42.1993 118.628 42.3801 118.36 42.5676V49.6601H116.712Z" fill="#F64C96"/>
<path d="M124.74 53.1963C124.111 53.1963 123.561 53.1093 123.093 52.9351V51.609C123.32 51.6894 123.528 51.743 123.715 51.7698C123.916 51.7966 124.117 51.81 124.318 51.81C124.774 51.81 125.129 51.7296 125.383 51.5689C125.651 51.4081 125.885 51.1603 126.086 50.8255C126.287 50.504 126.508 50.082 126.749 49.5597L122.55 40.1365H124.258L127.573 47.8116L130.989 40.1365H132.676L128.678 49.2382C128.343 50.0017 128.002 50.6781 127.653 51.2675C127.305 51.8702 126.903 52.3391 126.448 52.6739C125.992 53.0222 125.423 53.1963 124.74 53.1963Z" fill="#F64C96"/>
<path d="M143.113 49.861C141.506 49.861 140.207 49.6601 139.215 49.2583V47.7915C139.778 48.0059 140.374 48.1733 141.004 48.2939C141.647 48.401 142.303 48.4546 142.973 48.4546C144.125 48.4546 144.989 48.3006 145.565 47.9925C146.141 47.671 146.429 47.1017 146.429 46.2846C146.429 45.7756 146.308 45.3738 146.067 45.0791C145.839 44.771 145.457 44.5165 144.922 44.3156C144.386 44.1013 143.669 43.887 142.772 43.6727C141.352 43.3244 140.354 42.8757 139.778 42.3265C139.202 41.7639 138.914 41.0138 138.914 40.0762C138.914 38.9778 139.309 38.1139 140.1 37.4843C140.89 36.8414 142.095 36.5199 143.716 36.5199C144.466 36.5199 145.163 36.5735 145.806 36.6806C146.449 36.7878 146.944 36.9016 147.293 37.0222V38.4688C146.81 38.2947 146.288 38.1607 145.725 38.067C145.163 37.9732 144.58 37.9263 143.977 37.9263C142.879 37.9263 142.035 38.0871 141.446 38.4085C140.856 38.73 140.562 39.2859 140.562 40.0762C140.562 40.5182 140.662 40.8799 140.863 41.1612C141.077 41.4291 141.432 41.6635 141.928 41.8644C142.424 42.0519 143.113 42.2528 143.997 42.4671C145.056 42.7216 145.879 43.0297 146.469 43.3914C147.058 43.7396 147.473 44.1549 147.714 44.6371C147.956 45.1193 148.076 45.6685 148.076 46.2846C148.076 47.4232 147.661 48.3072 146.83 48.9368C146 49.553 144.761 49.861 143.113 49.861Z" fill="#F64C96"/>
<path d="M150.48 54V40.1365H151.887L152.007 41.1411C152.449 40.7258 152.932 40.4245 153.454 40.2369C153.99 40.036 154.613 39.9355 155.323 39.9355C156.662 39.9355 157.714 40.3106 158.477 41.0607C159.241 41.7974 159.622 43.0297 159.622 44.7576C159.622 46.4722 159.241 47.7514 158.477 48.5952C157.714 49.4391 156.655 49.861 155.303 49.861C154.057 49.861 152.999 49.5597 152.128 48.9569V54H150.48ZM154.86 48.535C155.932 48.535 156.716 48.2336 157.211 47.6308C157.72 47.0147 157.975 46.0569 157.975 44.7576C157.975 43.5119 157.74 42.6212 157.272 42.0854C156.803 41.5362 156.012 41.2616 154.901 41.2616C154.351 41.2616 153.842 41.3554 153.374 41.5429C152.905 41.7304 152.49 42.0184 152.128 42.4069V47.5906C152.463 47.8853 152.858 48.1197 153.313 48.2939C153.769 48.4546 154.285 48.535 154.86 48.535Z" fill="#F64C96"/>
<path d="M164.893 49.861C164.29 49.861 163.734 49.7539 163.225 49.5396C162.716 49.3252 162.308 49.0105 161.999 48.5952C161.691 48.1666 161.537 47.6308 161.537 46.9879C161.537 46.1172 161.825 45.4073 162.401 44.8581C162.977 44.2955 163.915 44.0142 165.214 44.0142H168.529V43.4316C168.529 42.9092 168.456 42.4939 168.308 42.1859C168.174 41.8778 167.913 41.6568 167.525 41.5228C167.136 41.3889 166.567 41.3219 165.817 41.3219C165.241 41.3219 164.685 41.3688 164.149 41.4625C163.614 41.5563 163.111 41.6836 162.642 41.8443V40.478C163.071 40.3173 163.573 40.19 164.149 40.0963C164.739 39.9891 165.368 39.9355 166.038 39.9355C167.391 39.9355 168.402 40.2101 169.072 40.7593C169.755 41.3085 170.097 42.1993 170.097 43.4316V49.6601H168.71L168.59 48.5751C168.174 49.0038 167.672 49.3252 167.083 49.5396C166.493 49.7539 165.763 49.861 164.893 49.861ZM165.315 48.5149C166.011 48.5149 166.627 48.3943 167.163 48.1532C167.699 47.8987 168.154 47.5571 168.529 47.1285V45.28H165.254C164.504 45.28 163.968 45.4207 163.647 45.702C163.326 45.9833 163.165 46.4119 163.165 46.9879C163.165 47.5638 163.359 47.9657 163.747 48.1934C164.136 48.4077 164.658 48.5149 165.315 48.5149Z" fill="#F64C96"/>
</svg>
