<svg width="50" height="51" viewBox="0 0 50 51" fill="none" xmlns="http://www.w3.org/2000/svg">
<path d="M29.1848 31.2808C29.4022 25.52 31.1413 20.8178 34.7284 15.2743C36.0326 13.2091 37.5544 11.2526 39.0762 9.62214C39.6197 9.07866 40.4891 8.96999 41.0326 9.62214L44.6196 13.4265C45.0545 13.97 45.1631 14.7309 44.6196 15.2743C44.2935 15.6004 44.0762 15.9265 43.75 16.3613C42.2586 18.3188 40.7671 20.2972 40.1669 22.7406C40.0079 23.3878 40.4785 24.0169 41.141 24.0889C43.0906 24.3007 45.0978 24.8771 46.3587 26.4983C47.9892 28.4548 48.75 30.6287 48.75 32.9113C48.75 35.4113 47.7718 37.5853 45.8153 39.5418C43.8587 41.4983 41.5761 42.4766 38.9674 42.4766C36.3588 42.4766 34.0761 41.3896 32.1196 39.3244C30.163 37.2591 29.1848 34.5417 29.1848 31.2808Z" fill="#8025BD"/>
<path d="M1.25019 31.2808C1.46753 25.52 3.20677 20.8178 6.79365 15.2743C8.09808 13.2091 9.61971 11.2526 11.1415 9.62214C11.685 9.07866 12.5546 8.96999 13.0981 9.62214L16.6849 13.4265C17.1197 13.97 17.2284 14.7309 16.6849 15.2743C16.3589 15.6004 16.1415 15.9265 15.8155 16.3613C14.324 18.3188 12.8324 20.2972 12.2323 22.7406C12.0733 23.3879 12.5439 24.0169 13.2064 24.0889C15.156 24.3007 17.1632 24.8771 18.4242 26.4983C20.0546 28.4548 20.8154 30.6287 20.8154 32.9113C20.8154 35.4113 19.8371 37.5853 17.8807 39.5418C15.9241 41.4983 13.6415 42.4766 11.0328 42.4766C8.42408 42.4766 6.1415 41.3896 4.18493 39.3244C2.22848 37.2591 1.25019 34.5417 1.25019 31.2808Z" fill="#8025BD" fill-opacity="0.4"/>
</svg>
