<svg width="80" height="78" viewBox="0 0 80 78" fill="none" xmlns="http://www.w3.org/2000/svg">
<g clip-path="url(#clip0_263_132699)">
<path fill-rule="evenodd" clip-rule="evenodd" d="M13.9752 69.9056C14.8866 67.0026 13.6763 64.0468 11.2713 63.2972C8.86635 62.5476 6.17899 64.2913 5.26489 67.1924C4.35541 70.0928 5.56379 73.0512 7.96876 73.8009C10.3737 74.5505 13.0611 72.8068 13.9752 69.9056ZM14.7281 61.2261L21.2057 48.2926C22.0274 46.6555 24.5812 46.388 26.4558 47.3239C33.0223 20.0198 36.3045 6.36909 36.3045 6.36909C36.8642 3.95593 36.9016 2.37623 36.4261 1.62856C23.6076 34.2836 15.7972 53.4775 12.965 60.0269C12.2772 61.6102 10.3909 61.2371 9.42345 61.4602C6.89731 61.7849 4.55353 63.7807 3.64209 66.6838C2.44786 70.4851 4.15672 74.4027 7.46133 75.4344C10.7659 76.466 14.4137 74.2187 15.6099 70.4147C16.2482 68.3799 16.0579 66.3124 15.2339 64.672C14.5804 63.3744 14.1593 62.4242 14.7334 61.23L14.7281 61.2261Z" fill="#007989"/>
<path fill-rule="evenodd" clip-rule="evenodd" d="M36.9688 69.1972C37.5568 70.7961 39.0356 72.3375 40.8451 72.3131C41.1666 72.3106 41.4817 72.25 41.7845 72.1393C42.0872 72.0285 42.3631 71.8651 42.6115 71.661C44.0042 70.4964 44.1302 68.361 43.5449 66.7641C42.9569 65.1652 41.4781 63.6237 39.6686 63.6482C39.3471 63.6506 39.032 63.7112 38.7292 63.822C38.4264 63.9327 38.1506 64.0961 37.9022 64.3002C36.5114 65.4622 36.3835 67.6003 36.9688 69.1972ZM33.8881 61.4613L27.0349 49.7485C26.4695 48.7828 25.6957 48.2068 24.6135 47.9388C24.166 47.8282 23.709 47.7806 23.2522 47.7495C22.8318 47.7246 22.3911 47.7218 21.9763 47.6558C21.5596 47.5925 21.2396 47.3084 21.1217 46.9053C18.2687 37.0964 15.4111 27.2882 12.5561 17.4819C11.843 15.0267 11.1279 12.5742 10.4122 10.117C10.1661 9.27466 9.91274 8.43107 9.67788 7.58461C9.25417 6.08576 8.60272 3.49083 9.43789 2.03617C9.64195 1.68034 10.0048 1.48217 10.4126 1.50189C10.8204 1.52162 11.1631 1.75259 11.3284 2.12462C17.0403 14.8495 22.7792 27.5655 28.6037 40.2374C30.4194 44.1882 32.2436 48.1329 34.0876 52.0675C35.2003 54.4419 36.3184 56.8202 37.4753 59.1736C37.5851 59.398 37.7285 59.5321 37.9602 59.624C38.5915 59.8695 39.5424 59.7247 40.2546 59.8322C43.4567 60.0939 46.061 62.486 47.1416 65.4287C48.2539 68.4564 47.7604 72.1019 45.325 74.3675C44.6797 74.9668 43.9287 75.4309 43.1042 75.7384C42.2817 76.0432 41.4028 76.1793 40.5265 76.1445C37.211 76.0092 34.4772 73.559 33.3648 70.5313C32.5912 68.4263 32.5827 66.0442 33.5 63.9757C33.724 63.4701 34.0761 62.7174 34.0713 62.1548C34.0685 61.902 33.9998 61.6831 33.8808 61.4601L33.8881 61.4613Z" fill="#FEFEFE"/>
<path fill-rule="evenodd" clip-rule="evenodd" d="M35.9741 69.5688C34.9268 66.7204 35.9981 63.7002 38.3646 62.8227C40.7312 61.9452 43.4994 63.5451 44.5448 66.3962C45.5901 69.2473 44.5209 72.2648 42.1543 73.1423C39.7877 74.0198 37.0195 72.4199 35.9741 69.5688ZM34.8172 60.9387L27.9565 49.2082C26.7875 47.2117 25.0056 46.8248 23.6224 46.7099C22.6541 46.6775 22.0529 46.5528 21.947 45.9326C14.4483 20.1735 10.699 7.29394 10.699 7.29394C10.0302 4.91235 9.91411 3.3351 10.3561 2.56612C24.6852 34.5009 33.3871 53.2551 36.5199 59.648C37.2821 61.1939 39.1466 60.7207 40.124 60.8913C42.6619 61.0807 45.0969 62.9499 46.1423 65.801C46.6822 67.2701 46.7738 68.7801 46.4865 70.1476C46.3021 71.0234 46.5544 71.2045 47.1068 71.5852L48.9266 72.7686C50.1317 73.6448 49.7747 74.9118 48.3571 74.1798L46.7047 73.3042C46.4382 73.1703 45.4792 72.6845 44.8333 73.3572C44.2529 73.963 43.5463 74.4392 42.733 74.7426C39.4813 75.9488 35.7333 73.897 34.3621 70.1615C33.6284 68.1639 33.7231 66.0878 34.4716 64.4051C35.0604 63.0738 35.4385 62.1017 34.8099 60.9375L34.8172 60.9387Z" fill="#007989"/>
<path fill-rule="evenodd" clip-rule="evenodd" d="M22.6546 42.608C22.5412 41.9534 22.9818 41.3313 23.6346 41.2185C24.2893 41.1029 24.9098 41.5418 25.0205 42.1944C25.134 42.8491 24.6934 43.4711 24.0406 43.5839C23.3859 43.6995 22.7654 43.2606 22.6546 42.608Z" fill="#FEFEFE"/>
<g clip-path="url(#clip1_263_132699)">
<path fill-rule="evenodd" clip-rule="evenodd" d="M74.5323 42.0785C75.4934 42.0354 75.3893 43.3929 74.6517 43.4695C71.7899 43.974 66.4879 45.1385 65.296 46.1682C62.4171 48.6519 63.5737 52.3035 64.7697 55.3669C66.519 61.661 69.5148 70.8837 62.1458 74.8746C57.8273 77.2142 52.2483 75.3523 53.5829 69.3017C57.554 50.1447 56.7464 45.5781 53.5399 27.8572C51.0583 14.1825 51.9329 5.56731 56.1575 2.01371C59.0324 -0.179071 67.8916 0.155755 73.6715 2.75733C74.3061 2.9738 74.1573 3.82337 73.9192 3.82993L62.4319 3.7991C61.8397 3.82287 61.2561 4.09956 60.8457 4.75126C60.4543 5.3123 60.8507 5.47632 61.327 5.45477L73.4739 5.48284L73.6131 5.4827C74.3002 5.49045 74.3285 6.39043 73.6372 6.42484L73.5002 6.4313L60.1568 7.14212C59.4381 7.18287 59.2437 8.83765 59.9877 8.82637L73.5637 8.85725L73.7028 8.85711C74.3899 8.86486 74.4182 9.76484 73.7269 9.79925L73.5878 9.80781L59.924 10.5358C59.3233 10.5385 59.3524 12.2268 59.9299 12.2009L73.6492 12.2317L73.7883 12.2315C74.4755 12.2393 74.5038 13.1393 73.8124 13.1737L73.6755 13.1801L59.9906 13.9081C59.4258 13.9804 59.4842 15.5337 60.0892 15.5732L73.7369 15.604L73.876 15.6038C74.5631 15.6116 74.5914 16.5116 73.9001 16.546L73.761 16.5545L60.2237 17.274C59.6484 17.4115 59.7954 19.0027 60.3855 18.9474L73.8224 18.9784L73.9615 18.9782C74.6486 18.986 74.6769 19.886 73.9856 19.9204L73.8465 19.9289L60.5748 20.6355C59.9721 20.7878 60.2497 22.341 60.7893 22.3236L73.9121 22.3528L74.0512 22.3526C74.7384 22.3604 74.7667 23.2604 74.0754 23.2948L73.9363 23.3033L61.0249 23.9906C60.5001 24.0143 60.6662 25.7509 61.2858 25.6997L73.9998 25.7293L74.1389 25.7292C74.826 25.7369 74.8543 26.6369 74.163 26.6713L74.0239 26.6799L61.5572 27.3434C61.0093 27.3946 61.2428 29.1016 61.8667 29.0757L74.0853 29.1037L74.2244 29.1036C74.9115 29.1113 74.9398 30.0113 74.2485 30.0457L74.1115 30.0522L62.1739 30.6878C61.5353 30.7538 61.8005 32.5009 62.5319 32.4517L74.175 32.4781L74.3142 32.478C75.0013 32.4857 75.0296 33.3857 74.3383 33.4201L74.1992 33.4287L62.877 34.03C62.1983 34.0518 62.5057 35.8704 63.294 35.8275L74.2648 35.8525L74.4039 35.8524C75.091 35.8601 75.1193 36.7601 74.428 36.7945L74.291 36.801L63.6791 37.3658C63.07 37.3896 63.5207 39.1575 64.1678 39.2011L74.3524 39.2248L74.4915 39.2247C75.1787 39.2324 75.207 40.1324 74.5157 40.1668L74.3766 40.1754L64.6604 40.6866C64.4694 41.5531 65.8002 42.3169 67.4378 42.2752L74.5513 42.0933L74.5323 42.0785Z" fill="#007989"/>
</g>
</g>
<defs>
<clipPath id="clip0_263_132699">
<rect width="80" height="78" fill="white"/>
</clipPath>
<clipPath id="clip1_263_132699">
<rect width="64.2392" height="56.1493" fill="white" transform="translate(19.1758 39.0264) rotate(-45.0565)"/>
</clipPath>
</defs>
</svg>
