<svg width="40" height="80" viewBox="0 0 40 80" fill="none" xmlns="http://www.w3.org/2000/svg">
<g clip-path="url(#clip0_263_132718)">
<path fill-rule="evenodd" clip-rule="evenodd" d="M19.5003 7.43555H25.1835C29.5057 7.43555 33.3671 9.06055 36.0711 11.6248C38.718 14.1391 40.1933 17.5034 39.9825 21.107L38.543 45.7534C38.3251 50.257 33.81 49.6748 33.4635 53.532L32.3705 73.0855C32.099 77.9677 25.8122 80.3177 20.0004 79.9605C14.1887 80.3177 7.90182 77.9677 7.63034 73.0855L6.53729 53.532C6.19437 49.6748 1.67571 50.257 1.45781 45.7534L0.0218385 21.1105C-0.188913 17.507 1.28635 14.1391 3.93325 11.6284C6.63373 9.06412 10.4987 7.43912 14.8209 7.43912H19.5039L19.5003 7.43555Z" fill="#007989"/>
<path fill-rule="evenodd" clip-rule="evenodd" d="M17.1213 53.1396H22.8795C23.4189 53.1396 23.8582 53.5789 23.8582 54.1182V64.8861C23.8582 65.4254 23.4189 65.8646 22.8795 65.8646H17.1213C16.5819 65.8646 16.1426 65.4254 16.1426 64.8861V54.1182C16.1426 53.5789 16.5855 53.1396 17.1213 53.1396Z" fill="#FEFEFE"/>
<path fill-rule="evenodd" clip-rule="evenodd" d="M18.375 55.5752H21.6256C21.847 55.5752 22.0328 55.7573 22.0328 55.9823V57.6073C22.0328 57.8323 21.8506 58.0145 21.6256 58.0145H18.375C18.1499 58.0145 17.9678 57.8323 17.9678 57.6073V55.9823C17.9678 55.7573 18.1499 55.5752 18.375 55.5752Z" fill="#007989"/>
<path fill-rule="evenodd" clip-rule="evenodd" d="M6.9547 0H33.0486C34.4025 0 35.6277 1.02143 35.6277 2.41786V18.0357C35.6277 19.2643 35.3562 20.4679 34.8347 21.5821C33.1987 25.0714 29.4873 27.1 25.7009 27.1H14.3096C10.5232 27.1 6.80825 25.075 5.17581 21.5821C4.65429 20.4679 4.38281 19.2679 4.38281 18.0357V2.41786C4.38281 1.025 5.60803 0 6.96184 0" fill="#FEFEFE"/>
<path fill-rule="evenodd" clip-rule="evenodd" d="M33.0451 10.7861V18.0361C33.0451 21.6897 29.7374 24.6826 25.6938 24.6826H14.3025C10.2589 24.6826 6.95117 21.6933 6.95117 18.0361V10.7861H33.0451Z" fill="#007989"/>
<path fill-rule="evenodd" clip-rule="evenodd" d="M8.34461 1.63184C9.10903 1.63184 9.73415 2.25684 9.73415 3.02112V15.714H6.95508V3.02112C6.95508 2.25684 7.58019 1.63184 8.34461 1.63184Z" fill="#007989"/>
<path fill-rule="evenodd" clip-rule="evenodd" d="M31.6561 1.63184C32.4206 1.63184 33.0457 2.25684 33.0457 3.02112V15.714H30.2666V3.02112C30.2666 2.25684 30.8917 1.63184 31.6561 1.63184Z" fill="#007989"/>
<path fill-rule="evenodd" clip-rule="evenodd" d="M19.9999 1.63184C20.7643 1.63184 21.3894 2.25684 21.3894 3.02112V15.714H18.6104V3.02112C18.6104 2.25684 19.2355 1.63184 19.9999 1.63184Z" fill="#007989"/>
<path fill-rule="evenodd" clip-rule="evenodd" d="M14.1708 1.63184C14.9352 1.63184 15.5603 2.25684 15.5603 3.02112V15.714H12.7812V3.02112C12.7812 2.25684 13.4064 1.63184 14.1708 1.63184Z" fill="#007989"/>
<path fill-rule="evenodd" clip-rule="evenodd" d="M25.8261 1.63184C26.5905 1.63184 27.2156 2.25684 27.2156 3.02112V15.714H24.4365V3.02112C24.4365 2.25684 25.0616 1.63184 25.8261 1.63184Z" fill="#007989"/>
</g>
<defs>
<clipPath id="clip0_263_132718">
<rect width="40" height="80" fill="white"/>
</clipPath>
</defs>
</svg>
