<svg width="80" height="62" viewBox="0 0 80 62" fill="none" xmlns="http://www.w3.org/2000/svg">
<g clip-path="url(#clip0_263_132764)">
<path fill-rule="evenodd" clip-rule="evenodd" d="M4.76875 26.7998H75.2351C77.8585 26.7998 80.0039 28.9595 80.0039 31.6003V51.3345C80.0039 57.2032 75.2351 61.9998 69.4093 61.9998H10.5946C4.76487 61.9998 0 57.1993 0 51.3345V31.6003C0 28.9595 2.14536 26.7998 4.76875 26.7998Z" fill="#007989"/>
<path fill-rule="evenodd" clip-rule="evenodd" d="M75.111 23.2006C76.0438 17.9071 74.427 14.4055 70.2645 12.6919C69.8292 14.1316 67.6178 17.1951 65.4336 17.6019C71.6559 12.0776 69.3706 2.30441 62.5576 0C57.8976 18.2631 3.61857 -1.49845 4.08106 23.2006H75.111Z" fill="#007989"/>
<path fill-rule="evenodd" clip-rule="evenodd" d="M6.82053 34.8008H73.1789C73.5792 34.8008 73.9056 35.1294 73.9056 35.5324V37.2656C73.9056 37.6686 73.5792 37.9972 73.1789 37.9972H6.82053C6.42022 37.9972 6.09375 37.6686 6.09375 37.2656V35.5324C6.09375 35.1294 6.42022 34.8008 6.82053 34.8008Z" fill="#FEFEFE"/>
</g>
<defs>
<clipPath id="clip0_263_132764">
<rect width="80" height="62" fill="white"/>
</clipPath>
</defs>
</svg>
