<svg width="80" height="70" viewBox="0 0 80 70" fill="none" xmlns="http://www.w3.org/2000/svg">
<g clip-path="url(#clip0_263_132751)">
<path fill-rule="evenodd" clip-rule="evenodd" d="M46.0084 51.5348C46.8919 52.3449 45.6038 53.4486 44.8874 52.8651C41.9251 50.7841 36.2344 47.1312 34.2781 46.9863C29.5563 46.6332 27.355 50.8696 25.7068 54.6228C21.6977 61.7094 16.2038 72.4749 6.20334 69.4872C0.341892 67.7369 -2.92478 61.1743 3.58258 57.0234C23.9621 43.6567 27.2771 38.9224 40.0765 20.4868C49.947 6.25421 58.3104 -0.561102 65.1593 0.0371886C69.6213 0.642911 77.1198 8.75514 79.9113 16.1464C80.2788 16.8971 79.399 17.514 79.1837 17.3096L69.1053 7.14607C68.5633 6.6444 67.806 6.37312 66.8706 6.58494C66.0316 6.73358 66.2358 7.22782 66.6738 7.62916L77.3351 18.3724L77.4576 18.495C78.0552 19.1082 77.2868 19.9257 76.6483 19.346L76.5221 19.2308L64.157 8.08252C63.4888 7.48423 61.8592 8.77 62.5237 9.4166L74.4396 21.4233L74.5621 21.5459C75.1598 22.1591 74.3913 22.9766 73.7529 22.3969L73.6229 22.2817L60.9609 10.8659C60.43 10.3382 58.9675 11.8506 59.4983 12.3374L71.5404 24.4705L71.6629 24.5931C72.2606 25.2063 71.4922 26.0238 70.8537 25.4441L70.7275 25.3289L58.0469 13.8945C57.4863 13.4597 56.1685 14.8793 56.666 15.4478L68.645 27.5177L68.7675 27.6403C69.3651 28.2535 68.5967 29.071 67.9582 28.4913L67.8283 28.3761L55.285 17.0643C54.6577 16.6778 53.3844 18.2089 53.9524 18.6808L65.7458 30.5649L65.8683 30.6875C66.466 31.3007 65.6976 32.1182 65.0591 31.5385L64.9291 31.4233L52.6309 20.3345C51.9664 19.9369 50.8416 21.5496 51.3316 22.0104L62.8504 33.6158L62.9729 33.7384C63.5705 34.3516 62.8021 35.1691 62.1636 34.5894L62.0337 34.4742L50.0695 23.6864C49.5869 23.2442 48.2023 24.9201 48.7925 25.4218L59.9512 36.6667L60.0737 36.7893C60.6713 37.4025 59.9029 38.22 59.2644 37.6403L59.1345 37.5251L47.5824 27.1089C47.0553 26.6704 45.756 28.3798 46.3277 28.9075L57.052 39.7139L57.1745 39.8365C57.7722 40.4497 57.0038 41.2672 56.3653 40.6875L56.2391 40.5723L45.1769 30.5983C44.557 30.0929 43.2503 31.8655 43.9371 32.4675L54.1566 42.7648L54.2791 42.8874C54.8767 43.5006 54.1083 44.3181 53.4698 43.7384L53.3399 43.6232L42.8494 34.162C42.2332 33.5823 40.9006 35.4552 41.6319 36.113L51.2611 45.8157L51.3836 45.9383C51.9813 46.5515 51.2128 47.369 50.5744 46.7893L50.4481 46.6741L40.6147 37.8075C40.0579 37.291 38.896 39.2457 39.4269 39.8551L48.3656 48.8629L48.4881 48.9855C49.0858 49.5987 48.3174 50.4162 47.6789 49.8365L47.549 49.7213L38.5508 41.5979C37.619 42.1925 38.1165 44.0394 39.5939 45.4478L46.0122 51.5645L46.0084 51.5348Z" fill="#007989"/>
</g>
<defs>
<clipPath id="clip0_263_132751">
<rect width="80" height="70" fill="white"/>
</clipPath>
</defs>
</svg>
