<svg width="80" height="79" viewBox="0 0 80 79" fill="none" xmlns="http://www.w3.org/2000/svg">
<g clip-path="url(#clip0_263_132734)">
<path fill-rule="evenodd" clip-rule="evenodd" d="M1.18567 35.3197C39.9157 16.6105 59.2807 7.25586 59.2807 7.25586C68.1252 3.80759 69.2623 8.35764 79.069 1.39833C79.4713 1.29373 79.7617 1.4053 79.8912 1.6668C81.3011 4.53978 68.5031 9.49428 66.3794 10.4984C57.9757 14.4662 52.3743 17.1126 49.5684 18.4375C47.959 19.3754 47.6092 19.6299 48.064 21.1954C48.6728 23.2943 48.8967 26.9623 46.7345 28.1094L10.59 46.599C0.471945 51.7801 -1.7252 36.7876 1.18567 35.3197Z" fill="#007989"/>
<path fill-rule="evenodd" clip-rule="evenodd" d="M57.7806 3.47642C58.1724 1.70173 59.4424 0.0525556 61.4017 0.000256174C63.6933 -0.0590165 65.0088 2.02947 65.3447 4.04126C65.9779 7.84865 65.719 11.9315 65.1487 15.7284C64.379 20.8607 62.9726 25.9896 61.3562 30.9162C59.2675 37.2967 56.738 43.5691 54.0265 49.7091C50.6748 57.3099 47.0013 64.7853 43.1668 72.156C40.7597 76.7828 34.4201 81.3258 29.3751 77.6614C29.3471 77.6405 29.3226 77.623 29.2981 77.5986C27.7377 76.2772 26.7021 74.6106 26.6112 72.536C26.4852 69.6979 28.1646 66.9714 29.6165 64.6388C36.3374 53.8442 42.6944 42.6556 48.0124 31.1045C52.0638 22.3077 55.6849 12.9461 57.7771 3.47294" fill="#FEFEFE"/>
<path fill-rule="evenodd" clip-rule="evenodd" d="M59.0851 3.76244C55.3731 20.432 45.9302 40.9613 30.7531 65.3432C28.5525 68.8787 26.0055 73.0661 30.1619 76.5911C34.5002 79.743 39.993 75.3778 41.9838 71.5494C58.7738 39.2563 66.1209 16.8268 64.0252 4.26102C63.385 0.418761 59.7849 0.457114 59.0851 3.75895" fill="#007989"/>
<path fill-rule="evenodd" clip-rule="evenodd" d="M60.9042 8.31563C61.8104 8.32957 62.5346 9.06874 62.5206 9.97178C62.5066 10.8748 61.7649 11.5965 60.8588 11.5826C59.9526 11.5721 59.2284 10.8295 59.2424 9.92645C59.2564 9.02341 59.9981 8.30168 60.9042 8.31563Z" fill="#FEFEFE"/>
<path fill-rule="evenodd" clip-rule="evenodd" d="M53.5017 13.3329L53.7746 11.9521L5.86414 35.5636C2.6209 37.164 3.34862 41.3235 4.944 43.8199C4.21978 41.1561 3.57603 38.7713 7.86537 36.3237L53.5017 13.3329Z" fill="#FEFEFE"/>
</g>
<defs>
<clipPath id="clip0_263_132734">
<rect width="80" height="79" fill="white"/>
</clipPath>
</defs>
</svg>
