<svg width="42" height="42" viewBox="0 0 42 42" fill="none" xmlns="http://www.w3.org/2000/svg">
<path d="M23.467 23.1389L21.1094 1H41.0279L37.5772 33.4032H28.8695" stroke="#8025BD" stroke-width="1.5" stroke-miterlimit="10" stroke-linecap="round" stroke-linejoin="round"/>
<path d="M37.4954 33.4033V40.0168C37.4954 40.4932 37.1093 40.8793 36.6329 40.8793H25.4223C24.946 40.8793 24.5596 40.4932 24.5596 40.0168V40.0882" stroke="#8025BD" stroke-width="1.5" stroke-miterlimit="10" stroke-linecap="round" stroke-linejoin="round"/>
<path d="M26.2803 38.292H37.4946" stroke="#8025BD" stroke-width="1.5" stroke-miterlimit="10" stroke-linecap="round" stroke-linejoin="round"/>
<path d="M21.9688 4.64844H40.0841" stroke="#8025BD" stroke-width="1.5" stroke-miterlimit="10" stroke-linecap="round" stroke-linejoin="round"/>
<path d="M26.4464 41.0002H4.13261C2.7142 41.0002 1.56445 39.8505 1.56445 38.4321V24.9011C1.56445 23.4827 2.7142 22.333 4.13261 22.333H26.4464C27.8648 22.333 29.0146 23.4827 29.0146 24.9011V38.4321C29.0146 39.8505 27.8648 41.0002 26.4464 41.0002Z" stroke="#8025BD" stroke-width="1.5" stroke-miterlimit="10" stroke-linecap="round" stroke-linejoin="round"/>
<path d="M18.663 13.4189H11.6182V22.3328H18.663V13.4189Z" stroke="#8025BD" stroke-width="1.5" stroke-miterlimit="10" stroke-linecap="round" stroke-linejoin="round"/>
<path d="M18.663 13.4189H11.6182V17.1553H18.663V13.4189Z" stroke="#8025BD" stroke-width="1.5" stroke-miterlimit="10" stroke-linecap="round" stroke-linejoin="round"/>
</svg>
