<svg width="42" height="42" viewBox="0 0 42 42" fill="none" xmlns="http://www.w3.org/2000/svg">
<path d="M40.5692 35.1386C40.5692 39.178 31.7176 40.9999 20.7983 40.9999C9.87896 40.9999 1.02734 39.178 1.02734 35.1386C1.02734 31.0993 9.87896 26.3721 20.7983 26.3721C31.7176 26.3721 40.5692 31.0993 40.5692 35.1386Z" stroke="#8025BD" stroke-width="1.5" stroke-miterlimit="10" stroke-linecap="round" stroke-linejoin="round"/>
<path d="M33.6022 21.8136C33.6022 24.9553 26.7175 26.3723 18.2249 26.3723C9.73236 26.3723 2.84766 24.9553 2.84766 21.8136C2.84766 18.6719 9.73236 14.9951 18.2249 14.9951C26.7175 14.9951 33.6022 18.6719 33.6022 21.8136Z" stroke="#8025BD" stroke-width="1.5" stroke-miterlimit="10" stroke-linecap="round" stroke-linejoin="round"/>
<path d="M32.8867 11.4119C32.8867 13.8818 27.4743 14.9958 20.7978 14.9958C14.1214 14.9958 8.70898 13.8818 8.70898 11.4119C8.70898 8.9421 14.1214 6.05176 20.7978 6.05176C27.4743 6.05176 32.8867 8.9421 32.8867 11.4119Z" stroke="#8025BD" stroke-width="1.5" stroke-miterlimit="10" stroke-linecap="round" stroke-linejoin="round"/>
<path d="M27.9148 4.0271C27.9148 5.422 24.8582 6.05095 21.0878 6.05095C17.3174 6.05095 14.2607 5.42176 14.2607 4.0271C14.2607 2.63219 17.3174 1 21.0878 1C24.8582 1 27.9148 2.63243 27.9148 4.0271Z" stroke="#8025BD" stroke-width="1.5" stroke-miterlimit="10" stroke-linecap="round" stroke-linejoin="round"/>
</svg>
