<svg width="83" height="90" viewBox="0 0 83 90" fill="none" xmlns="http://www.w3.org/2000/svg">
<g clip-path="url(#clip0_263_82222)">
<path d="M38.3535 32.4388C36.7024 37.1904 32.7204 37.9741 32.601 40.5665C32.601 40.5665 31.5633 38.6883 32.4883 37.4053C33.8079 35.5999 35.6016 35.4147 37.0074 32.1147C38.4065 28.8213 37.6639 26.4835 37.571 25.6172C37.571 25.6172 39.6897 28.5865 38.3535 32.4355V32.4388Z" fill="#8025BD"/>
<path d="M23.977 38.4857C23.6289 38.4857 23.3437 38.208 23.3338 37.8575C23.3305 37.5698 23.3039 37.2259 23.2741 36.839C23.168 35.4172 23.0022 33.2679 23.6289 31.0822C24.4213 28.3046 30.5318 21.6583 30.7904 21.3805C31.0325 21.1193 31.4403 21.1028 31.6989 21.3408C31.9608 21.5789 31.9774 21.9856 31.7354 22.2436C30.0245 24.0986 25.4524 29.366 24.8656 31.4327C24.3019 33.4034 24.4478 35.3312 24.5539 36.7398C24.5871 37.1565 24.6136 37.5235 24.6202 37.8343C24.6268 38.1881 24.345 38.4791 23.9903 38.4857H23.977Z" fill="#8025BD"/>
<path d="M58.7146 69.0861C58.4228 69.0861 58.1609 68.891 58.0913 68.5967C58.0084 68.2528 58.2206 67.9089 58.5654 67.8229C68.1739 65.4951 80.9553 48.4957 81.2106 41.8262C81.3332 38.6287 78.4819 37.1737 76.1942 36.0065C75.3288 35.5634 74.5795 35.1831 74.1186 34.75C73.2002 33.8803 72.8156 32.8586 72.4443 31.8666C72.1492 31.0829 71.8707 30.3356 71.3302 29.6247C70.7102 28.808 69.7918 28.9766 68.8237 29.2444C68.3595 29.3701 67.7826 29.5288 67.4908 28.9997C67.3715 28.7848 67.3483 28.5302 67.3085 28.1433C67.2554 27.6143 67.1825 26.8901 66.8476 26.3148C66.6719 26.0139 66.1547 25.5906 65.4452 25.6832C65.107 25.7229 64.8086 25.7923 64.4803 25.8651C63.7973 26.0139 62.9486 26.2023 61.4963 26.2354C60.6443 26.2189 59.5103 25.9345 58.7842 24.3407C58.5356 23.7951 58.33 23.0676 58.1145 22.2939C57.6868 20.7662 57.153 18.8583 56.1351 18.1837C54.7724 17.2777 52.4549 18.1672 49.7693 19.1989C45.0546 21.0076 38.5992 23.481 32.8766 17.2943C29.9821 14.1728 26.1261 11.673 21.4114 9.86424C15.6756 7.66864 9.64789 9.65262 9.58821 9.67576C9.25003 9.78819 8.88863 9.60963 8.77591 9.27566C8.66318 8.93838 8.84222 8.57796 9.17709 8.46223C9.43901 8.37295 15.7087 6.3063 21.8723 8.66724C26.7727 10.5487 30.7911 13.1577 33.8182 16.4279C38.954 21.9764 44.4545 19.8668 49.3084 18.0052C52.3256 16.8512 54.9283 15.8493 56.848 17.119C58.2604 18.0581 58.8406 20.128 59.3512 21.9566C59.5534 22.6775 59.7424 23.3586 59.9513 23.8116C60.4287 24.8532 61.0355 24.9723 61.4698 24.959C62.7927 24.9293 63.542 24.7639 64.2018 24.6185C64.5699 24.5358 64.9114 24.463 65.2893 24.4201C66.5393 24.2613 67.5472 24.9656 67.9583 25.6799C68.4225 26.4801 68.5187 27.3762 68.5783 27.9879C69.4802 27.7399 71.2009 27.3365 72.3514 28.8576C73.0013 29.7173 73.3428 30.6233 73.6412 31.4235C73.9926 32.356 74.2943 33.1595 74.9972 33.8241C75.3222 34.1316 76.0251 34.4888 76.771 34.8723C79.1085 36.066 82.6396 37.8648 82.487 41.8791C82.1853 49.7224 68.4789 66.7417 58.8605 69.0696C58.8108 69.0828 58.7577 69.0861 58.708 69.0861H58.7146Z" fill="#8025BD"/>
<path d="M19.5046 64.129C19.3488 64.129 19.1929 64.0728 19.0703 63.9604C15.2939 60.4884 12.3198 57.2446 9.70717 53.7561C4.92616 47.3611 3.55684 39.7129 3.24518 34.4222C3.22528 34.0684 3.49384 33.7675 3.84861 33.7444C4.19342 33.7146 4.50508 33.9924 4.52498 34.3462C4.82338 39.4649 6.14296 46.8519 10.7317 52.989C13.2979 56.4147 16.2222 59.6023 19.9389 63.0246C20.1975 63.2627 20.2141 63.6694 19.9754 63.9273C19.8494 64.0629 19.677 64.1324 19.5046 64.1324V64.129Z" fill="#8025BD"/>
<path d="M48.4459 90.0006C48.3829 90.0006 48.3199 89.9907 48.2569 89.9708C47.9188 89.865 47.7265 89.5079 47.8326 89.1706C50.2496 81.3174 42.1331 71.6256 33.5426 61.3651C27.1999 53.7929 20.6451 45.9628 17.5716 38.0765C16.2421 34.6607 15.2474 30.9309 14.2859 27.3233C11.8125 18.068 9.25622 8.49203 0.791639 3.01293C0.496556 2.82115 0.410352 2.42435 0.602653 2.13006C0.794954 1.83246 1.19614 1.74649 1.49122 1.94158C10.3702 7.69182 12.9895 17.5059 15.5226 27.0026C16.4775 30.5737 17.4622 34.2673 18.7652 37.6169C21.7624 45.3081 28.251 53.0556 34.524 60.5484C43.3466 71.08 51.6786 81.033 49.056 89.5509C48.9731 89.8253 48.7178 90.0039 48.4426 90.0039L48.4459 90.0006Z" fill="#8025BD"/>
<path d="M39.3352 17.9817C39.0401 17.9817 38.7749 17.7767 38.7086 17.4791C37.5249 12.1257 34.3088 7.79399 29.4118 4.95689C22.6381 1.03853 12.8937 0.168885 4.59163 2.74145C4.25012 2.85057 3.89205 2.65547 3.78926 2.3215C3.68317 1.98092 3.87215 1.6238 4.21365 1.5213C12.8407 -1.15708 22.9896 -0.241138 30.0583 3.84917C35.2737 6.86813 38.6986 11.4842 39.9651 17.1981C40.0414 17.5453 39.8226 17.8858 39.4778 17.9619C39.4313 17.9718 39.3849 17.9784 39.3385 17.9784L39.3352 17.9817Z" fill="#8025BD"/>
<path d="M74.901 80.6489C74.8148 80.6489 74.7253 80.6324 74.6391 80.5927C68.3263 77.7953 66.6088 75.1004 64.646 68.421C64.5466 68.0837 64.7422 67.7266 65.0804 67.6274C65.4186 67.5282 65.7766 67.7233 65.8761 68.0639C67.7428 74.4159 69.2679 76.8132 75.1596 79.4222C75.4846 79.5677 75.6304 79.9446 75.4846 80.2687C75.3785 80.5067 75.1431 80.6489 74.8977 80.6489H74.901Z" fill="#8025BD"/>
<path d="M41.6816 47.1795C41.423 47.1795 41.181 47.0273 41.0815 46.7727C40.9522 46.4421 41.1147 46.0717 41.4462 45.9428C47.1622 43.7141 51.1243 38.9658 51.1641 38.9195C51.3895 38.6483 51.794 38.6053 52.0692 38.8302C52.3444 39.0551 52.3842 39.4585 52.1588 39.7329C51.9897 39.9379 47.9546 44.7821 41.917 47.1365C41.8408 47.1662 41.7612 47.1795 41.685 47.1795H41.6816Z" fill="#8025BD"/>
<path d="M42.763 46.1282L44.6993 48.0163L44.6363 48.0858L40.6112 47.5699C39.2651 47.6162 37.9223 47.6592 36.5762 47.7055C37.7764 47.1037 38.9799 46.4953 40.1835 45.8935L43.4659 43.5127L43.5521 43.5325L42.7663 46.1315L42.763 46.1282Z" fill="#8025BD"/>
<path d="M56.7423 54.5994C56.5765 54.5994 56.4107 54.5366 56.2847 54.4109C56.0361 54.1629 56.0361 53.7562 56.288 53.5049C60.6513 49.1963 62.3986 43.2709 62.4152 43.2113C62.5146 42.8708 62.8727 42.6757 63.2109 42.7749C63.5524 42.8708 63.748 43.2279 63.6485 43.5685C63.5756 43.8231 61.7985 49.8676 57.1932 54.4175C57.0672 54.5399 56.9047 54.5994 56.7423 54.5994Z" fill="#8025BD"/>
<path d="M57.5675 53.1516L60.0973 54.1171L60.0675 54.2097L56.1651 55.3273C54.9483 55.9027 53.7315 56.478 52.5146 57.0501C53.3767 56.0217 54.2387 54.9901 55.1008 53.9617L57.1697 50.4765L57.2559 50.46L57.5642 53.1516H57.5675Z" fill="#8025BD"/>
</g>
<defs>
<clipPath id="clip0_263_82222">
<rect width="82" height="90" fill="white" transform="translate(0.5)"/>
</clipPath>
</defs>
</svg>
