<svg width="79" height="90" viewBox="0 0 79 90" fill="none" xmlns="http://www.w3.org/2000/svg">
<g clip-path="url(#clip0_263_82269)">
<path d="M40.5524 31.9263C34.8986 31.9263 25.332 31.0811 25.332 27.9199C25.332 24.7587 34.7908 23.9218 40.3824 23.9053H40.5524C40.8176 23.9053 41.0912 23.9053 41.3523 23.9136C45.0828 23.955 48.5853 24.3154 51.1925 24.9245C54.2805 25.6454 55.7851 26.6273 55.7851 27.9158C55.7851 28.0898 55.7602 28.2472 55.7064 28.3964C54.7903 31.1805 45.7584 31.9221 40.5524 31.9221V31.9263ZM40.3866 25.5045C31.363 25.5294 27.1061 27.2529 26.932 27.9323C27.1227 28.5994 31.4541 30.3312 40.5524 30.3312C48.9625 30.3312 53.8701 28.7692 54.1852 27.9199C53.9157 27.1203 49.319 25.6081 41.3192 25.5169C41.058 25.5086 40.8052 25.5128 40.5524 25.5086H40.3866V25.5045Z" fill="#8025BD"/>
<path d="M40.5358 80.2343C36.5027 80.2343 32.7391 79.8739 29.9371 79.2193C29.5765 79.1364 29.3195 78.8133 29.3195 78.4404V72.4826C29.3195 72.4081 29.3278 72.3376 29.3485 72.2672C29.2697 72.06 28.5071 71.4096 25.9496 70.8171C25.589 70.7343 25.332 70.4111 25.332 70.0382V27.9197C25.332 27.4806 25.6885 27.1201 26.132 27.1201C26.5755 27.1201 26.932 27.4764 26.932 27.9197C27.1641 28.7525 32.0469 30.3269 40.5524 30.3269C49.0578 30.3269 53.924 28.7483 54.1893 27.9032C54.3054 27.5261 54.6825 27.29 55.0722 27.3521C55.4618 27.4101 55.7519 27.7457 55.7519 28.1393V49.1654C55.7519 49.559 55.4659 49.8946 55.0763 49.9526C50.7904 50.6238 49.7003 51.585 49.6423 51.8046V78.8464C49.6423 79.24 49.3563 79.5756 48.9708 79.6336C46.4921 80.023 43.5782 80.2302 40.5441 80.2302L40.5358 80.2343ZM30.9194 77.8023C33.5349 78.3451 36.9172 78.6393 40.5358 78.6393C43.2176 78.6393 45.7957 78.4735 48.0423 78.1628V51.7963C48.0423 50.3172 50.0982 49.2069 54.152 48.4901V29.9043C51.1469 31.4621 44.6559 31.9261 40.5524 31.9261C36.4488 31.9261 29.8915 31.4538 26.932 29.8877V69.4126C29.6387 70.1211 30.9568 71.0533 30.9568 72.2631C30.9568 72.3501 30.9526 72.4702 30.9236 72.5986V77.7982L30.9194 77.8023Z" fill="#8025BD"/>
<path d="M40.9171 23.5287C40.8715 23.5287 40.8301 23.5287 40.7845 23.5162C39.197 23.2511 37.9991 22.5343 37.224 21.3826C35.4292 18.7227 36.4033 14.3352 36.9255 11.9819C38.0157 7.05995 39.3338 3.48448 41.1907 0.389601C41.4187 0.0125814 41.9078 -0.111711 42.285 0.116158C42.6331 0.327455 42.7658 0.762478 42.6041 1.12293C42.5876 1.29279 42.6456 1.73196 42.6746 1.92254C42.6995 2.08826 42.716 2.22913 42.7243 2.32856C42.8818 4.86412 43.4414 7.33339 44.1005 10.0678C44.2414 10.6561 44.4113 11.261 44.573 11.8493C44.9585 13.2456 45.3564 14.6874 45.5139 16.1747C45.5802 16.8086 45.6092 17.4135 45.6009 17.977C45.5761 19.9532 45.1035 21.4198 44.1917 22.3355C43.3254 23.2179 41.8871 23.5328 40.9171 23.5328V23.5287ZM41.2404 3.70406C40.1337 6.09047 39.255 8.85805 38.484 12.3258C38.0115 14.4471 37.1369 18.3995 38.5462 20.4877C39.0643 21.2583 39.8643 21.7306 40.9793 21.9294C41.6798 21.917 42.6 21.6684 43.0476 21.2085C43.6487 20.5995 43.9761 19.4726 43.9968 17.948C44.0051 17.4466 43.9761 16.9039 43.9181 16.3321C43.7772 14.9774 43.3958 13.5977 43.0269 12.2637C42.8611 11.6671 42.6912 11.0456 42.542 10.4324C41.9741 8.075 41.4808 5.90818 41.2363 3.69992L41.2404 3.70406Z" fill="#8025BD"/>
<path d="M48.8637 86.9303H48.8429C48.4036 86.9303 48.043 86.574 48.043 86.1306V85.9774C48.043 85.5382 48.3994 85.1777 48.8429 85.1777C49.2865 85.1777 49.6305 85.5216 49.6429 85.9525C49.6885 86.1845 49.6305 86.4331 49.4813 86.6154C49.3279 86.8018 49.1041 86.9261 48.8637 86.9261V86.9303Z" fill="#8025BD"/>
<path d="M77.6668 86.9303C77.4347 86.9303 77.2026 86.8308 77.0492 86.6527C76.8959 86.4787 76.8171 86.2425 76.8503 86.0146C76.8544 85.9815 76.8627 85.9525 76.8669 85.9193C76.8959 85.505 77.2399 85.1777 77.6627 85.1777C78.0855 85.1777 78.4627 85.534 78.4627 85.9774V86.1306C78.4627 86.5698 78.1062 86.9303 77.6627 86.9303H77.6668Z" fill="#8025BD"/>
<path d="M63.2674 55.8035C60.2292 55.8035 57.3111 55.5963 54.8283 55.2069C50.3269 54.4984 48.043 53.3508 48.043 51.793C48.043 50.2352 50.3269 49.0834 54.8283 48.3749C57.2614 47.9938 60.109 47.7866 63.0643 47.7783H63.2674C63.5369 47.7783 63.8063 47.7783 64.0757 47.7907C67.7937 47.8322 71.2962 48.1926 73.9076 48.8017C76.9997 49.5226 78.5002 50.5003 78.5002 51.7888C78.5002 51.967 78.4753 52.1244 78.4214 52.2694C77.4971 55.0536 68.4694 55.7952 63.2674 55.7952V55.8035ZM63.0685 49.3775C60.196 49.3858 57.4313 49.5847 55.077 49.9534C50.7911 50.6246 49.701 51.5858 49.6429 51.8054C49.701 52.0001 50.7952 52.9572 55.077 53.6283C57.4769 54.0054 60.3079 54.2042 63.2674 54.2042C71.6693 54.2042 76.5769 52.6423 76.9002 51.7888C76.6184 50.9892 72.0133 49.4811 64.0343 49.39C63.7648 49.3775 63.5161 49.3775 63.2674 49.3775H63.0685Z" fill="#8025BD"/>
<path d="M63.2467 90C57.8997 90 48.702 89.2211 48.0844 86.3085C48.0554 86.1925 48.043 86.0931 48.043 85.9812V51.7967C48.043 51.3575 48.3994 50.9971 48.8429 50.9971C49.2865 50.9971 49.6429 51.3534 49.6429 51.7967C49.701 52.0038 50.7952 52.9609 55.077 53.6321C57.4769 54.0091 60.3079 54.208 63.2674 54.208C71.7232 54.208 76.6391 52.6253 76.9044 51.776C77.0204 51.399 77.4018 51.1628 77.7873 51.2249C78.1769 51.2829 78.467 51.6185 78.467 52.0121V85.9771C78.467 86.0889 78.4505 86.1801 78.438 86.2298C78.438 86.2422 78.4297 86.2712 78.4297 86.2836C77.8411 89.2128 68.6103 89.9958 63.2509 89.9958L63.2467 90ZM49.6429 85.9563L49.6471 85.9771C49.701 86.1801 50.5341 86.9092 53.5268 87.5431C56.1588 88.0983 59.6116 88.4049 63.2467 88.4049C66.8819 88.4049 70.347 88.0983 72.9791 87.5431C75.951 86.9175 76.7925 86.1925 76.8588 85.9812C76.8588 85.9646 76.8629 85.9481 76.8671 85.9356V53.7812C73.862 55.3432 67.371 55.8072 63.2674 55.8072C60.2292 55.8072 57.3111 55.6 54.8283 55.2106C52.5071 54.846 50.7745 54.3654 49.6429 53.7688V85.9563Z" fill="#8025BD"/>
<path d="M63.6283 46.5767C63.5827 46.5767 63.5413 46.5767 63.4957 46.5642C61.9081 46.2991 60.7102 45.5823 59.931 44.4306C58.1362 41.7707 59.1103 37.3832 59.6326 35.0299C60.7268 30.0955 62.0408 26.52 63.8977 23.4376C63.8977 23.4376 63.8977 23.4376 63.8977 23.4335C64.1257 23.0564 64.6148 22.9363 64.992 23.1642C65.3402 23.3754 65.4728 23.8105 65.307 24.1751C65.2904 24.3491 65.3526 24.7841 65.3775 24.9788C65.3982 25.1363 65.4189 25.2771 65.4231 25.3724C65.5889 27.9411 66.1692 30.5015 66.7992 33.1117C66.9443 33.7124 67.1142 34.3256 67.2759 34.9222C67.6572 36.306 68.0551 37.7395 68.2085 39.2186C68.2748 39.8815 68.3038 40.4698 68.2955 41.0208C68.2748 42.9888 67.8023 44.4596 66.8904 45.3835C66.0117 46.2701 64.5775 46.585 63.6159 46.585L63.6283 46.5767ZM63.9516 26.7479C62.8491 29.1302 61.9703 31.8978 61.1952 35.3738C60.7227 37.495 59.8481 41.4475 61.2574 43.5357C61.7755 44.3063 62.5755 44.7786 63.6905 44.9774C64.391 44.965 65.307 44.7164 65.763 44.2524C66.364 43.6392 66.6914 42.5123 66.708 40.9918C66.7122 40.4988 66.6873 39.9726 66.6293 39.3719C66.4883 38.0295 66.1236 36.7203 65.7422 35.3365C65.5764 34.7316 65.4024 34.1019 65.2531 33.4804C64.706 31.2224 64.1962 28.9976 63.9475 26.7438L63.9516 26.7479Z" fill="#8025BD"/>
<path d="M1.3207 84.8131H1.29998C0.860612 84.8131 0.5 84.4568 0.5 84.0135V83.8602C0.5 83.421 0.856467 83.0605 1.29998 83.0605C1.74349 83.0605 2.09996 83.4169 2.09996 83.8602C2.1497 84.0963 2.09167 84.3366 1.94245 84.5231C1.78908 84.7095 1.56526 84.8131 1.32485 84.8131H1.3207Z" fill="#8025BD"/>
<path d="M30.1199 84.8131C29.8712 84.8131 29.6266 84.6971 29.4774 84.5023C29.3282 84.3076 29.2619 84.0549 29.324 83.8187C29.3448 83.3961 29.6929 83.0605 30.1199 83.0605C30.5468 83.0605 30.9198 83.4169 30.9198 83.8602V84.0135C30.9198 84.4526 30.5634 84.8131 30.1199 84.8131Z" fill="#8025BD"/>
<path d="M26.3107 69.2599C23.7118 68.6592 20.2425 68.3029 16.5244 68.2573C16.255 68.249 15.9897 68.249 15.7245 68.249H15.5504C9.95882 68.2656 0.5 69.1315 0.5 72.2637C0.5 75.3958 10.0707 76.2742 15.7245 76.2742C19.7534 76.2742 23.5129 75.9179 26.3149 75.2674C29.0215 74.6376 30.5096 73.8173 30.8743 72.7608C30.9489 72.5703 30.9572 72.388 30.9572 72.2637C30.9572 70.9669 29.4402 69.985 26.3149 69.2641L26.3107 69.2599ZM25.9501 73.7096C23.2642 74.3311 19.6332 74.6749 15.7245 74.6749C6.59725 74.6749 2.27819 72.939 2.09581 72.272C2.27405 71.5925 6.53507 69.869 15.5504 69.8441H15.7245C15.9732 69.8441 16.2219 69.8441 16.4706 69.8524C16.4747 69.8524 16.512 69.8524 16.5203 69.8524C20.114 69.898 23.4631 70.2418 25.9501 70.8177C28.4993 71.406 29.2619 72.0565 29.349 72.2595C29.2536 72.4791 28.4868 73.1213 25.946 73.7096H25.9501Z" fill="#8025BD"/>
<path d="M15.704 87.8829C10.3445 87.8829 1.12198 87.0998 0.533398 84.1707C0.516819 84.092 0.496094 83.9842 0.496094 83.8599V72.2635C0.496094 71.8243 0.852561 71.4639 1.29607 71.4639C1.73958 71.4639 2.09605 71.8202 2.09605 72.2635C2.27428 72.9429 6.59749 74.6789 15.7247 74.6789C19.6334 74.6789 23.2685 74.335 25.9503 73.7136C28.5575 73.1087 29.2953 72.4499 29.3575 72.2469C29.4736 71.8699 29.8508 71.6379 30.2404 71.6959C30.63 71.7539 30.9202 72.0895 30.9202 72.4831V83.8599C30.9202 83.9677 30.9077 84.0754 30.8787 84.1914C30.2487 87.104 21.0551 87.8829 15.704 87.8829ZM2.09605 83.8268C2.35304 84.7093 7.21923 86.2836 15.704 86.2836C24.8146 86.2836 29.1337 84.5436 29.3161 83.8517C29.3161 83.8392 29.3202 83.8309 29.3243 83.8185V74.248C28.5824 74.6292 27.5793 74.9648 26.3151 75.2631C23.5172 75.9135 19.7536 76.2698 15.7247 76.2698C11.4885 76.2698 5.0597 75.7975 2.09605 74.2273V83.8227V83.8268Z" fill="#8025BD"/>
<path d="M16.0895 66.77C16.0439 66.77 16.0024 66.77 15.9568 66.7576C14.3693 66.4966 13.1714 65.7757 12.3963 64.6281C10.5974 61.9682 11.5715 57.5807 12.0937 55.2233C13.1838 50.3013 14.4978 46.7258 16.3506 43.6351C16.3506 43.6351 16.3506 43.631 16.3547 43.6268C16.5827 43.2498 17.0718 43.1296 17.449 43.3575C17.7972 43.5688 17.9298 44.0038 17.7682 44.3643C17.7516 44.5341 17.8138 44.9692 17.8386 45.1597C17.8594 45.3213 17.8801 45.4663 17.8884 45.5616C18.0542 48.1262 18.6345 50.6866 19.2645 53.305C19.4096 53.9016 19.5754 54.5107 19.737 55.099C20.1184 56.4911 20.5163 57.9287 20.6738 59.4119C20.7401 60.0334 20.7733 60.6424 20.7608 61.2142C20.7401 63.1821 20.2676 64.6488 19.3557 65.5727C18.4811 66.4593 17.0428 66.77 16.0812 66.77H16.0895ZM16.4086 46.9454C15.3019 49.3318 14.4273 52.0994 13.6564 55.5671C13.1838 57.6884 12.3093 61.6409 13.7227 63.7331C14.2408 64.5038 15.0366 64.9719 16.1558 65.1708C16.8563 65.1584 17.7723 64.9098 18.2324 64.4458C18.8334 63.8367 19.1609 62.7098 19.1733 61.1893C19.1816 60.6797 19.1567 60.137 19.0946 59.5776C18.9495 58.2187 18.5723 56.8474 18.2034 55.5174C18.0376 54.9167 17.8677 54.2952 17.7184 53.6738C17.1713 51.4116 16.6615 49.191 16.4128 46.9413L16.4086 46.9454Z" fill="#8025BD"/>
<path d="M16.6608 72.8354C16.238 72.8354 15.8857 72.504 15.865 72.0772C15.7116 68.9533 15.55 65.7259 15.9147 62.5357C15.9645 62.0966 16.3624 61.79 16.7976 61.8355C17.237 61.8853 17.552 62.283 17.4981 62.718C17.1458 65.7797 17.3033 68.9409 17.4566 71.9985C17.4774 72.4377 17.1375 72.8147 16.6981 72.8354C16.6857 72.8354 16.6732 72.8354 16.6567 72.8354H16.6608Z" fill="#8025BD"/>
<path d="M63.6157 51.9502C63.2883 51.9502 62.9815 51.7472 62.8655 51.4199C61.8334 48.5487 62.0779 45.226 63.5204 42.533C63.7276 42.1435 64.2126 41.9985 64.6022 42.2057C64.9918 42.4128 65.1369 42.8976 64.9297 43.287C63.6945 45.5864 63.4872 48.4244 64.3701 50.8771C64.5193 51.2914 64.3038 51.7513 63.8893 51.9005C63.7981 51.9336 63.7069 51.946 63.6199 51.946L63.6157 51.9502Z" fill="#8025BD"/>
<path d="M40.503 28.3637C40.4035 28.3637 40.2999 28.343 40.2004 28.3016C39.7942 28.1358 39.5994 27.6677 39.7652 27.2575C40.6895 25.012 40.7102 22.4267 39.8232 20.1646C39.6616 19.7544 39.8647 19.2904 40.275 19.1288C40.6854 18.9672 41.1496 19.1702 41.3113 19.5804C42.3475 22.2195 42.3226 25.2398 41.2408 27.8624C41.1123 28.169 40.8139 28.3596 40.503 28.3596V28.3637Z" fill="#8025BD"/>
</g>
<defs>
<clipPath id="clip0_263_82269">
<rect width="78" height="90" fill="white" transform="translate(0.5)"/>
</clipPath>
</defs>
</svg>
