<svg width="35" height="42" viewBox="0 0 35 42" fill="none" xmlns="http://www.w3.org/2000/svg">
<path d="M10.6611 14.1931L20.7065 7.37598" stroke="#8025BD" stroke-width="1.5" stroke-miterlimit="10" stroke-linecap="round" stroke-linejoin="round"/>
<path d="M29.0582 23.5614C29.0582 29.9601 23.871 40.9998 17.4725 40.9998C11.0737 40.9998 5.88672 29.9599 5.88672 23.5614C5.88672 17.1626 11.0739 11.9756 17.4725 11.9756C23.871 11.9754 29.0582 17.1626 29.0582 23.5614Z" stroke="#8025BD" stroke-width="1.5" stroke-miterlimit="10" stroke-linecap="round" stroke-linejoin="round"/>
<path d="M17.5777 1C9.16458 1 1.56836 10.1479 1.56836 18.5613C1.56836 23.2488 3.92821 27.9217 7.47169 31.1428C6.46635 28.4353 5.8877 25.6942 5.8877 23.5617C5.8877 17.163 11.0749 11.976 17.4734 11.976C23.8722 11.976 29.0592 17.1632 29.0592 23.5617C29.0592 25.7657 28.4436 28.6198 27.3751 31.4147C31.0892 28.1883 33.5868 23.383 33.5868 18.5613C33.587 10.1479 25.9908 1 17.5777 1Z" stroke="#8025BD" stroke-width="1.5" stroke-miterlimit="10" stroke-linecap="round" stroke-linejoin="round"/>
<path d="M9.60156 24.0938C9.60156 24.0938 11.9833 25.5993 14.1813 24.0938" stroke="#8025BD" stroke-width="1.5" stroke-miterlimit="10" stroke-linecap="round" stroke-linejoin="round"/>
<path d="M24.8307 24.0938C24.8307 24.0938 22.4489 25.5993 20.251 24.0938" stroke="#8025BD" stroke-width="1.5" stroke-miterlimit="10" stroke-linecap="round" stroke-linejoin="round"/>
<path d="M14.1787 33.5293C14.1787 33.5293 16.5812 35.1804 20.2509 33.5293" stroke="#8025BD" stroke-width="1.5" stroke-miterlimit="10" stroke-linecap="round" stroke-linejoin="round"/>
</svg>
