<svg width="45" height="42" viewBox="0 0 45 42" fill="none" xmlns="http://www.w3.org/2000/svg">
<path d="M5.4131 33.076C2.68916 29.7207 2.80017 24.7847 5.84471 21.5514C8.49944 18.7323 12.9369 18.599 15.7559 21.2537C18.0113 23.3774 18.1177 26.9275 15.994 29.1826C14.2951 30.987 11.4552 31.0721 9.65077 29.3731C8.20727 28.0139 8.13905 25.742 9.49825 24.2985C10.5857 23.1439 12.4031 23.0893 13.558 24.1767C14.4818 25.0466 14.5254 26.5007 13.6556 27.4246" stroke="#8025BD" stroke-width="1.5" stroke-miterlimit="10" stroke-linecap="round" stroke-linejoin="round"/>
<path d="M11.6794 35.2211C17.3212 35.2211 21.8949 30.6474 21.8949 25.0055C21.8949 19.3637 17.3212 14.79 11.6794 14.79C6.03751 14.79 1.46387 19.3637 1.46387 25.0055C1.46387 30.6474 6.03751 35.2211 11.6794 35.2211Z" stroke="#8025BD" stroke-width="1.5" stroke-miterlimit="10" stroke-linecap="round" stroke-linejoin="round"/>
<path d="M18.0584 32.9682L35.0858 19.5806C35.3807 19.3737 35.6621 19.1505 35.9329 18.9144L36.0413 18.8291L36.035 18.8216C38.125 16.951 39.448 14.2411 39.448 11.2155C39.448 5.57358 34.8744 1 29.2325 1C26.9246 1 24.8023 1.77458 23.0918 3.06532L23.0848 3.05678L22.8027 3.28125C22.7702 3.30768 22.7367 3.33261 22.7048 3.35928L6.77539 16.0435" stroke="#8025BD" stroke-width="1.5" stroke-miterlimit="10" stroke-linecap="round" stroke-linejoin="round"/>
<path d="M34.3249 34.5189C35.6375 34.5189 36.7015 33.4548 36.7015 32.1423C36.7015 30.8297 35.6375 29.7656 34.3249 29.7656C33.0123 29.7656 31.9482 30.8297 31.9482 32.1423C31.9482 33.4548 33.0123 34.5189 34.3249 34.5189Z" stroke="#8025BD" stroke-width="1.5" stroke-miterlimit="10" stroke-linecap="round" stroke-linejoin="round"/>
<path d="M43.8465 28.9169C43.2536 27.1986 41.341 26.3 40.081 26.7346C39.0278 27.098 36.6008 29.0256 36.1758 30.6526C36.5047 31.0603 36.7022 31.5782 36.7022 32.1427C36.7022 32.1784 36.6985 32.2129 36.6969 32.2484C38.0113 33.2985 41.1639 33.324 42.2279 32.9571C43.4879 32.5222 44.4394 30.6352 43.8465 28.9169Z" stroke="#8025BD" stroke-width="1.5" stroke-miterlimit="10" stroke-linecap="round" stroke-linejoin="round"/>
<path d="M41.1495 36.2091C40.5158 35.2797 37.9756 33.4195 36.2943 33.4738C35.9741 33.9462 35.4877 34.2945 34.92 34.4409C34.2881 35.9992 35.0833 38.9967 35.7112 39.9172C36.4621 41.0185 38.533 41.44 40.0349 40.416C41.5365 39.3923 41.9004 37.3103 41.1495 36.2091Z" stroke="#8025BD" stroke-width="1.5" stroke-miterlimit="10" stroke-linecap="round" stroke-linejoin="round"/>
<path d="M32.3577 33.4738C30.6761 33.4195 28.1359 35.28 27.5025 36.2091C26.7516 37.3103 27.1155 39.3923 28.6174 40.4163C30.1193 41.4403 32.1901 41.0187 32.9411 39.9175C33.5689 38.9967 34.3642 35.9994 33.7323 34.4412C33.164 34.2945 32.6776 33.9462 32.3577 33.4738Z" stroke="#8025BD" stroke-width="1.5" stroke-miterlimit="10" stroke-linecap="round" stroke-linejoin="round"/>
<path d="M31.9499 32.1428C31.9499 31.5783 32.1478 31.0604 32.4764 30.6527C32.0514 29.0257 29.6244 27.098 28.5712 26.7347C27.3111 26.2998 25.3986 27.1987 24.8056 28.917C24.2127 30.6353 25.1643 32.5223 26.4243 32.9571C27.4883 33.3243 30.6408 33.2986 31.9552 32.2485C31.9537 32.2132 31.9499 32.1785 31.9499 32.1428Z" stroke="#8025BD" stroke-width="1.5" stroke-miterlimit="10" stroke-linecap="round" stroke-linejoin="round"/>
<path d="M33.5233 29.909C33.7747 29.8184 34.0447 29.7666 34.3273 29.7666C34.6366 29.7666 34.9313 29.8275 35.2021 29.935C36.6227 29.0338 37.6741 26.064 37.6741 24.9388C37.6741 23.6061 36.2007 22.0908 34.383 22.0908C32.5652 22.0908 31.0918 23.6058 31.0918 24.9388C31.092 26.0532 32.1233 28.9774 33.5233 29.909Z" stroke="#8025BD" stroke-width="1.5" stroke-miterlimit="10" stroke-linecap="round" stroke-linejoin="round"/>
</svg>
