<svg width="43" height="42" viewBox="0 0 43 42" fill="none" xmlns="http://www.w3.org/2000/svg">
<path d="M41.5682 40.5605L31.5049 30.4961" stroke="#8025BD" stroke-width="1.5" stroke-miterlimit="10" stroke-linecap="round" stroke-linejoin="round"/>
<path d="M24.7893 21.6679C24.4782 19.4323 25.1819 17.0828 26.9006 15.3638L34.0456 8.21714C35.8106 6.45166 38.9844 5.65795 41.2729 6.03382" stroke="#8025BD" stroke-width="1.5" stroke-miterlimit="10" stroke-linecap="round" stroke-linejoin="round"/>
<path d="M29.764 5.97401L24.1689 11.5703L27.437 14.8392L33.0321 9.24285L29.764 5.97401Z" stroke="#8025BD" stroke-width="1.5" stroke-miterlimit="10" stroke-linecap="round" stroke-linejoin="round"/>
<path d="M25.1904 5.35126L23.5439 6.99805L26.1415 9.59623L27.788 7.94945L25.1904 5.35126Z" stroke="#8025BD" stroke-width="1.5" stroke-miterlimit="10" stroke-linecap="round" stroke-linejoin="round"/>
<path d="M27.3626 3.17525L17.7632 12.7766L14.8281 12.239L25.6262 1.43848L27.3626 3.17525Z" stroke="#8025BD" stroke-width="1.5" stroke-miterlimit="10" stroke-linecap="round" stroke-linejoin="round"/>
<path d="M1.56934 39.0704L9.1398 36.5741L18.3732 37.6066C20.0748 37.7871 21.786 37.3686 23.2126 36.4234L38.4681 25.5046C39.2129 25.0112 39.4452 24.0231 38.9985 23.2492C38.5413 22.4573 37.5378 22.1722 36.7329 22.6057L24.5051 29.19" stroke="#8025BD" stroke-width="1.5" stroke-miterlimit="10" stroke-linecap="round" stroke-linejoin="round"/>
<path d="M12.0975 29.6501C12.0975 29.6501 12.0975 29.6501 14.7971 28.8118C16.596 28.2532 20.1928 29.1711 22.3927 29.8456C23.4282 30.1632 24.5205 29.588 24.8466 28.5552C25.1821 27.4929 24.5709 26.3639 23.4981 26.0641L16.5129 24.1119C13.4763 23.2634 10.2179 23.8858 7.70758 25.7939L1.56934 29.612" stroke="#8025BD" stroke-width="1.5" stroke-miterlimit="10" stroke-linecap="round" stroke-linejoin="round"/>
<path d="M23.501 26.066L30.0701 22.4305C31.5389 21.6176 33.2809 21.4569 34.8736 21.987L36.7357 22.6069" stroke="#8025BD" stroke-width="1.5" stroke-miterlimit="10" stroke-linecap="round" stroke-linejoin="round"/>
<path d="M19.3477 24.9064L24.6135 21.9892C26.2389 21.0889 28.1427 20.8308 29.9491 21.2662L31.6622 21.6792" stroke="#8025BD" stroke-width="1.5" stroke-miterlimit="10" stroke-linecap="round" stroke-linejoin="round"/>
<path d="M13.8632 18.9365C13.8632 20.4521 12.6348 21.6807 11.1196 21.6807C9.60433 21.6807 8.37598 20.4521 8.37598 18.9365C8.37598 17.4209 11.1196 13.6484 11.1196 13.6484C11.1196 13.6484 13.8632 17.4209 13.8632 18.9365Z" stroke="#8025BD" stroke-width="1.5" stroke-miterlimit="10" stroke-linecap="round" stroke-linejoin="round"/>
</svg>
