<svg width="93" height="90" viewBox="0 0 93 90" fill="none" xmlns="http://www.w3.org/2000/svg">
<g clip-path="url(#clip0_263_82123)">
<path d="M48.5313 89.9995C47.2239 89.9995 45.8462 89.7307 44.1844 89.1567C42.7432 88.659 41.2653 87.9987 39.6536 87.136C38.2358 86.3761 36.7947 85.5134 35.3736 84.5777C34.0762 83.7216 32.9159 82.912 31.8325 82.1057C30.9063 81.4156 30.0069 80.732 29.1809 79.9291C28.3116 79.0829 27.5559 78.1041 26.8905 77.2348C25.9709 76.0436 25.1216 74.786 24.3659 73.5052C23.423 71.9125 22.5302 70.1407 21.6307 68.0901C20.7012 65.9632 19.7917 63.5908 18.7752 60.6244C17.7486 57.6315 16.8224 54.6518 15.8862 51.6091L15.7758 51.2574C15.7056 51.0417 15.6354 50.826 15.5752 50.6104C14.8563 49.7311 12.4555 46.0712 11.6095 43.2342C11.2718 42.0928 10.9842 40.7158 10.7702 39.2525C10.72 38.8975 10.9641 38.5723 11.3186 38.5225C11.6697 38.4661 12.0007 38.7183 12.0509 39.07C12.2515 40.4736 12.529 41.7876 12.85 42.8693C13.7194 45.7892 16.3376 49.5453 16.6084 49.8373C16.682 49.9136 16.7555 50.0297 16.7823 50.1326C16.8492 50.3781 16.9261 50.6236 17.0063 50.8659L17.12 51.2309C18.0529 54.2603 18.9758 57.23 19.9956 60.203C21.0021 63.1362 21.8982 65.4788 22.8144 67.5758C23.6905 69.5766 24.5599 71.302 25.4761 72.8482C26.205 74.0826 27.0276 75.2937 27.9137 76.4484C28.5824 77.3177 29.2779 78.2202 30.0771 79C30.8495 79.7499 31.7122 80.4069 32.6016 81.0705C33.6649 81.8635 34.8018 82.6565 36.0825 83.4993C37.4701 84.4151 38.8779 85.2546 40.2622 85.9945C41.8103 86.8241 43.2281 87.4578 44.6024 87.9323C46.1238 88.4599 47.3677 88.7021 48.5179 88.7021C56.1016 88.6357 65.872 80.4235 67.3533 78.9137L67.5506 78.7146C67.9753 78.2866 68.42 77.8353 68.8881 77.3144C69.1288 77.0523 69.5368 77.029 69.8043 77.2679C70.0684 77.5068 70.0919 77.9117 69.8544 78.1771C69.3729 78.7146 68.9115 79.1792 68.4768 79.6205L68.2795 79.8196C68.1826 79.9191 57.4792 89.9132 48.5246 89.9928L48.5313 89.9995Z" fill="#8025BD"/>
<path d="M76.2706 65.3161C76.1904 65.3161 76.1101 65.3028 76.0299 65.2697C75.6989 65.1369 75.535 64.762 75.6688 64.4302C76.5014 62.3564 77.3105 60.1565 78.0763 57.8969C79.0326 55.0698 79.9254 52.1333 80.7279 49.1703C80.758 49.0541 80.8215 48.9513 80.9118 48.8683C81.1793 48.6195 81.4501 48.3308 81.7343 47.9824C82.0018 47.5776 84.3826 43.4631 85.0447 40.4138C85.3122 39.1861 85.5328 37.9053 85.6967 36.608C85.7435 36.2529 86.0712 36.0074 86.4223 36.0472C86.7767 36.0903 87.0275 36.4155 86.984 36.7672C86.8135 38.1044 86.5895 39.4184 86.3119 40.6826C85.5663 44.1069 82.8913 48.6095 82.7408 48.792C82.4633 49.1304 82.1991 49.4191 81.935 49.6779C81.1391 52.6078 80.253 55.5111 79.3068 58.3083C78.5344 60.5911 77.7151 62.811 76.8759 64.9047C76.7755 65.1602 76.5314 65.3095 76.274 65.3095L76.2706 65.3161Z" fill="#8025BD"/>
<path d="M11.6265 54.0182C11.3925 54.0182 11.1685 53.8921 11.0514 53.6731C7.69763 47.2924 8.09888 41.728 12.2752 36.6679C14.3316 34.1694 17.2207 31.8268 21.6378 29.0695C31.445 22.9177 39.2861 13.2687 44.9371 0.387839C45.0809 0.0593475 45.4621 -0.0899667 45.7897 0.0560294C46.1174 0.198708 46.2679 0.57697 46.1241 0.905462C40.3662 14.0285 32.3612 23.8733 22.3266 30.1644C18.0298 32.8421 15.2412 35.1017 13.2784 37.4875C9.46982 42.1062 9.11538 47.2062 12.2017 53.0725C12.3689 53.3878 12.2451 53.7793 11.9275 53.9452C11.8305 53.995 11.7302 54.0182 11.6265 54.0182Z" fill="#8025BD"/>
<path d="M84.1821 68.4684C84.0015 68.4684 83.821 68.3921 83.6939 68.2461C83.4599 67.9773 83.4866 67.5725 83.7541 67.3369C88.218 63.4481 91.4046 56.5963 91.6822 50.2819C91.8259 47.0269 91.2609 42.3815 87.7666 38.7516C86.827 37.7794 85.7069 36.9166 84.3393 36.117C81.2831 34.3153 77.4645 33.0975 73.7696 31.9229C70.0413 30.735 66.186 29.504 63.2067 27.6791C53.7806 21.9023 46.4344 11.145 44.9331 0.915324C44.8796 0.563606 45.127 0.235114 45.4814 0.182025C45.8325 0.128935 46.1636 0.374474 46.2171 0.726192C47.6683 10.6008 54.7704 20.9898 63.8888 26.5808C66.7344 28.3228 70.3456 29.4742 74.1675 30.6919C77.9293 31.8897 81.8214 33.1307 85.0013 35.0054C86.4692 35.8681 87.683 36.8005 88.7062 37.859C91.7256 40.9946 93.2036 45.3114 92.9829 50.3417C92.6886 56.9812 89.3282 64.2047 84.6135 68.3091C84.4897 68.4153 84.3393 68.4684 84.1888 68.4684H84.1821Z" fill="#8025BD"/>
<path d="M13.8296 67.4337C13.7594 67.4337 13.6925 67.4237 13.6257 67.4038C3.41716 64.0525 -2.39096 51.9647 0.942773 41.0117C2.30703 36.5223 4.91182 31.7243 8.68023 26.7505C11.4923 23.0442 14.9431 19.9219 18.2835 16.8991C19.621 15.6913 20.9986 14.4437 22.3194 13.1729C22.5769 12.9273 22.9882 12.934 23.2356 13.1894C23.4831 13.4449 23.4764 13.8531 23.2189 14.1019C21.8847 15.3827 20.4971 16.6403 19.1529 17.8547C15.8559 20.8343 12.4487 23.9168 9.71346 27.5269C6.03532 32.378 3.50075 37.0399 2.17996 41.3833C-0.953139 51.686 4.47378 63.0405 14.0302 66.1761C14.3713 66.2889 14.5552 66.6539 14.4415 66.9924C14.3513 67.2644 14.0971 67.4337 13.8263 67.4337H13.8296Z" fill="#8025BD"/>
<path d="M78.0002 22.788C77.9667 22.788 77.9333 22.788 77.9032 22.7814C73.2219 22.0713 68.5106 20.2961 64.9762 17.9038C58.8504 13.7628 56.6135 7.88974 54.5102 1.20046C54.4032 0.862018 54.5938 0.500346 54.9349 0.390849C55.2793 0.28467 55.6404 0.473801 55.7474 0.815565C57.7771 7.26594 59.9238 12.9266 65.7051 16.8353C69.0857 19.1182 73.6031 20.8237 78.1005 21.5039C78.4549 21.557 78.6957 21.8855 78.6422 22.2372C78.592 22.5557 78.3145 22.788 78.0035 22.788H78.0002Z" fill="#8025BD"/>
<path d="M48.4939 78.2832C46.4375 78.2832 44.7155 77.7357 42.9199 76.508C40.8735 75.0779 39.0779 71.2887 39.0612 71.2489C39.021 71.1659 39.001 71.073 39.001 70.9801C39.001 70.718 39.1581 70.4791 39.3989 70.3795C39.643 70.2767 39.9205 70.3298 40.1044 70.5122C40.1144 70.5189 40.1847 70.5653 40.1947 70.5687C40.2248 70.5819 40.2816 70.6217 40.3117 70.6383C42.1408 71.7897 46.1633 73.0041 48.4371 73.0871C48.5574 73.097 48.6477 73.097 48.7246 73.097C48.8082 73.097 48.8952 73.097 48.9888 73.0871C51.2358 72.9643 55.5793 71.7267 57.278 70.5156C57.4652 70.3298 57.7695 70.2501 58.0103 70.353C58.251 70.4525 58.4383 70.6649 58.4383 70.927C58.4383 71.0498 58.3981 71.1825 58.3313 71.292C58.1005 71.7731 56.4186 75.1709 54.5327 76.4815C52.7104 77.7258 50.9884 78.2799 48.9453 78.2799H48.7046H48.4839L48.4939 78.2832ZM41.2647 72.5695C41.9268 73.6412 42.8028 74.849 43.6588 75.4463C45.2404 76.528 46.6916 76.9925 48.4939 76.9925H48.7146H48.9554C50.7443 76.9925 52.1921 76.5246 53.8038 75.423C54.6531 74.8324 55.5225 73.6313 56.1812 72.5529C53.9576 73.5118 50.9148 74.2783 49.0858 74.3778C48.8517 74.3977 48.5976 74.4011 48.3535 74.3778C46.4475 74.3048 43.4515 73.5118 41.2647 72.5695Z" fill="#8025BD"/>
<path d="M48.7282 74.3915C48.6045 74.3915 48.4774 74.3915 48.3537 74.3815C45.896 74.2886 41.6361 73.0012 39.6231 71.7337C39.5997 71.7337 39.5128 71.6706 39.4493 71.6275C39.3623 71.5711 39.2988 71.5246 39.242 71.4782C38.9143 71.2492 38.6769 71.0004 38.5364 70.7382C38.4294 70.5425 38.4328 70.2969 38.5498 70.1045C38.6668 69.912 38.8741 69.7893 39.1015 69.786C39.2319 69.8025 39.3021 69.8125 39.3824 69.8457C39.9274 70.0779 40.8771 70.1443 41.8768 69.9983C42.5188 69.9087 43.0773 69.7793 43.6223 69.6532C44.7257 69.3977 45.7924 69.1953 46.8089 69.4077C47.5278 69.5504 47.9257 69.7295 48.2133 69.8589C48.444 69.9651 48.551 70.0116 48.7583 70.0249C48.882 70.0083 48.9924 69.9585 49.2164 69.8556C49.504 69.7229 49.8952 69.547 50.6308 69.3944C51.6339 69.1854 52.714 69.3878 53.8141 69.6433C54.3558 69.766 54.9142 69.8954 55.5495 69.985C55.8939 70.0315 56.2349 70.0547 56.5526 70.0547C57.5457 70.0547 58.0272 69.8224 58.0305 69.8224C58.2847 69.6964 58.5956 69.7495 58.7896 69.9519C58.9835 70.1576 59.0303 70.4595 58.8932 70.7051C58.7495 70.9672 58.5154 71.216 58.1777 71.4682C58.1442 71.4915 58.1141 71.5114 58.0807 71.528C56.1447 72.9116 51.5336 74.2322 49.0893 74.3716C48.9723 74.3815 48.8519 74.3815 48.7316 74.3815L48.7282 74.3915ZM41.6428 71.3289C43.6791 72.2347 46.6216 73.0244 48.4406 73.0908C48.561 73.1007 48.6513 73.1007 48.7282 73.1007C48.8118 73.1007 48.8987 73.1007 48.9924 73.0908C50.7412 72.9945 53.7572 72.2247 55.8103 71.3156C55.6632 71.3056 55.516 71.289 55.3689 71.2691C54.6701 71.1696 54.0582 71.0269 53.5165 70.9041C52.5067 70.6686 51.6707 70.496 50.8916 70.6619C50.2964 70.7847 50.0089 70.9174 49.7514 71.0336C49.4839 71.1563 49.2064 71.2824 48.765 71.3156C48.23 71.289 47.9491 71.163 47.6749 71.0369C47.4175 70.9207 47.1299 70.7913 46.5481 70.6752C45.7456 70.506 44.923 70.6818 43.9132 70.9108C43.3715 71.0369 42.7563 71.1796 42.0607 71.2791C41.9203 71.3023 41.7799 71.3189 41.6394 71.3289H41.6428Z" fill="#8025BD"/>
<path d="M39.77 71.7106C39.6731 71.7106 39.5761 71.6874 39.4825 71.641C39.4123 71.6045 39.3354 71.5547 39.2651 71.5016C39.1013 71.3788 39.001 71.1831 39.001 70.9807C39.001 70.7185 39.1581 70.4796 39.3989 70.3801C39.6229 70.2839 39.8837 70.3237 40.0676 70.4796C40.285 70.5825 40.4388 70.8048 40.4388 71.0636C40.4388 71.422 40.178 71.6907 39.7834 71.7073H39.77V71.7106Z" fill="#8025BD"/>
<path d="M57.6632 71.6904C57.4492 71.6904 57.2419 71.5842 57.1182 71.395C56.9409 71.1196 56.9978 70.7513 57.2552 70.5423L57.2653 70.5357C57.4525 70.3498 57.7668 70.2636 58.0109 70.3631C58.2517 70.4627 58.449 70.6651 58.449 70.9272C58.449 71.0865 58.3788 71.2723 58.2717 71.3917C58.2417 71.4249 58.1948 71.468 58.1581 71.4913C58.0845 71.5444 58.031 71.5809 57.9541 71.6174C57.8605 71.6638 57.7635 71.687 57.6665 71.687L57.6632 71.6904Z" fill="#8025BD"/>
<path d="M31.5451 44.9563C25.8307 45.2616 23.2961 41.4325 20.5107 42.4213C20.5107 42.4213 22.0422 40.53 23.791 40.9547C26.2654 41.5586 27.2284 43.357 31.3111 43.4101C35.3804 43.4599 37.5305 41.6781 38.3999 41.2102C38.3999 41.2102 36.1863 44.7042 31.5485 44.9563H31.5451Z" fill="#8025BD"/>
<path d="M63.4275 44.9563C69.142 45.2616 71.6766 41.4325 74.4619 42.4213C74.4619 42.4213 72.9338 40.53 71.1817 40.9547C68.7107 41.5586 67.741 43.357 63.6616 43.4101C59.5956 43.4599 57.4422 41.6781 56.5762 41.2102C56.5762 41.2102 58.7897 44.7042 63.4242 44.9563H63.4275Z" fill="#8025BD"/>
<path d="M48.3438 60.6409C46.147 60.6409 44.1675 58.9752 44.0839 58.9055C43.813 58.6732 43.7796 58.2651 44.0136 57.9964C44.2477 57.7276 44.6556 57.6944 44.9265 57.9234C44.9432 57.9399 46.6318 59.3501 48.3438 59.3501H48.3706C50.4437 59.3335 51.5839 57.9134 51.6307 57.8537C51.8514 57.575 52.256 57.5219 52.5402 57.7409C52.8211 57.9565 52.8746 58.3613 52.6573 58.6434C52.5971 58.723 51.1024 60.6176 48.3806 60.6409H48.3438Z" fill="#8025BD"/>
<path d="M19.5909 33.5552C19.3535 33.5552 19.1261 33.4258 19.0091 33.1968C18.8486 32.8783 18.979 32.4901 19.3 32.3341C19.5909 32.1914 19.9287 31.9957 20.3132 31.78C21.7209 30.9803 23.8475 29.7692 26.3955 29.3478C29.6189 28.8037 39.4094 31.8198 39.8207 31.9492C40.1617 32.0554 40.3523 32.4138 40.2487 32.7555C40.1417 33.0973 39.7806 33.2897 39.4395 33.1836C36.6943 32.3341 29.0404 30.2271 26.6095 30.622C24.2889 31.0069 22.3629 32.0985 20.9585 32.8982C20.5539 33.1305 20.1928 33.3329 19.8852 33.4855C19.7916 33.5319 19.6912 33.5552 19.5943 33.5552H19.5909Z" fill="#8025BD"/>
<path d="M74.4386 33.2964C74.3417 33.2964 74.2414 33.2732 74.1511 33.23C73.8401 33.0774 73.4823 32.8717 73.0777 32.6394C71.67 31.8397 69.7473 30.7448 67.4268 30.3632C64.9992 29.965 57.342 32.0753 54.5968 32.9214C54.2557 33.0309 53.8912 32.8352 53.7876 32.4967C53.6806 32.155 53.8712 31.7966 54.2122 31.6904C54.6269 31.561 64.4207 28.5449 67.6408 29.089C70.1887 29.5104 72.3154 30.7182 73.7231 31.5179C74.1076 31.7369 74.4453 31.9293 74.7362 32.072C75.0572 32.2313 75.1843 32.6195 75.0271 32.938C74.9135 33.1637 74.6861 33.2931 74.4453 33.2931L74.4386 33.2964Z" fill="#8025BD"/>
<path d="M83.5302 89.0545C81.8182 89.0545 80.2165 88.215 79.2468 86.8114C79.1398 86.6555 79.0428 86.4962 78.9559 86.3369L72.128 75.1682C70.7604 73.1906 71.2753 70.4366 73.2882 69.0563C74.0439 68.5387 74.9166 68.2666 75.8161 68.2666C77.1804 68.2666 78.4443 68.8904 79.2803 69.9787L79.3438 70.0551L87.4557 80.5071C87.5594 80.6199 87.8503 81.018 87.8503 81.018L87.9005 81.0778C89.4754 83.4535 88.8267 86.5327 86.4693 88.1486C85.6 88.7459 84.5835 89.0611 83.5302 89.0611V89.0545ZM75.8128 69.554C75.1775 69.554 74.5555 69.7498 74.0205 70.1181C72.5927 71.0936 72.2316 73.0413 73.2113 74.4648L80.0794 85.6932C80.163 85.8459 80.2366 85.962 80.3135 86.0814C81.0424 87.1366 82.2428 87.7637 83.5302 87.7637C84.3193 87.7637 85.0817 87.5281 85.7337 87.0802C87.5059 85.8691 87.9974 83.5663 86.8606 81.8409L86.8271 81.8111C86.8004 81.7746 86.5563 81.4428 86.4493 81.32L78.2604 70.7817C77.6552 69.992 76.7691 69.554 75.8094 69.554H75.8128Z" fill="#8025BD"/>
<path d="M67.5805 68.0549C67.1325 68.0549 66.6811 68.015 66.233 67.9321C64.307 67.5771 62.6384 66.4954 61.5283 64.8927L62.595 64.1627C63.5078 65.4833 64.8821 66.3726 66.4704 66.6646C68.052 66.9599 69.657 66.6148 70.9878 65.7057C72.3153 64.7965 73.2081 63.4294 73.5023 61.85C73.7966 60.2739 73.4555 58.6746 72.5427 57.354L73.6093 56.624C74.7195 58.23 75.1307 60.1678 74.7763 62.0856C74.4219 64.0035 73.3351 65.6658 71.7234 66.7708C70.4896 67.6169 69.0551 68.0582 67.5839 68.0582L67.5805 68.0549Z" fill="#8025BD"/>
<path d="M73.124 69.9455L70.8369 66.6308L71.9036 65.8975L74.194 69.2122L73.124 69.9455Z" fill="#8025BD"/>
<path d="M59.7391 65.9173C58.1709 65.9173 56.7063 65.1508 55.8202 63.8634C54.3356 61.7166 54.884 58.7635 57.0441 57.2869C57.8399 56.7428 58.7694 56.4541 59.7324 56.4541C61.3007 56.4541 62.7652 57.2206 63.6513 58.5047C65.136 60.6548 64.5876 63.6079 62.4275 65.0845C61.6317 65.6286 60.7021 65.9173 59.7391 65.9173ZM59.7291 57.7448C59.0303 57.7448 58.3548 57.9539 57.7763 58.3521C56.2048 59.4271 55.8069 61.5739 56.8869 63.1367C57.5323 64.0724 58.5989 64.6299 59.7391 64.6299C60.438 64.6299 61.1134 64.4208 61.6919 64.0227C63.2635 62.9476 63.6614 60.8008 62.5813 59.238C61.936 58.3056 60.8693 57.7448 59.7291 57.7448Z" fill="#8025BD"/>
<path d="M70.7397 58.3822C69.1715 58.3822 67.7069 57.6157 66.8208 56.3316C66.1019 55.293 65.8344 54.0321 66.0651 52.7912C66.2958 51.5469 66.998 50.4685 68.0446 49.7518C68.8404 49.2076 69.77 48.9189 70.733 48.9189C72.2979 48.9189 73.7658 49.6887 74.6519 50.9728C75.3708 52.0147 75.6383 53.2723 75.4076 54.5166C75.1768 55.7609 74.4747 56.8359 73.4281 57.5526C72.6322 58.0968 71.7027 58.3855 70.7397 58.3855V58.3822ZM70.733 50.2064C70.0341 50.2064 69.3587 50.4154 68.7769 50.8136C68.0179 51.3345 67.5063 52.1176 67.3357 53.0234C67.1685 53.9293 67.3625 54.8417 67.8874 55.5983C68.5328 56.5307 69.5995 57.0914 70.7397 57.0914C71.4385 57.0914 72.114 56.8824 72.6958 56.4842C73.4548 55.9633 73.9664 55.1802 74.1369 54.2777C74.3041 53.3751 74.1102 52.4594 73.5852 51.6995C72.9399 50.7671 71.8732 50.2064 70.733 50.2064Z" fill="#8025BD"/>
</g>
<defs>
<clipPath id="clip0_263_82123">
<rect width="93" height="90" fill="white"/>
</clipPath>
</defs>
</svg>
