<svg width="91" height="69" viewBox="0 0 91 69" fill="none" xmlns="http://www.w3.org/2000/svg">
<g clip-path="url(#clip0_263_82180)">
<path d="M69.7855 61.7239C65.3192 61.7239 60.5762 60.3012 60.5762 57.6592C60.5762 57.2675 60.8936 56.946 61.2886 56.946C61.6835 56.946 62.0009 57.2638 62.0009 57.6592C62.0009 58.7604 64.9649 60.2975 69.7892 60.2975C74.6134 60.2975 77.57 58.7604 77.57 57.6592C77.57 57.201 77.0532 56.7834 76.7432 56.5728C76.4184 56.3511 76.3335 55.9077 76.5549 55.5825C76.7764 55.2573 77.2193 55.1723 77.5441 55.3941C78.7401 56.2107 78.9911 57.0754 78.9911 57.6592C78.9911 60.2975 74.248 61.7239 69.7892 61.7239H69.7855Z" fill="#8025BD"/>
<path d="M45.1475 65.7967C20.1108 65.7967 0.5 58.7426 0.5 49.7375C0.5 43.5444 9.98612 38.0238 25.2562 35.3263C25.3669 35.3078 25.4813 35.3152 25.5884 35.3485C31.2025 37.0778 38.319 38.0312 45.6273 38.0312C52.9357 38.0312 59.7569 37.1148 65.3046 35.4556C65.4116 35.4224 65.5297 35.4187 65.6405 35.4372C80.534 38.1716 89.7876 43.6515 89.7876 49.7375C89.7876 52.1541 88.4071 54.4562 85.6794 56.5773C85.469 56.7398 85.1848 56.7731 84.9449 56.6622C81.8997 55.2544 77.5996 54.4488 73.1445 54.4488C64.5073 54.4488 57.21 57.453 57.21 61.0078C57.21 61.9759 57.7563 62.9256 58.8378 63.8272C59.0555 64.0119 59.1441 64.3076 59.0629 64.581C58.9817 64.8545 58.7418 65.0503 58.4613 65.0836C54.1759 65.5565 49.6949 65.7967 45.1438 65.7967H45.1475ZM25.3374 36.76C11.1082 39.2986 1.92107 44.3832 1.92107 49.7375C1.92107 53.4548 6.43897 57.1648 14.3121 59.9177C22.5358 62.7925 33.4873 64.3741 45.1438 64.3741C49.1302 64.3741 53.0575 64.1893 56.8446 63.8198C56.1507 62.933 55.7889 61.9796 55.7889 61.0078C55.7889 56.5292 63.4147 53.0225 73.1445 53.0225C77.6734 53.0225 81.9108 53.7874 85.1368 55.1879C87.2777 53.4327 88.3628 51.5999 88.3628 49.7375C88.3628 44.4829 79.4119 39.439 65.5482 36.8672C59.8196 38.5596 52.9357 39.4538 45.6273 39.4538C38.319 39.4538 31.0549 38.4968 25.3374 36.76Z" fill="#8025BD"/>
<path d="M45.1475 65.7967C20.1108 65.7967 0.5 58.7426 0.5 49.7375C0.5 43.5444 9.98612 38.0238 25.2562 35.3263C25.3669 35.3078 25.4813 35.3152 25.5884 35.3485C31.2025 37.0778 38.319 38.0312 45.6273 38.0312C52.9357 38.0312 59.7569 37.1148 65.3046 35.4556C65.4116 35.4224 65.5297 35.4187 65.6405 35.4372C80.534 38.1716 89.7876 43.6515 89.7876 49.7375C89.7876 52.1541 88.4071 54.4562 85.6794 56.5773C85.469 56.7398 85.1848 56.7731 84.9449 56.6622C81.8997 55.2544 77.5996 54.4488 73.1445 54.4488C64.5073 54.4488 57.21 57.453 57.21 61.0078C57.21 61.9759 57.7563 62.9256 58.8378 63.8272C59.0555 64.0119 59.1441 64.3076 59.0629 64.581C58.9817 64.8545 58.7418 65.0503 58.4613 65.0836C54.1759 65.5565 49.6949 65.7967 45.1438 65.7967H45.1475ZM25.3374 36.76C11.1082 39.2986 1.92107 44.3832 1.92107 49.7375C1.92107 53.4548 6.43897 57.1648 14.3121 59.9177C22.5358 62.7925 33.4873 64.3741 45.1438 64.3741C49.1302 64.3741 53.0575 64.1893 56.8446 63.8198C56.1507 62.933 55.7889 61.9796 55.7889 61.0078C55.7889 56.5292 63.4147 53.0225 73.1445 53.0225C77.6734 53.0225 81.9108 53.7874 85.1368 55.1879C87.2777 53.4327 88.3628 51.5999 88.3628 49.7375C88.3628 44.4829 79.4119 39.439 65.5482 36.8672C59.8196 38.5596 52.9357 39.4538 45.6273 39.4538C38.319 39.4538 31.0549 38.4968 25.3374 36.76Z" fill="#8025BD"/>
<path d="M40.3384 56.3739C23.0566 56.3739 5.18066 52.3203 5.18066 45.5359C5.18066 45.1443 5.4981 44.8228 5.89305 44.8228C6.28799 44.8228 6.60543 45.1406 6.60543 45.5359C6.60543 50.081 20.1628 54.9513 40.342 54.9513C60.5213 54.9513 74.0713 50.0847 74.0713 45.5359C74.0713 43.5369 71.362 41.4269 66.6374 39.7493C66.2683 39.6163 66.0727 39.2098 66.2056 38.8403C66.3384 38.4708 66.7445 38.2749 67.1136 38.408C72.5985 40.3553 75.496 42.82 75.496 45.5359C75.496 52.3203 57.6238 56.3739 40.3457 56.3739H40.3384Z" fill="#8025BD"/>
<path d="M45.6276 39.453C38.1827 39.453 30.9186 38.4774 25.1716 36.7074C17.472 34.3351 13.0537 30.7323 13.0537 26.8265C13.0537 21.62 21.0228 17.0232 33.3547 15.1202C33.4618 15.1018 33.5725 15.1128 33.6759 15.1461C37.2525 16.2694 41.5527 16.8644 46.1112 16.8644C50.6697 16.8644 54.704 16.3064 58.218 15.2496C58.3213 15.22 58.432 15.2126 58.5391 15.2274C70.668 17.2154 78.2016 21.6607 78.2016 26.8302C78.2016 30.8099 73.6504 34.4497 65.7183 36.822C65.7072 36.822 65.6961 36.8294 65.6814 36.8331C59.9269 38.5513 52.9951 39.4603 45.6276 39.4603V39.453ZM33.4101 16.5503C22.0784 18.3276 14.4785 22.4478 14.4785 26.8265C14.4785 30.0192 18.631 33.2044 25.5924 35.3476C31.2065 37.077 38.323 38.0303 45.6313 38.0303C52.9397 38.0303 59.7608 37.1139 65.3086 35.4548C65.3196 35.4511 65.3344 35.4474 65.3455 35.4437C72.5062 33.2968 76.7805 30.0783 76.7805 26.8265C76.7805 22.5586 69.4315 18.4791 58.4726 16.6537C54.8591 17.7179 50.5922 18.2833 46.1149 18.2833C41.6376 18.2833 37.0938 17.6847 33.4138 16.5503H33.4101Z" fill="#8025BD"/>
<path d="M41.0758 30.8737C30.63 30.8737 19.8262 27.9175 19.8262 22.966C19.8262 22.5743 20.1436 22.2528 20.5386 22.2528C20.9335 22.2528 21.2509 22.5706 21.2509 22.966C21.2509 24.5401 23.27 26.1475 26.7913 27.3817C30.5968 28.7157 35.672 29.4473 41.0795 29.4473C46.487 29.4473 51.5585 28.712 55.364 27.3817C58.8817 26.1475 60.9007 24.5401 60.9007 22.966C60.9007 21.5951 59.2951 20.1429 56.4972 18.9826C56.1355 18.8311 55.962 18.4172 56.1133 18.0514C56.2647 17.6893 56.6818 17.5156 57.0435 17.6671C60.4984 19.1008 62.3255 20.9336 62.3255 22.966C62.3255 27.9175 51.5253 30.8737 41.0795 30.8737H41.0758Z" fill="#8025BD"/>
<path d="M46.1144 18.2839C41.412 18.2839 36.9642 17.6668 33.251 16.5029C27.7771 14.792 24.6396 12.1093 24.6396 9.13838C24.6396 4.01687 34.0704 0.00390625 46.1144 0.00390625C58.1585 0.00390625 67.5856 4.01687 67.5856 9.13838C67.5856 12.1795 64.3226 14.9029 58.631 16.61C54.9842 17.7075 50.6582 18.2839 46.1144 18.2839ZM46.1144 1.42655C34.1184 1.42655 26.0644 5.41364 26.0644 9.13838C26.0644 11.4109 28.9102 13.6539 33.6791 15.143C37.2558 16.2664 41.5559 16.8613 46.1181 16.8613C50.6803 16.8613 54.711 16.3033 58.2249 15.2465C63.1968 13.7537 66.1682 11.47 66.1682 9.13838C66.1682 5.41364 58.1142 1.42655 46.1218 1.42655H46.1144Z" fill="#8025BD"/>
<path d="M43.0139 11.2921C39.559 11.2921 36.3035 10.7859 33.8415 9.86208C31.1581 8.85699 29.6816 7.43435 29.6816 5.85282C29.6816 5.46113 29.9991 5.13965 30.394 5.13965C30.789 5.13965 31.1064 5.45743 31.1064 5.85282C31.1064 7.75214 35.9971 9.86578 43.0176 9.86578C50.038 9.86578 54.925 7.75214 54.925 5.85282C54.925 5.46113 55.2425 5.13965 55.6374 5.13965C56.0324 5.13965 56.3498 5.45743 56.3498 5.85282C56.3498 7.43435 54.8734 8.85699 52.1936 9.86208C49.7317 10.7822 46.4761 11.2921 43.0213 11.2921H43.0139Z" fill="#8025BD"/>
<path d="M73.1483 69.0002C66.7627 69.0002 60.9308 67.4371 57.9262 64.917C56.531 63.7493 55.7891 62.3932 55.7891 61.0038C55.7891 56.5253 63.4149 53.0186 73.1446 53.0186C77.8655 53.0186 82.2653 53.85 85.5393 55.3613C88.7358 56.8431 90.4928 58.8458 90.4928 61.0001C90.4928 65.4861 82.8706 68.9965 73.1409 68.9965L73.1483 69.0002ZM73.1483 54.4449C64.5111 54.4449 57.2138 57.4491 57.2138 61.0038C57.2138 61.972 57.7601 62.9216 58.8416 63.8232C61.6025 66.1364 67.0838 67.5738 73.1483 67.5738C82.675 67.5738 89.0754 64.1743 89.0754 61.0001C89.0754 59.4334 87.61 57.8888 84.945 56.6546C81.8999 55.2467 77.5998 54.4412 73.1483 54.4412V54.4449Z" fill="#8025BD"/>
<path d="M69.7855 61.7241C65.3192 61.7241 60.5762 60.3015 60.5762 57.6595C60.5762 57.2678 60.8936 56.9463 61.2886 56.9463C61.6835 56.9463 62.0009 57.2641 62.0009 57.6595C62.0009 58.7606 64.9649 60.2978 69.7892 60.2978C74.6134 60.2978 77.57 58.7606 77.57 57.6595C77.57 57.2678 77.8874 56.9463 78.2824 56.9463C78.6773 56.9463 78.9947 57.2641 78.9947 57.6595C78.9947 60.2978 74.2517 61.7241 69.7928 61.7241H69.7855Z" fill="#8025BD"/>
</g>
<defs>
<clipPath id="clip0_263_82180">
<rect width="90" height="69" fill="white" transform="translate(0.5)"/>
</clipPath>
</defs>
</svg>
