<svg width="107" height="110" viewBox="0 0 107 110" fill="none" xmlns="http://www.w3.org/2000/svg">
<path d="M79.5 57.393C77.5414 58.1304 75.5349 58.7495 73.4931 59.213C73.0031 59.3243 72.5108 59.4261 72.0165 59.5167C66.5547 60.5181 61.007 60.1708 56.5973 56.4783C52.7217 53.2329 50.6155 48.1751 51.3097 43.1461C51.3397 42.9292 51.4145 42.7282 51.4764 42.5335C52.6576 38.686 55.0818 40.4435 55.0818 40.4435C56.4631 40.8283 57.5918 41.1655 58.7397 41.46C60.0637 41.7972 61.3354 41.0325 61.2782 39.7405C61.2544 39.275 61.302 38.9235 61.4449 38.6718C61.5688 38.458 61.7688 38.3298 61.9974 38.2586C62.1594 38.2063 62.5023 38.2681 62.5832 38.0875C62.6166 38.0163 62.5118 37.7646 62.4927 37.6838C62.4737 37.6221 62.2879 37.0046 62.3594 36.9761C63.4405 36.5343 63.8835 35.8741 63.1929 34.7055C62.4547 33.4516 64.0407 32.9956 64.8408 32.4731C65.941 31.7606 64.817 31.2191 64.2598 30.7203C63.3453 29.9034 62.6356 28.8299 62.5166 27.5854C62.4404 26.7731 62.4642 25.9087 62.6642 25.1202C64.0311 19.7432 63.131 14.827 59.8351 10.3431C59.7875 10.2766 59.7446 10.2053 59.7018 10.1293C59.3493 9.72557 58.9778 9.32657 58.592 8.94182C61.0401 15.891 60.4924 20.8784 56.3249 26.8776C54.3579 29.7086 52.1003 32.3353 50.0761 35.1283C47.2518 39.0233 46.5278 42.8945 47.7852 46.8559L47.6423 46.609C32.3871 9.85858 70.7086 -1.52227 75.7667 0.159197C75.7667 0.159197 89.8794 28.1006 60.0662 44.4123C60.0662 44.4123 71.0578 46.7645 75.5624 53.9473C74.3138 51.4292 71.4737 47.5157 65.1211 44.115C65.1211 44.115 74.0955 45.7241 79.5 57.393ZM31.4421 26.626C31.4149 26.5546 31.3834 26.484 31.3475 26.4145C30.8321 25.4174 29.6038 25.0257 28.604 25.5397C27.6041 26.0536 27.2114 27.2786 27.7268 28.2757C28.0865 28.9718 28.431 29.5891 28.7969 30.2268C29.1576 30.859 29.5293 31.4818 29.907 32.099C30.6595 33.3358 31.4482 34.5453 32.2541 35.7406C33.8758 38.125 35.6128 40.424 37.4524 42.6301C39.275 44.849 41.2786 46.917 43.353 48.8822L44.9454 50.3178C45.4791 50.7912 46.0524 51.2224 46.602 51.6748L47.4335 52.3447C47.713 52.5646 48.0126 52.7607 48.3006 52.9693L50.0399 54.1994L48.4621 52.7738C48.2025 52.5337 47.9322 52.3071 47.6824 52.0569L46.9418 51.2981C46.4538 50.7873 45.9454 50.3009 45.4776 49.7737L44.0889 48.1832C42.2925 46.019 40.5937 43.7864 39.0861 41.4245C37.5628 39.0766 36.1555 36.6608 34.874 34.1859C34.2384 32.9457 33.6226 31.6978 33.048 30.435C32.759 29.8042 32.4777 29.1718 32.2099 28.5363C31.9428 27.9088 31.6748 27.2504 31.4533 26.6567L31.4421 26.626ZM40.6221 29.9079C40.3877 28.8072 39.303 28.1045 38.1994 28.3382C37.0958 28.5719 36.3911 29.6537 36.6254 30.7543L36.6437 30.8398C36.6816 31.0182 36.7185 31.1577 36.7554 31.3048C36.7916 31.4533 36.8305 31.5957 36.87 31.7367C36.9476 32.0208 37.026 32.3037 37.1119 32.58C37.2744 33.1387 37.4586 33.6847 37.6387 34.2314C37.8269 34.7751 38.0215 35.3145 38.22 35.8514C38.4313 36.3838 38.6322 36.9185 38.8517 37.4453C39.7194 39.556 40.7262 41.599 41.8494 43.5652C42.3888 44.559 43.0186 45.5036 43.611 46.4597L44.5772 47.8478C44.7401 48.0771 44.8937 48.3117 45.0639 48.5357L45.5817 49.2023C46.9183 51.0066 48.4702 52.6344 50.04 54.1994C48.7216 52.4079 47.4591 50.5966 46.4328 48.6485L46.0328 47.9304C45.9021 47.6898 45.7882 47.4389 45.6653 47.1941L44.9434 45.7211C44.5153 44.7123 44.055 43.7266 43.687 42.6992C42.9074 40.6677 42.2552 38.5949 41.7482 36.4968C41.6189 35.9733 41.5089 35.4453 41.3885 34.9218C41.2813 34.3952 41.178 33.8684 41.082 33.3426C40.9944 32.8154 40.9023 32.2896 40.8342 31.7657C40.7946 31.503 40.7644 31.2433 40.7349 30.9845C40.7191 30.8544 40.7044 30.7254 40.694 30.6011C40.6823 30.4759 40.6689 30.3433 40.665 30.2482C40.6597 30.1393 40.6455 30.018 40.6221 29.9079Z" fill="#001588"/>
<path d="M10.8179 93.5127C9.57601 93.5127 8.36833 93.3019 7.19482 92.8804C6.02132 92.4474 4.96175 91.798 4.01611 90.9321C3.08187 90.0662 2.33561 88.9782 1.77734 87.668C1.21908 86.3464 0.939941 84.8083 0.939941 83.0537C0.939941 80.5244 1.45833 78.3597 2.49512 76.5596C3.54329 74.748 4.96745 73.3638 6.76758 72.4067C8.56771 71.4383 10.5957 70.9541 12.8516 70.9541C13.3529 70.9541 13.9681 71.0225 14.6973 71.1592C15.4264 71.2959 16.1556 71.4953 16.8848 71.7573C17.6139 72.008 18.2235 72.3213 18.7134 72.6973C18.7931 72.7542 18.7703 72.9422 18.645 73.2612C18.5197 73.5802 18.3431 73.9448 18.1152 74.355C17.8874 74.7651 17.6481 75.1468 17.3975 75.5C17.1582 75.8532 16.9645 76.0981 16.8164 76.2349L15.7397 75.9956C14.9878 74.8905 14.2131 74.1328 13.4155 73.7227C12.618 73.3011 11.7236 73.0903 10.7324 73.0903C10.3109 73.0903 9.79248 73.2327 9.17725 73.5176C8.56201 73.791 7.95247 74.2638 7.34863 74.936C6.75618 75.6082 6.26058 76.5311 5.86182 77.7046C5.46305 78.8667 5.26367 80.3364 5.26367 82.1138C5.26367 84.1418 5.56559 85.7995 6.16943 87.0869C6.77327 88.363 7.55371 89.3029 8.51074 89.9067C9.46777 90.5106 10.4818 90.8125 11.5527 90.8125C12.1794 90.8125 12.7376 90.7555 13.2275 90.6416C13.7288 90.5277 14.1789 90.3739 14.5776 90.1802V84.9678C14.5776 84.7969 14.5264 84.6374 14.4238 84.4893C14.3213 84.3298 14.0763 84.1759 13.689 84.0278C13.3016 83.8683 12.6807 83.7145 11.8262 83.5664V82.3188H20.3369V83.5664C19.6875 83.7145 19.2489 83.9196 19.021 84.1816C18.7931 84.4437 18.6792 84.7057 18.6792 84.9678V90.1118C16.993 91.4904 15.5176 92.4019 14.2529 92.8462C12.9997 93.2905 11.8547 93.5127 10.8179 93.5127ZM21.7896 93V91.7524C23.3504 91.4448 24.1309 91.0973 24.1309 90.71V73.7739C24.1309 73.6372 23.9429 73.4663 23.5669 73.2612C23.2023 73.0562 22.6099 72.8739 21.7896 72.7144V71.4668H36.8457L37.5293 72.0137C37.5065 72.401 37.4552 72.9137 37.3755 73.5518C37.3071 74.1898 37.2217 74.8107 37.1191 75.4146C37.0166 76.0184 36.9198 76.4684 36.8286 76.7646H35.5469C35.4443 74.5999 34.9772 73.5176 34.1455 73.5176H28.4033V80.439H35.2051L35.769 81.0371C35.5868 81.3561 35.3418 81.7492 35.0342 82.2163C34.7266 82.6834 34.4474 83.0081 34.1968 83.1904C33.8436 82.86 33.4277 82.6208 32.9492 82.4727C32.4821 82.3245 31.77 82.2505 30.813 82.2505H28.4033V89.8555C28.4033 90.0719 28.4831 90.2656 28.6426 90.4365C28.8135 90.596 29.1439 90.7214 29.6338 90.8125C30.1351 90.9036 30.887 90.9492 31.8896 90.9492H33.5815C34.6297 90.9492 35.4045 90.6872 35.9058 90.1631C36.4071 89.6276 36.9027 88.6934 37.3926 87.3604L38.6401 87.8047C38.5832 88.4541 38.5091 89.1434 38.418 89.8726C38.3382 90.5903 38.2528 91.234 38.1616 91.8037C38.0819 92.3734 38.0078 92.7721 37.9395 93H21.7896ZM59.6094 93.5127C58.527 93.4215 57.6497 93.2108 56.9775 92.8804C56.3167 92.5386 55.8325 92.1569 55.5249 91.7354L45.083 77.2773V90.71C45.083 90.8467 45.2539 91.0233 45.5957 91.2397C45.9489 91.4562 46.5641 91.6271 47.4414 91.7524V93H40.1782V91.7524C41.0213 91.6499 41.6195 91.4904 41.9727 91.2739C42.3372 91.0461 42.5195 90.8581 42.5195 90.71V73.9619C41.779 73.2669 40.9985 72.8511 40.1782 72.7144V71.4668H44.9463C45.2767 71.4668 45.5273 71.5409 45.6982 71.689C45.8691 71.8371 46.1654 72.2074 46.5869 72.7998L57.0459 87.292V73.7739C57.0459 73.6372 56.8807 73.4606 56.5503 73.2441C56.2313 73.0163 55.616 72.8397 54.7046 72.7144V71.4668H61.9678V72.7144C61.1475 72.8283 60.5493 72.9935 60.1733 73.21C59.7974 73.4264 59.6094 73.6144 59.6094 73.7739V93.5127ZM63.4204 93V91.7524C64.9813 91.4448 65.7617 91.0973 65.7617 90.71V73.21C65.3174 73.2669 64.8958 73.3239 64.4971 73.3809C64.1097 73.4378 63.7508 73.4948 63.4204 73.5518L63.1982 71.9795C63.9502 71.7858 64.8674 71.6149 65.9497 71.4668C67.0435 71.3073 68.1714 71.182 69.3335 71.0908C70.507 70.9997 71.5837 70.9541 72.5635 70.9541C76.0612 70.9541 78.7671 71.877 80.6812 73.7227C82.5952 75.5684 83.5522 78.1432 83.5522 81.4473C83.5522 83.5778 83.2389 85.3836 82.6123 86.8647C81.9971 88.3345 81.1825 89.5251 80.1685 90.4365C79.1545 91.3366 78.0436 91.9917 76.8359 92.4019C75.6283 92.8006 74.4377 93 73.2642 93H63.4204ZM72.6318 91.1714C73.2926 91.1714 73.9876 91.0005 74.7168 90.6587C75.4574 90.3169 76.1466 89.7814 76.7847 89.0522C77.4341 88.3231 77.9582 87.3888 78.3569 86.2495C78.7671 85.0988 78.9722 83.7202 78.9722 82.1138C78.9722 79.0832 78.3171 76.7703 77.0068 75.1753C75.708 73.5688 73.8167 72.7656 71.333 72.7656C70.9115 72.7656 70.4785 72.7827 70.0342 72.8169V90.1118C70.0342 90.5675 70.2962 90.8581 70.8203 90.9834C71.3444 91.1087 71.9482 91.1714 72.6318 91.1714ZM84.9707 93V91.7524C85.7454 91.6157 86.3379 91.4733 86.748 91.3252C87.1696 91.1771 87.4373 90.9321 87.5513 90.5903L93.5156 72.3726C94.0511 71.9054 94.6663 71.5181 95.3613 71.2104C96.0677 70.9028 96.7171 70.6636 97.3096 70.4927L104.487 90.5903C104.601 90.9093 104.801 91.16 105.085 91.3423C105.37 91.5246 105.877 91.6613 106.606 91.7524V93H98.1128V91.7524C98.9901 91.6955 99.5882 91.5815 99.9072 91.4106C100.226 91.2397 100.323 90.9663 100.198 90.5903L98.4546 85.6514H91.6699L90.0293 90.5903C89.9154 90.9435 90.0521 91.1999 90.4395 91.3594C90.8382 91.5189 91.5047 91.6499 92.439 91.7524V93H84.9707ZM92.3535 83.6006H97.7368L94.917 75.6538L92.3535 83.6006Z" fill="#001588"/>
<path d="M14.26 107V98.6H18.028C18.996 98.6 19.74 98.796 20.26 99.188C20.78 99.572 21.04 100.1 21.04 100.772C21.04 101.228 20.936 101.612 20.728 101.924C20.528 102.236 20.256 102.476 19.912 102.644C19.568 102.812 19.196 102.896 18.796 102.896L19.012 102.536C19.492 102.536 19.916 102.62 20.284 102.788C20.652 102.956 20.944 103.204 21.16 103.532C21.376 103.852 21.484 104.252 21.484 104.732C21.484 105.452 21.212 106.012 20.668 106.412C20.132 106.804 19.332 107 18.268 107H14.26ZM15.46 106.028H18.22C18.884 106.028 19.392 105.916 19.744 105.692C20.096 105.468 20.272 105.116 20.272 104.636C20.272 104.148 20.096 103.792 19.744 103.568C19.392 103.344 18.884 103.232 18.22 103.232H15.352V102.26H17.92C18.528 102.26 19 102.148 19.336 101.924C19.672 101.7 19.84 101.364 19.84 100.916C19.84 100.468 19.672 100.132 19.336 99.908C19 99.684 18.528 99.572 17.92 99.572H15.46V106.028ZM26.606 107.072C25.926 107.072 25.326 106.932 24.806 106.652C24.294 106.372 23.894 105.988 23.606 105.5C23.326 105.012 23.186 104.452 23.186 103.82C23.186 103.188 23.322 102.628 23.594 102.14C23.874 101.652 24.254 101.272 24.734 101C25.222 100.72 25.77 100.58 26.378 100.58C26.994 100.58 27.538 100.716 28.01 100.988C28.482 101.26 28.85 101.644 29.114 102.14C29.386 102.628 29.522 103.2 29.522 103.856C29.522 103.904 29.518 103.96 29.51 104.024C29.51 104.088 29.506 104.148 29.498 104.204H24.086V103.376H28.898L28.43 103.664C28.438 103.256 28.354 102.892 28.178 102.572C28.002 102.252 27.758 102.004 27.446 101.828C27.142 101.644 26.786 101.552 26.378 101.552C25.978 101.552 25.622 101.644 25.31 101.828C24.998 102.004 24.754 102.256 24.578 102.584C24.402 102.904 24.314 103.272 24.314 103.688V103.88C24.314 104.304 24.41 104.684 24.602 105.02C24.802 105.348 25.078 105.604 25.43 105.788C25.782 105.972 26.186 106.064 26.642 106.064C27.018 106.064 27.358 106 27.662 105.872C27.974 105.744 28.246 105.552 28.478 105.296L29.114 106.04C28.826 106.376 28.466 106.632 28.034 106.808C27.61 106.984 27.134 107.072 26.606 107.072ZM35.4939 107V105.656L35.4339 105.404V103.112C35.4339 102.624 35.2899 102.248 35.0019 101.984C34.7219 101.712 34.2979 101.576 33.7299 101.576C33.3539 101.576 32.9859 101.64 32.6259 101.768C32.2659 101.888 31.9619 102.052 31.7139 102.26L31.2339 101.396C31.5619 101.132 31.9539 100.932 32.4099 100.796C32.8739 100.652 33.3579 100.58 33.8619 100.58C34.7339 100.58 35.4059 100.792 35.8779 101.216C36.3499 101.64 36.5859 102.288 36.5859 103.16V107H35.4939ZM33.4059 107.072C32.9339 107.072 32.5179 106.992 32.1579 106.832C31.8059 106.672 31.5339 106.452 31.3419 106.172C31.1499 105.884 31.0539 105.56 31.0539 105.2C31.0539 104.856 31.1339 104.544 31.2939 104.264C31.4619 103.984 31.7299 103.76 32.0979 103.592C32.4739 103.424 32.9779 103.34 33.6099 103.34H35.6259V104.168H33.6579C33.0819 104.168 32.6939 104.264 32.4939 104.456C32.2939 104.648 32.1939 104.88 32.1939 105.152C32.1939 105.464 32.3179 105.716 32.5659 105.908C32.8139 106.092 33.1579 106.184 33.5979 106.184C34.0299 106.184 34.4059 106.088 34.7259 105.896C35.0539 105.704 35.2899 105.424 35.4339 105.056L35.6619 105.848C35.5099 106.224 35.2419 106.524 34.8579 106.748C34.4739 106.964 33.9899 107.072 33.4059 107.072ZM41.9938 107.072C41.4498 107.072 40.9698 106.972 40.5538 106.772C40.1458 106.572 39.8258 106.268 39.5938 105.86C39.3698 105.444 39.2578 104.924 39.2578 104.3V100.64H40.4098V104.168C40.4098 104.792 40.5578 105.26 40.8538 105.572C41.1578 105.884 41.5818 106.04 42.1258 106.04C42.5258 106.04 42.8738 105.96 43.1698 105.8C43.4658 105.632 43.6938 105.392 43.8538 105.08C44.0138 104.76 44.0938 104.376 44.0938 103.928V100.64H45.2458V107H44.1538V105.284L44.3338 105.74C44.1258 106.164 43.8138 106.492 43.3978 106.724C42.9818 106.956 42.5138 107.072 41.9938 107.072ZM50.2229 107.072C49.5829 107.072 49.0869 106.9 48.7349 106.556C48.3829 106.212 48.2069 105.72 48.2069 105.08V99.248H49.3589V105.032C49.3589 105.376 49.4429 105.64 49.6109 105.824C49.7869 106.008 50.0349 106.1 50.3549 106.1C50.7149 106.1 51.0149 106 51.2549 105.8L51.6149 106.628C51.4389 106.78 51.2269 106.892 50.9789 106.964C50.7389 107.036 50.4869 107.072 50.2229 107.072ZM47.1269 101.588V100.64H51.1829V101.588H47.1269ZM53.7664 109.4C53.4624 109.4 53.1664 109.348 52.8784 109.244C52.5904 109.148 52.3424 109.004 52.1344 108.812L52.6264 107.948C52.7864 108.1 52.9624 108.216 53.1544 108.296C53.3464 108.376 53.5504 108.416 53.7664 108.416C54.0464 108.416 54.2784 108.344 54.4624 108.2C54.6464 108.056 54.8184 107.8 54.9784 107.432L55.3744 106.556L55.4944 106.412L57.9904 100.64H59.1184L56.0344 107.636C55.8504 108.084 55.6424 108.436 55.4104 108.692C55.1864 108.948 54.9384 109.128 54.6664 109.232C54.3944 109.344 54.0944 109.4 53.7664 109.4ZM55.2784 107.204L52.3744 100.64H53.5744L56.0464 106.304L55.2784 107.204ZM64.7842 107V98.6H68.5522C69.5202 98.6 70.2642 98.796 70.7842 99.188C71.3042 99.572 71.5642 100.1 71.5642 100.772C71.5642 101.228 71.4602 101.612 71.2522 101.924C71.0522 102.236 70.7802 102.476 70.4362 102.644C70.0922 102.812 69.7202 102.896 69.3202 102.896L69.5362 102.536C70.0162 102.536 70.4402 102.62 70.8082 102.788C71.1762 102.956 71.4682 103.204 71.6842 103.532C71.9002 103.852 72.0082 104.252 72.0082 104.732C72.0082 105.452 71.7362 106.012 71.1922 106.412C70.6562 106.804 69.8562 107 68.7922 107H64.7842ZM65.9842 106.028H68.7442C69.4082 106.028 69.9162 105.916 70.2682 105.692C70.6202 105.468 70.7962 105.116 70.7962 104.636C70.7962 104.148 70.6202 103.792 70.2682 103.568C69.9162 103.344 69.4082 103.232 68.7442 103.232H65.8762V102.26H68.4442C69.0522 102.26 69.5242 102.148 69.8602 101.924C70.1962 101.7 70.3642 101.364 70.3642 100.916C70.3642 100.468 70.1962 100.132 69.8602 99.908C69.5242 99.684 69.0522 99.572 68.4442 99.572H65.9842V106.028ZM74.2982 107V98.096H75.4502V107H74.2982ZM80.9738 107.072C80.3338 107.072 79.7658 106.932 79.2698 106.652C78.7738 106.372 78.3818 105.988 78.0938 105.5C77.8058 105.004 77.6618 104.444 77.6618 103.82C77.6618 103.188 77.8058 102.628 78.0938 102.14C78.3818 101.652 78.7738 101.272 79.2698 101C79.7658 100.72 80.3338 100.58 80.9738 100.58C81.6058 100.58 82.1698 100.72 82.6658 101C83.1698 101.272 83.5618 101.652 83.8418 102.14C84.1298 102.62 84.2738 103.18 84.2738 103.82C84.2738 104.452 84.1298 105.012 83.8418 105.5C83.5618 105.988 83.1698 106.372 82.6658 106.652C82.1698 106.932 81.6058 107.072 80.9738 107.072ZM80.9738 106.064C81.3818 106.064 81.7458 105.972 82.0658 105.788C82.3938 105.604 82.6498 105.344 82.8338 105.008C83.0178 104.664 83.1098 104.268 83.1098 103.82C83.1098 103.364 83.0178 102.972 82.8338 102.644C82.6498 102.308 82.3938 102.048 82.0658 101.864C81.7458 101.68 81.3818 101.588 80.9738 101.588C80.5658 101.588 80.2018 101.68 79.8818 101.864C79.5618 102.048 79.3058 102.308 79.1138 102.644C78.9218 102.972 78.8258 103.364 78.8258 103.82C78.8258 104.268 78.9218 104.664 79.1138 105.008C79.3058 105.344 79.5618 105.604 79.8818 105.788C80.2018 105.972 80.5658 106.064 80.9738 106.064ZM89.251 109.4C88.667 109.4 88.099 109.316 87.547 109.148C87.003 108.988 86.559 108.756 86.215 108.452L86.767 107.564C87.063 107.82 87.427 108.02 87.859 108.164C88.291 108.316 88.743 108.392 89.215 108.392C89.967 108.392 90.519 108.216 90.871 107.864C91.223 107.512 91.399 106.976 91.399 106.256V104.912L91.519 103.652L91.459 102.38V100.64H92.551V106.136C92.551 107.256 92.271 108.08 91.711 108.608C91.151 109.136 90.331 109.4 89.251 109.4ZM89.107 106.736C88.491 106.736 87.939 106.608 87.451 106.352C86.971 106.088 86.587 105.724 86.299 105.26C86.019 104.796 85.879 104.26 85.879 103.652C85.879 103.036 86.019 102.5 86.299 102.044C86.587 101.58 86.971 101.22 87.451 100.964C87.939 100.708 88.491 100.58 89.107 100.58C89.651 100.58 90.147 100.692 90.595 100.916C91.043 101.132 91.399 101.468 91.663 101.924C91.935 102.38 92.071 102.956 92.071 103.652C92.071 104.34 91.935 104.912 91.663 105.368C91.399 105.824 91.043 106.168 90.595 106.4C90.147 106.624 89.651 106.736 89.107 106.736ZM89.239 105.728C89.663 105.728 90.039 105.64 90.367 105.464C90.695 105.288 90.951 105.044 91.135 104.732C91.327 104.42 91.423 104.06 91.423 103.652C91.423 103.244 91.327 102.884 91.135 102.572C90.951 102.26 90.695 102.02 90.367 101.852C90.039 101.676 89.663 101.588 89.239 101.588C88.815 101.588 88.435 101.676 88.099 101.852C87.771 102.02 87.511 102.26 87.319 102.572C87.135 102.884 87.043 103.244 87.043 103.652C87.043 104.06 87.135 104.42 87.319 104.732C87.511 105.044 87.771 105.288 88.099 105.464C88.435 105.64 88.815 105.728 89.239 105.728Z" fill="#666666"/>
</svg>
